BoPoMoFont_Regular.ufo
<glyph name="quotedbl" format="2">
  <advance width="445"/>
  <unicode hex="0022"/>
  <outline>
    <contour>
      <point x="255" y="720" type="line"/>
      <point x="282" y="476" type="line"/>
      <point x="357" y="476" type="line"/>
      <point x="383" y="720" type="line"/>
    </contour>
    <contour>
      <point x="61" y="720" type="line"/>
      <point x="88" y="476" type="line"/>
      <point x="163" y="476" type="line"/>
      <point x="189" y="720" type="line"/>
    </contour>
  </outline>
</glyph>
<glyph name="numbersign" format="2">
  <advance width="784"/>
  <unicode hex="0023"/>
  <outline>
    <contour>
      <point x="285" y="-14" type="line"/>
      <point x="317" y="208" type="line"/>
      <point x="422" y="208" type="line"/>
      <point x="392" y="0" type="line"/>
      <point x="493" y="-14" type="line"/>
      <point x="525" y="208" type="line"/>
      <point x="704" y="208" type="line"/>
      <point x="704" y="312" type="line"/>
      <point x="540" y="312" type="line"/>
      <point x="555" y="416" type="line"/>
      <point x="704" y="416" type="line"/>
      <point x="704" y="520" type="line"/>
      <point x="570" y="520" type="line"/>
      <point x="600" y="728" type="line"/>
      <point x="499" y="742" type="line"/>
      <point x="467" y="520" type="line"/>
      <point x="362" y="520" type="line"/>
      <point x="392" y="728" type="line"/>
      <point x="291" y="742" type="line"/>
      <point x="259" y="520" type="line"/>
      <point x="80" y="520" type="line"/>
      <point x="80" y="416" type="line"/>
      <point x="244" y="416" type="line"/>
      <point x="229" y="312" type="line"/>
      <point x="80" y="312" type="line"/>
      <point x="80" y="208" type="line"/>
      <point x="214" y="208" type="line"/>
      <point x="184" y="0" type="line"/>
    </contour>
    <contour>
      <point x="332" y="312" type="line"/>
      <point x="347" y="416" type="line"/>
      <point x="452" y="416" type="line"/>
      <point x="437" y="312" type="line"/>
    </contour>
  </outline>
</glyph>
<glyph name="dollar" format="2">
  <advance width="651"/>
  <unicode hex="0024"/>
  <outline>
    <contour>
      <point x="277" y="-104" type="line"/>
      <point x="372" y="-104" type="line"/>
      <point x="372" y="39" type="line"/>
      <point x="384" y="39" type="line" smooth="yes"/>
      <point x="503" y="39"/>
      <point x="565" y="129"/>
      <point x="565" y="205" type="curve" smooth="yes"/>
      <point x="565" y="300"/>
      <point x="503" y="372"/>
      <point x="384" y="372" type="curve" smooth="yes"/>
      <point x="277" y="372" type="line" smooth="yes"/>
      <point x="214" y="372"/>
      <point x="191" y="410"/>
      <point x="191" y="443" type="curve" smooth="yes"/>
      <point x="191" y="476"/>
      <point x="214" y="515"/>
      <point x="277" y="515" type="curve" smooth="yes"/>
      <point x="515" y="515" type="line"/>
      <point x="515" y="610" type="line"/>
      <point x="372" y="610" type="line"/>
      <point x="372" y="752" type="line"/>
      <point x="277" y="752" type="line"/>
      <point x="277" y="610" type="line"/>
      <point x="267" y="610" type="line" smooth="yes"/>
      <point x="148" y="610"/>
      <point x="86" y="519"/>
      <point x="86" y="443" type="curve" smooth="yes"/>
      <point x="86" y="357"/>
      <point x="148" y="277"/>
      <point x="267" y="277" type="curve" smooth="yes"/>
      <point x="375" y="277" type="line" smooth="yes"/>
      <point x="437" y="277"/>
      <point x="461" y="248"/>
      <point x="461" y="205" type="curve" smooth="yes"/>
      <point x="461" y="172"/>
      <point x="437" y="134"/>
      <point x="375" y="134" type="curve" smooth="yes"/>
      <point x="134" y="134" type="line"/>
      <point x="134" y="39" type="line"/>
      <point x="277" y="39" type="line"/>
    </contour>
  </outline>
</glyph>
<glyph name="percent" format="2">
  <advance width="1983"/>
  <unicode hex="0025"/>
  <outline>
    <contour>
      <point x="735" y="700" type="curve" smooth="yes"/>
      <point x="624" y="700"/>
      <point x="542" y="619"/>
      <point x="542" y="511" type="curve" smooth="yes"/>
      <point x="542" y="403"/>
      <point x="624" y="322"/>
      <point x="735" y="322" type="curve" smooth="yes"/>
      <point x="846" y="322"/>
      <point x="929" y="403"/>
      <point x="929" y="511" type="curve" smooth="yes"/>
      <point x="929" y="619"/>
      <point x="846" y="700"/>
    </contour>
    <contour>
      <point x="1267" y="688" type="line"/>
      <point x="1158" y="688" type="line"/>
      <point x="716" y="-12" type="line"/>
      <point x="826" y="-12" type="line"/>
    </contour>
    <contour>
      <point x="735" y="608" type="curve" smooth="yes"/>
      <point x="790" y="608"/>
      <point x="831" y="568"/>
      <point x="831" y="511" type="curve" smooth="yes"/>
      <point x="831" y="454"/>
      <point x="790" y="414"/>
      <point x="735" y="414" type="curve" smooth="yes"/>
      <point x="681" y="414"/>
      <point x="640" y="454"/>
      <point x="640" y="511" type="curve" smooth="yes"/>
      <point x="640" y="568"/>
      <point x="681" y="608"/>
    </contour>
    <contour>
      <point x="1248" y="354" type="curve" smooth="yes"/>
      <point x="1137" y="354"/>
      <point x="1055" y="272"/>
      <point x="1055" y="165" type="curve" smooth="yes"/>
      <point x="1055" y="56"/>
      <point x="1137" y="-25"/>
      <point x="1248" y="-25" type="curve" smooth="yes"/>
      <point x="1359" y="-25"/>
      <point x="1442" y="56"/>
      <point x="1442" y="165" type="curve" smooth="yes"/>
      <point x="1442" y="272"/>
      <point x="1359" y="354"/>
    </contour>
    <contour>
      <point x="1248" y="261" type="curve" smooth="yes"/>
      <point x="1303" y="261"/>
      <point x="1344" y="222"/>
      <point x="1344" y="165" type="curve" smooth="yes"/>
      <point x="1344" y="107"/>
      <point x="1303" y="68"/>
      <point x="1248" y="68" type="curve" smooth="yes"/>
      <point x="1194" y="68"/>
      <point x="1153" y="107"/>
      <point x="1153" y="165" type="curve" smooth="yes"/>
      <point x="1153" y="222"/>
      <point x="1194" y="261"/>
    </contour>
  </outline>
</glyph>
<glyph name="ampersand" format="2">
  <advance width="670"/>
  <unicode hex="0026"/>
  <outline>
    <contour>
      <point x="297" y="-10" type="curve" smooth="yes"/>
      <point x="417" y="-10"/>
      <point x="506" y="72"/>
      <point x="506" y="189" type="curve"/>
      <point x="571" y="189" type="line"/>
      <point x="571" y="285" type="line"/>
      <point x="400" y="285" type="line"/>
      <point x="400" y="189" type="line" smooth="yes"/>
      <point x="400" y="126"/>
      <point x="356" y="85"/>
      <point x="297" y="85" type="curve" smooth="yes"/>
      <point x="237" y="85"/>
      <point x="194" y="125"/>
      <point x="194" y="186" type="curve" smooth="yes"/>
      <point x="194" y="245"/>
      <point x="238" y="285"/>
      <point x="297" y="285" type="curve"/>
      <point x="297" y="380" type="line"/>
      <point x="239" y="380"/>
      <point x="199" y="424"/>
      <point x="199" y="480" type="curve" smooth="yes"/>
      <point x="199" y="538"/>
      <point x="239" y="579"/>
      <point x="297" y="579" type="curve"/>
      <point x="297" y="674" type="line"/>
      <point x="179" y="674"/>
      <point x="94" y="597"/>
      <point x="94" y="480" type="curve" smooth="yes"/>
      <point x="94" y="423"/>
      <point x="120" y="371"/>
      <point x="161" y="335" type="curve"/>
      <point x="118" y="301"/>
      <point x="87" y="250"/>
      <point x="87" y="186" type="curve" smooth="yes"/>
      <point x="87" y="79"/>
      <point x="178" y="-10"/>
    </contour>
    <contour>
      <point x="395" y="480" type="curve"/>
      <point x="500" y="480" type="line"/>
      <point x="500" y="597"/>
      <point x="415" y="674"/>
      <point x="297" y="674" type="curve"/>
      <point x="297" y="579" type="line"/>
      <point x="355" y="579"/>
      <point x="395" y="538"/>
    </contour>
    <contour>
      <point x="407" y="189" type="line"/>
      <point x="441" y="49" type="line"/>
      <point x="465" y="20"/>
      <point x="502" y="-1"/>
      <point x="546" y="-1" type="curve" smooth="yes"/>
      <point x="559" y="-1" type="line"/>
      <point x="559" y="94" type="line"/>
      <point x="555" y="94" type="line" smooth="yes"/>
      <point x="526" y="94"/>
      <point x="507" y="114"/>
      <point x="507" y="142" type="curve" smooth="yes"/>
      <point x="507" y="195" type="line"/>
      <point x="407" y="195" type="line"/>
    </contour>
    <contour>
      <point x="456" y="189" type="move"/>
      <point x="541" y="189" type="line"/>
      <point x="541" y="285" type="line"/>
      <point x="350" y="285" type="line"/>
      <point x="350" y="189" type="line"/>
    </contour>
    <contour>
      <point x="457" y="195" type="move"/>
      <point x="357" y="195" type="line"/>
      <point x="357" y="189" type="line"/>
    </contour>
  </outline>
</glyph>
<glyph name="quotesingle" format="2">
  <advance width="251"/>
  <unicode hex="0027"/>
  <outline>
    <contour>
      <point x="61" y="720" type="line"/>
      <point x="189" y="720" type="line"/>
      <point x="163" y="476" type="line"/>
      <point x="88" y="476" type="line"/>
    </contour>
  </outline>
</glyph>
<glyph name="parenleft" format="2">
  <advance width="600"/>
  <unicode hex="0028"/>
  <outline>
    <contour>
      <point x="305" y="-208" type="curve" smooth="yes"/>
      <point x="309" y="-208" type="line"/>
      <point x="309" y="-113" type="line"/>
      <point x="250" y="-113"/>
      <point x="206" y="-69"/>
      <point x="206" y="-9" type="curve" smooth="yes"/>
      <point x="206" y="640" type="line" smooth="yes"/>
      <point x="206" y="700"/>
      <point x="250" y="744"/>
      <point x="309" y="744" type="curve"/>
      <point x="309" y="839" type="line"/>
      <point x="305" y="839" type="line" smooth="yes"/>
      <point x="195" y="839"/>
      <point x="100" y="748"/>
      <point x="100" y="639" type="curve" smooth="yes"/>
      <point x="100" y="-9" type="line" smooth="yes"/>
      <point x="100" y="-126"/>
      <point x="195" y="-208"/>
    </contour>
  </outline>
</glyph>
<glyph name="parenright" format="2">
  <advance width="600"/>
  <unicode hex="0029"/>
  <outline>
    <contour>
      <point x="104" y="-132" type="line" smooth="yes"/>
      <point x="214" y="-132"/>
      <point x="309" y="-50"/>
      <point x="309" y="67" type="curve" smooth="yes"/>
      <point x="309" y="500" type="line" smooth="yes"/>
      <point x="309" y="609"/>
      <point x="214" y="700"/>
      <point x="104" y="700" type="curve" smooth="yes"/>
      <point x="100" y="700" type="line"/>
      <point x="100" y="605" type="line"/>
      <point x="159" y="605"/>
      <point x="203" y="561"/>
      <point x="203" y="501" type="curve" smooth="yes"/>
      <point x="203" y="67" type="line" smooth="yes"/>
      <point x="203" y="7"/>
      <point x="159" y="-37"/>
      <point x="100" y="-37" type="curve"/>
      <point x="100" y="-132" type="line"/>
    </contour>
  </outline>
</glyph>
<glyph name="asterisk" format="2">
  <advance width="464"/>
  <unicode hex="002A"/>
  <outline>
    <contour>
      <point x="85" y="401" type="line"/>
      <point x="163" y="507" type="line"/>
      <point x="38" y="549" type="line"/>
      <point x="65" y="630" type="line"/>
      <point x="189" y="588" type="line"/>
      <point x="189" y="720" type="line"/>
      <point x="275" y="720" type="line"/>
      <point x="275" y="588" type="line"/>
      <point x="399" y="630" type="line"/>
      <point x="426" y="549" type="line"/>
      <point x="301" y="507" type="line"/>
      <point x="379" y="401" type="line"/>
      <point x="310" y="351" type="line"/>
      <point x="232" y="458" type="line"/>
      <point x="154" y="351" type="line"/>
    </contour>
  </outline>
</glyph>
<glyph name="plus" format="2">
  <advance width="1200"/>
  <unicode hex="002B"/>
  <outline>
    <contour>
      <point x="649" y="83" type="line"/>
      <point x="649" y="261" type="line"/>
      <point x="825" y="261" type="line"/>
      <point x="825" y="356" type="line"/>
      <point x="649" y="356" type="line"/>
      <point x="649" y="533" type="line"/>
      <point x="552" y="533" type="line"/>
      <point x="552" y="356" type="line"/>
      <point x="375" y="356" type="line"/>
      <point x="375" y="261" type="line"/>
      <point x="552" y="261" type="line"/>
      <point x="552" y="83" type="line"/>
    </contour>
  </outline>
</glyph>
<glyph name="comma" format="2">
  <advance width="285"/>
  <unicode hex="002C"/>
  <outline>
    <contour>
      <point x="115" y="3" type="line" smooth="yes"/>
      <point x="115" y="-32"/>
      <point x="84" y="-66"/>
      <point x="55" y="-66" type="curve" smooth="yes"/>
      <point x="35" y="-66" type="line"/>
      <point x="35" y="-148" type="line"/>
      <point x="86" y="-148" type="line" smooth="yes"/>
      <point x="172" y="-148"/>
      <point x="220" y="-98"/>
      <point x="220" y="-8" type="curve" smooth="yes"/>
      <point x="220" y="129" type="line"/>
      <point x="115" y="129" type="line"/>
    </contour>
  </outline>
</glyph>
<glyph name="period" format="2">
  <advance width="296"/>
  <unicode hex="002E"/>
  <outline>
    <contour>
      <point x="91" y="18" type="curve"/>
      <point x="75" y="33"/>
      <point x="67" y="52"/>
      <point x="67" y="75" type="curve" smooth="yes"/>
      <point x="67" y="98"/>
      <point x="75" y="117"/>
      <point x="91" y="133" type="curve" smooth="yes"/>
      <point x="106" y="149"/>
      <point x="125" y="157"/>
      <point x="148" y="157" type="curve" smooth="yes"/>
      <point x="171" y="157"/>
      <point x="190" y="149"/>
      <point x="206" y="133" type="curve" smooth="yes"/>
      <point x="222" y="117"/>
      <point x="230" y="98"/>
      <point x="230" y="75" type="curve" smooth="yes"/>
      <point x="230" y="52"/>
      <point x="222" y="33"/>
      <point x="206" y="18" type="curve" smooth="yes"/>
      <point x="190" y="2"/>
      <point x="171" y="-6"/>
      <point x="148" y="-6" type="curve" smooth="yes"/>
      <point x="125" y="-6"/>
      <point x="106" y="2"/>
    </contour>
  </outline>
</glyph>
<glyph name="slash" format="2">
  <advance width="426"/>
  <unicode hex="002F"/>
  <outline>
    <contour>
      <point x="40" y="-10" type="line"/>
      <point x="155" y="-10" type="line"/>
      <point x="387" y="738" type="line"/>
      <point x="272" y="738" type="line"/>
    </contour>
  </outline>
</glyph>
<glyph name="zero" format="2">
  <advance width="601"/>
  <unicode hex="0030"/>
  <outline>
    <contour>
      <point x="300" y="-10" type="curve" smooth="yes"/>
      <point x="460" y="-10"/>
      <point x="551" y="133"/>
      <point x="551" y="340" type="curve" smooth="yes"/>
      <point x="551" y="548"/>
      <point x="460" y="691"/>
      <point x="300" y="691" type="curve" smooth="yes"/>
      <point x="141" y="691"/>
      <point x="49" y="548"/>
      <point x="49" y="340" type="curve" smooth="yes"/>
      <point x="49" y="133"/>
      <point x="141" y="-10"/>
    </contour>
    <contour>
      <point x="300" y="88" type="curve" smooth="yes"/>
      <point x="200" y="88"/>
      <point x="156" y="192"/>
      <point x="156" y="340" type="curve" smooth="yes"/>
      <point x="156" y="489"/>
      <point x="200" y="592"/>
      <point x="300" y="592" type="curve" smooth="yes"/>
      <point x="401" y="592"/>
      <point x="444" y="489"/>
      <point x="444" y="340" type="curve" smooth="yes"/>
      <point x="444" y="192"/>
      <point x="401" y="88"/>
    </contour>
  </outline>
</glyph>
<glyph name="one" format="2">
  <advance width="475"/>
  <unicode hex="0031"/>
  <outline>
    <contour>
      <point x="453" y="95" type="line"/>
      <point x="290" y="95" type="line"/>
      <point x="290" y="681" type="line"/>
      <point x="190" y="681" type="line"/>
      <point x="182" y="607"/>
      <point x="154" y="578"/>
      <point x="96" y="578" type="curve" smooth="yes"/>
      <point x="46" y="578" type="line"/>
      <point x="46" y="474" type="line"/>
      <point x="101" y="474" type="line" smooth="yes"/>
      <point x="133" y="474"/>
      <point x="172" y="479"/>
      <point x="184" y="496" type="curve"/>
      <point x="184" y="95" type="line"/>
      <point x="22" y="95" type="line"/>
      <point x="22" y="0" type="line"/>
      <point x="453" y="0" type="line"/>
    </contour>
  </outline>
</glyph>
<glyph name="two" format="2">
  <advance width="529"/>
  <unicode hex="0032"/>
  <outline>
    <contour>
      <point x="36" y="0" type="line"/>
      <point x="492" y="0" type="line"/>
      <point x="492" y="99" type="line"/>
      <point x="191" y="99" type="line"/>
      <point x="191" y="100" type="line"/>
      <point x="282" y="165" type="line" smooth="yes"/>
      <point x="423" y="265"/>
      <point x="499" y="362"/>
      <point x="499" y="468" type="curve" smooth="yes"/>
      <point x="499" y="609"/>
      <point x="400" y="691"/>
      <point x="266" y="691" type="curve" smooth="yes"/>
      <point x="105" y="691"/>
      <point x="20" y="581"/>
      <point x="19" y="448" type="curve"/>
      <point x="126" y="448" type="line"/>
      <point x="129" y="528"/>
      <point x="173" y="594"/>
      <point x="266" y="594" type="curve" smooth="yes"/>
      <point x="333" y="594"/>
      <point x="392" y="548"/>
      <point x="392" y="468" type="curve" smooth="yes"/>
      <point x="392" y="382"/>
      <point x="328" y="311"/>
      <point x="186" y="203" type="curve" smooth="yes"/>
      <point x="36" y="89" type="line"/>
    </contour>
  </outline>
</glyph>
<glyph name="three" format="2">
  <advance width="560"/>
  <unicode hex="0033"/>
  <outline>
    <contour>
      <point x="284" y="-10" type="curve" smooth="yes"/>
      <point x="405" y="-10"/>
      <point x="497" y="61"/>
      <point x="497" y="165" type="curve" smooth="yes"/>
      <point x="497" y="265"/>
      <point x="430" y="310"/>
      <point x="382" y="323" type="curve"/>
      <point x="382" y="325" type="line"/>
      <point x="417" y="338"/>
      <point x="473" y="382"/>
      <point x="473" y="466" type="curve" smooth="yes"/>
      <point x="473" y="569"/>
      <point x="394" y="631"/>
      <point x="283" y="631" type="curve" smooth="yes"/>
      <point x="133" y="631"/>
      <point x="80" y="522"/>
      <point x="78" y="448" type="curve"/>
      <point x="177" y="448" type="line"/>
      <point x="184" y="497"/>
      <point x="212" y="543"/>
      <point x="282" y="543" type="curve" smooth="yes"/>
      <point x="333" y="543"/>
      <point x="375" y="511"/>
      <point x="375" y="453" type="curve" smooth="yes"/>
      <point x="375" y="393"/>
      <point x="327" y="364"/>
      <point x="261" y="364" type="curve" smooth="yes"/>
      <point x="224" y="364" type="line"/>
      <point x="224" y="277" type="line"/>
      <point x="272" y="277" type="line" smooth="yes"/>
      <point x="338" y="277"/>
      <point x="399" y="245"/>
      <point x="399" y="177" type="curve" smooth="yes"/>
      <point x="399" y="115"/>
      <point x="350" y="78"/>
      <point x="284" y="78" type="curve" smooth="yes"/>
      <point x="222" y="78"/>
      <point x="174" y="114"/>
      <point x="163" y="177" type="curve"/>
      <point x="58" y="177" type="line"/>
      <point x="65" y="76"/>
      <point x="144" y="-10"/>
    </contour>
  </outline>
</glyph>
<glyph name="four" format="2">
  <advance width="585"/>
  <unicode hex="0034"/>
  <outline>
    <contour>
      <point x="351" y="0" type="line"/>
      <point x="452" y="0" type="line"/>
      <point x="452" y="142" type="line"/>
      <point x="541" y="142" type="line"/>
      <point x="541" y="233" type="line"/>
      <point x="452" y="233" type="line"/>
      <point x="452" y="647" type="line"/>
      <point x="317" y="647" type="line"/>
      <point x="32" y="221" type="line"/>
      <point x="32" y="142" type="line"/>
      <point x="351" y="142" type="line"/>
    </contour>
    <contour>
      <point x="139" y="233" type="line"/>
      <point x="139" y="234" type="line"/>
      <point x="148" y="241"/>
      <point x="162" y="260"/>
      <point x="175" y="279" type="curve" smooth="yes"/>
      <point x="336" y="522" type="line"/>
      <point x="341" y="530"/>
      <point x="345" y="537"/>
      <point x="349" y="545" type="curve"/>
      <point x="351" y="545" type="line"/>
      <point x="351" y="233" type="line"/>
    </contour>
  </outline>
</glyph>
<glyph name="five" format="2">
  <advance width="550"/>
  <unicode hex="0035"/>
  <outline>
    <contour>
      <point x="483" y="688" type="line"/>
      <point x="91" y="688" type="line"/>
      <point x="84" y="314" type="line"/>
      <point x="245" y="314" type="line" smooth="yes"/>
      <point x="370" y="314"/>
      <point x="406" y="257"/>
      <point x="406" y="197" type="curve" smooth="yes"/>
      <point x="406" y="137"/>
      <point x="363" y="79"/>
      <point x="273" y="79" type="curve"/>
      <point x="273" y="-25" type="line"/>
      <point x="404" y="-25"/>
      <point x="519" y="55"/>
      <point x="519" y="206" type="curve" smooth="yes"/>
      <point x="519" y="316"/>
      <point x="443" y="416"/>
      <point x="279" y="416" type="curve" smooth="yes"/>
      <point x="187" y="416" type="line"/>
      <point x="190" y="585" type="line"/>
      <point x="483" y="585" type="line"/>
    </contour>
    <contour>
      <point x="273" y="-25" type="curve"/>
      <point x="273" y="79" type="line"/>
      <point x="199" y="79"/>
      <point x="143" y="121"/>
      <point x="131" y="195" type="curve"/>
      <point x="19" y="195" type="line"/>
      <point x="26" y="77"/>
      <point x="107" y="-25"/>
    </contour>
  </outline>
</glyph>
<glyph name="six" format="2">
  <advance width="1168"/>
  <unicode hex="0036"/>
  <outline>
    <contour>
      <point x="724" y="688" type="line"/>
      <point x="592" y="688" type="line"/>
      <point x="390" y="385" type="line" smooth="yes"/>
      <point x="349" y="324"/>
      <point x="327" y="270"/>
      <point x="327" y="209" type="curve" smooth="yes"/>
      <point x="327" y="76"/>
      <point x="436" y="-24"/>
      <point x="581" y="-24" type="curve" smooth="yes"/>
      <point x="727" y="-24"/>
      <point x="835" y="76"/>
      <point x="835" y="209" type="curve" smooth="yes"/>
      <point x="835" y="342"/>
      <point x="728" y="441"/>
      <point x="600" y="441" type="curve" smooth="yes"/>
      <point x="577" y="441"/>
      <point x="559" y="438"/>
      <point x="546" y="434" type="curve"/>
    </contour>
    <contour>
      <point x="581" y="341" type="curve" smooth="yes"/>
      <point x="662" y="341"/>
      <point x="723" y="287"/>
      <point x="723" y="209" type="curve" smooth="yes"/>
      <point x="723" y="131"/>
      <point x="662" y="77"/>
      <point x="581" y="77" type="curve" smooth="yes"/>
      <point x="501" y="77"/>
      <point x="439" y="130"/>
      <point x="439" y="209" type="curve" smooth="yes"/>
      <point x="439" y="287"/>
      <point x="501" y="341"/>
    </contour>
  </outline>
</glyph>
<glyph name="seven" format="2">
  <advance width="1096"/>
  <unicode hex="0037"/>
  <outline>
    <contour>
      <point x="775" y="641" type="line"/>
      <point x="334" y="641" type="line"/>
      <point x="334" y="547" type="line"/>
      <point x="655" y="547" type="line"/>
      <point x="381" y="0" type="line"/>
      <point x="497" y="0" type="line"/>
      <point x="775" y="563" type="line"/>
    </contour>
  </outline>
</glyph>
<glyph name="eight" format="2">
  <advance width="1272"/>
  <unicode hex="0038"/>
  <outline>
    <contour>
      <point x="636" y="638" type="curve" smooth="yes"/>
      <point x="510" y="638"/>
      <point x="416" y="571"/>
      <point x="416" y="455" type="curve" smooth="yes"/>
      <point x="416" y="381"/>
      <point x="459" y="336"/>
      <point x="515" y="310" type="curve"/>
      <point x="452" y="285"/>
      <point x="402" y="240"/>
      <point x="402" y="161" type="curve" smooth="yes"/>
      <point x="402" y="45"/>
      <point x="501" y="-24"/>
      <point x="636" y="-24" type="curve" smooth="yes"/>
      <point x="771" y="-24"/>
      <point x="871" y="45"/>
      <point x="871" y="161" type="curve" smooth="yes"/>
      <point x="871" y="240"/>
      <point x="820" y="285"/>
      <point x="758" y="310" type="curve"/>
      <point x="813" y="336"/>
      <point x="856" y="381"/>
      <point x="856" y="455" type="curve" smooth="yes"/>
      <point x="856" y="571"/>
      <point x="762" y="638"/>
    </contour>
    <contour>
      <point x="636" y="266" type="curve" smooth="yes"/>
      <point x="712" y="266"/>
      <point x="765" y="231"/>
      <point x="765" y="166" type="curve" smooth="yes"/>
      <point x="765" y="102"/>
      <point x="712" y="68"/>
      <point x="636" y="68" type="curve" smooth="yes"/>
      <point x="560" y="68"/>
      <point x="507" y="102"/>
      <point x="507" y="166" type="curve" smooth="yes"/>
      <point x="507" y="231"/>
      <point x="560" y="266"/>
    </contour>
    <contour>
      <point x="636" y="546" type="curve" smooth="yes"/>
      <point x="705" y="546"/>
      <point x="751" y="513"/>
      <point x="751" y="451" type="curve" smooth="yes"/>
      <point x="751" y="386"/>
      <point x="705" y="353"/>
      <point x="636" y="353" type="curve" smooth="yes"/>
      <point x="568" y="353"/>
      <point x="522" y="386"/>
      <point x="522" y="451" type="curve" smooth="yes"/>
      <point x="522" y="513"/>
      <point x="568" y="546"/>
    </contour>
  </outline>
</glyph>
<glyph name="nine" format="2">
  <advance width="1168"/>
  <unicode hex="0039"/>
  <outline>
    <contour>
      <point x="444" y="0" type="line"/>
      <point x="577" y="0" type="line"/>
      <point x="778" y="303" type="line" smooth="yes"/>
      <point x="819" y="364"/>
      <point x="841" y="418"/>
      <point x="841" y="480" type="curve" smooth="yes"/>
      <point x="841" y="613"/>
      <point x="732" y="712"/>
      <point x="587" y="712" type="curve" smooth="yes"/>
      <point x="442" y="712"/>
      <point x="333" y="613"/>
      <point x="333" y="480" type="curve" smooth="yes"/>
      <point x="333" y="347"/>
      <point x="440" y="247"/>
      <point x="568" y="247" type="curve" smooth="yes"/>
      <point x="592" y="247"/>
      <point x="609" y="250"/>
      <point x="622" y="254" type="curve"/>
    </contour>
    <contour>
      <point x="587" y="348" type="curve" smooth="yes"/>
      <point x="506" y="348"/>
      <point x="445" y="402"/>
      <point x="445" y="480" type="curve" smooth="yes"/>
      <point x="445" y="558"/>
      <point x="506" y="612"/>
      <point x="587" y="612" type="curve" smooth="yes"/>
      <point x="668" y="612"/>
      <point x="729" y="558"/>
      <point x="729" y="480" type="curve" smooth="yes"/>
      <point x="729" y="402"/>
      <point x="668" y="348"/>
    </contour>
  </outline>
</glyph>
<glyph name="colon" format="2">
  <advance width="282"/>
  <unicode hex="003A"/>
  <outline>
    <contour>
      <point x="141" y="288" type="curve" smooth="yes"/>
      <point x="179" y="288"/>
      <point x="210" y="319"/>
      <point x="210" y="357" type="curve" smooth="yes"/>
      <point x="210" y="395"/>
      <point x="179" y="426"/>
      <point x="141" y="426" type="curve" smooth="yes"/>
      <point x="103" y="426"/>
      <point x="72" y="395"/>
      <point x="72" y="357" type="curve" smooth="yes"/>
      <point x="72" y="319"/>
      <point x="103" y="288"/>
    </contour>
    <contour>
      <point x="141" y="-11" type="curve" smooth="yes"/>
      <point x="179" y="-11"/>
      <point x="210" y="20"/>
      <point x="210" y="58" type="curve" smooth="yes"/>
      <point x="210" y="96"/>
      <point x="179" y="127"/>
      <point x="141" y="127" type="curve" smooth="yes"/>
      <point x="103" y="127"/>
      <point x="72" y="96"/>
      <point x="72" y="58" type="curve" smooth="yes"/>
      <point x="72" y="20"/>
      <point x="103" y="-11"/>
    </contour>
  </outline>
</glyph>
<glyph name="semicolon" format="2">
  <advance width="289"/>
  <unicode hex="003B"/>
  <outline>
    <contour>
      <point x="116" y="355" type="curve"/>
      <point x="100" y="370"/>
      <point x="92" y="389"/>
      <point x="92" y="412" type="curve" smooth="yes"/>
      <point x="92" y="435"/>
      <point x="100" y="454"/>
      <point x="116" y="470" type="curve" smooth="yes"/>
      <point x="131" y="486"/>
      <point x="150" y="494"/>
      <point x="173" y="494" type="curve" smooth="yes"/>
      <point x="196" y="494"/>
      <point x="215" y="486"/>
      <point x="231" y="470" type="curve" smooth="yes"/>
      <point x="247" y="454"/>
      <point x="255" y="435"/>
      <point x="255" y="412" type="curve" smooth="yes"/>
      <point x="255" y="389"/>
      <point x="247" y="370"/>
      <point x="231" y="355" type="curve" smooth="yes"/>
      <point x="215" y="339"/>
      <point x="196" y="331"/>
      <point x="173" y="331" type="curve" smooth="yes"/>
      <point x="150" y="331"/>
      <point x="131" y="339"/>
    </contour>
    <contour>
      <point x="115" y="3" type="line" smooth="yes"/>
      <point x="115" y="-32"/>
      <point x="84" y="-66"/>
      <point x="55" y="-66" type="curve" smooth="yes"/>
      <point x="35" y="-66" type="line"/>
      <point x="35" y="-148" type="line"/>
      <point x="86" y="-148" type="line" smooth="yes"/>
      <point x="172" y="-148"/>
      <point x="220" y="-98"/>
      <point x="220" y="-8" type="curve" smooth="yes"/>
      <point x="220" y="129" type="line"/>
      <point x="115" y="129" type="line"/>
    </contour>
  </outline>
</glyph>
<glyph name="question" format="2">
  <advance width="538"/>
  <unicode hex="003F"/>
  <anchor x="162" y="207" name="new anchor"/>
  <outline>
    <contour>
      <point x="170" y="189" type="curve"/>
      <point x="276" y="189" type="line"/>
      <point x="276" y="275" type="line"/>
      <point x="398" y="275"/>
      <point x="479" y="364"/>
      <point x="479" y="475" type="curve" smooth="yes"/>
      <point x="479" y="594"/>
      <point x="393" y="674"/>
      <point x="269" y="674" type="curve" smooth="yes"/>
      <point x="147" y="674"/>
      <point x="59" y="589"/>
      <point x="59" y="475" type="curve"/>
      <point x="167" y="475" type="line"/>
      <point x="167" y="535"/>
      <point x="210" y="579"/>
      <point x="269" y="579" type="curve" smooth="yes"/>
      <point x="328" y="579"/>
      <point x="371" y="535"/>
      <point x="371" y="475" type="curve" smooth="yes"/>
      <point x="371" y="415"/>
      <point x="336" y="370"/>
      <point x="269" y="370" type="curve" smooth="yes"/>
      <point x="262" y="370" type="line"/>
      <point x="170" y="370"/>
      <point x="170" y="279"/>
    </contour>
    <contour>
      <point x="225" y="-10" type="curve" smooth="yes"/>
      <point x="260" y="-10"/>
      <point x="288" y="18"/>
      <point x="288" y="53" type="curve" smooth="yes"/>
      <point x="288" y="88"/>
      <point x="260" y="116"/>
      <point x="225" y="116" type="curve" smooth="yes"/>
      <point x="190" y="116"/>
      <point x="162" y="88"/>
      <point x="162" y="53" type="curve" smooth="yes"/>
      <point x="162" y="18"/>
      <point x="190" y="-10"/>
    </contour>
  </outline>
</glyph>
<glyph name="at" format="2">
  <advance width="975"/>
  <unicode hex="0040"/>
  <outline>
    <contour>
      <point x="478" y="100" type="curve" smooth="yes"/>
      <point x="536" y="100"/>
      <point x="588" y="122"/>
      <point x="630" y="160" type="curve"/>
      <point x="656" y="128"/>
      <point x="696" y="110"/>
      <point x="744" y="110" type="curve" smooth="yes"/>
      <point x="758" y="110" type="line"/>
      <point x="758" y="111" type="line"/>
      <point x="860" y="111" type="line"/>
      <point x="884" y="153"/>
      <point x="915" y="238"/>
      <point x="915" y="332" type="curve" smooth="yes"/>
      <point x="915" y="570"/>
      <point x="743" y="738"/>
      <point x="493" y="738" type="curve" smooth="yes"/>
      <point x="237" y="738"/>
      <point x="60" y="549"/>
      <point x="60" y="313" type="curve" smooth="yes"/>
      <point x="60" y="76"/>
      <point x="229" y="-96"/>
      <point x="499" y="-96" type="curve" smooth="yes"/>
      <point x="609" y="-96" type="line"/>
      <point x="609" y="8" type="line"/>
      <point x="499" y="8" type="line" smooth="yes"/>
      <point x="301" y="8"/>
      <point x="169" y="132"/>
      <point x="169" y="313" type="curve" smooth="yes"/>
      <point x="169" y="502"/>
      <point x="312" y="634"/>
      <point x="497" y="634" type="curve" smooth="yes"/>
      <point x="678" y="634"/>
      <point x="806" y="499"/>
      <point x="806" y="333" type="curve" smooth="yes"/>
      <point x="806" y="289"/>
      <point x="799" y="250"/>
      <point x="787" y="215" type="curve"/>
      <point x="743" y="215" type="line"/>
      <point x="717" y="220"/>
      <point x="702" y="240"/>
      <point x="702" y="266" type="curve" smooth="yes"/>
      <point x="702" y="526" type="line"/>
      <point x="592" y="526" type="line"/>
      <point x="592" y="490" type="line"/>
      <point x="566" y="516"/>
      <point x="524" y="536"/>
      <point x="478" y="536" type="curve" smooth="yes"/>
      <point x="358" y="536"/>
      <point x="254" y="438"/>
      <point x="254" y="318" type="curve" smooth="yes"/>
      <point x="254" y="188"/>
      <point x="348" y="100"/>
    </contour>
    <contour>
      <point x="478" y="204" type="curve" smooth="yes"/>
      <point x="416" y="204"/>
      <point x="368" y="256"/>
      <point x="368" y="318" type="curve" smooth="yes"/>
      <point x="368" y="386"/>
      <point x="416" y="432"/>
      <point x="478" y="432" type="curve" smooth="yes"/>
      <point x="550" y="432"/>
      <point x="592" y="380"/>
      <point x="592" y="318" type="curve" smooth="yes"/>
      <point x="592" y="256"/>
      <point x="546" y="204"/>
    </contour>
  </outline>
</glyph>
<glyph name="A" format="2">
  <advance width="657"/>
  <unicode hex="0041"/>
  <outline>
    <contour>
      <point x="12" y="0" type="line"/>
      <point x="129" y="0" type="line"/>
      <point x="189" y="163" type="line"/>
      <point x="464" y="163" type="line"/>
      <point x="525" y="0" type="line"/>
      <point x="645" y="0" type="line"/>
      <point x="392" y="649" type="line"/>
      <point x="265" y="649" type="line"/>
    </contour>
    <contour>
      <point x="227" y="264" type="line"/>
      <point x="326" y="530" type="line"/>
      <point x="425" y="264" type="line"/>
    </contour>
  </outline>
</glyph>
<glyph name="B" format="2">
  <advance width="573"/>
  <unicode hex="0042"/>
  <outline>
    <contour>
      <point x="52" y="0" type="line"/>
      <point x="311" y="0" type="line" smooth="yes"/>
      <point x="431" y="0"/>
      <point x="512" y="74"/>
      <point x="512" y="179" type="curve" smooth="yes"/>
      <point x="512" y="255"/>
      <point x="465" y="316"/>
      <point x="396" y="334" type="curve"/>
      <point x="454" y="355"/>
      <point x="492" y="406"/>
      <point x="492" y="474" type="curve" smooth="yes"/>
      <point x="492" y="578"/>
      <point x="417" y="649"/>
      <point x="294" y="649" type="curve" smooth="yes"/>
      <point x="52" y="649" type="line"/>
    </contour>
    <contour>
      <point x="161" y="93" type="line"/>
      <point x="161" y="282" type="line"/>
      <point x="295" y="282" type="line" smooth="yes"/>
      <point x="328" y="282"/>
      <point x="354" y="274"/>
      <point x="373" y="256" type="curve" smooth="yes"/>
      <point x="391" y="239"/>
      <point x="400" y="215"/>
      <point x="400" y="187" type="curve" smooth="yes"/>
      <point x="400" y="158"/>
      <point x="390" y="135"/>
      <point x="371" y="119" type="curve" smooth="yes"/>
      <point x="351" y="102"/>
      <point x="325" y="93"/>
      <point x="292" y="93" type="curve" smooth="yes"/>
    </contour>
    <contour>
      <point x="161" y="374" type="line"/>
      <point x="161" y="555" type="line"/>
      <point x="277" y="555" type="line" smooth="yes"/>
      <point x="343" y="555"/>
      <point x="382" y="522"/>
      <point x="382" y="465" type="curve" smooth="yes"/>
      <point x="382" y="410"/>
      <point x="344" y="374"/>
      <point x="280" y="374" type="curve" smooth="yes"/>
    </contour>
  </outline>
</glyph>
<glyph name="C" format="2">
  <advance width="681"/>
  <unicode hex="0043"/>
  <outline>
    <contour>
      <point x="362" y="-15" type="curve" smooth="yes"/>
      <point x="440" y="-15"/>
      <point x="505" y="6"/>
      <point x="556" y="47" type="curve" smooth="yes"/>
      <point x="607" y="88"/>
      <point x="641" y="140"/>
      <point x="656" y="200" type="curve"/>
      <point x="556" y="233" type="line"/>
      <point x="531" y="152"/>
      <point x="464" y="90"/>
      <point x="362" y="90" type="curve" smooth="yes"/>
      <point x="303" y="90"/>
      <point x="253" y="111"/>
      <point x="211" y="152" type="curve" smooth="yes"/>
      <point x="168" y="194"/>
      <point x="147" y="250"/>
      <point x="147" y="323" type="curve" smooth="yes"/>
      <point x="147" y="397"/>
      <point x="168" y="455"/>
      <point x="211" y="496" type="curve" smooth="yes"/>
      <point x="254" y="538"/>
      <point x="304" y="558"/>
      <point x="362" y="558" type="curve" smooth="yes"/>
      <point x="466" y="558"/>
      <point x="529" y="500"/>
      <point x="550" y="416" type="curve"/>
      <point x="653" y="451" type="line"/>
      <point x="638" y="512"/>
      <point x="605" y="562"/>
      <point x="555" y="602" type="curve" smooth="yes"/>
      <point x="504" y="641"/>
      <point x="439" y="661"/>
      <point x="362" y="661" type="curve" smooth="yes"/>
      <point x="273" y="661"/>
      <point x="197" y="630"/>
      <point x="132" y="568" type="curve" smooth="yes"/>
      <point x="67" y="506"/>
      <point x="35" y="424"/>
      <point x="35" y="323" type="curve" smooth="yes"/>
      <point x="35" y="221"/>
      <point x="67" y="139"/>
      <point x="131" y="77" type="curve" smooth="yes"/>
      <point x="194" y="16"/>
      <point x="272" y="-15"/>
    </contour>
  </outline>
</glyph>
<glyph name="D" format="2">
  <advance width="658"/>
  <unicode hex="0044"/>
  <outline>
    <contour>
      <point x="52" y="0" type="line"/>
      <point x="281" y="0" type="line" smooth="yes"/>
      <point x="373" y="0"/>
      <point x="449" y="28"/>
      <point x="508" y="86" type="curve" smooth="yes"/>
      <point x="567" y="144"/>
      <point x="598" y="222"/>
      <point x="598" y="323" type="curve" smooth="yes"/>
      <point x="598" y="425"/>
      <point x="568" y="504"/>
      <point x="509" y="562" type="curve" smooth="yes"/>
      <point x="449" y="619"/>
      <point x="373" y="649"/>
      <point x="282" y="649" type="curve" smooth="yes"/>
      <point x="52" y="649" type="line"/>
    </contour>
    <contour>
      <point x="162" y="101" type="line"/>
      <point x="162" y="548" type="line"/>
      <point x="278" y="548" type="line" smooth="yes"/>
      <point x="398" y="548"/>
      <point x="483" y="468"/>
      <point x="483" y="323" type="curve" smooth="yes"/>
      <point x="483" y="178"/>
      <point x="397" y="101"/>
      <point x="277" y="101" type="curve" smooth="yes"/>
    </contour>
  </outline>
</glyph>
<glyph name="E" format="2">
  <advance width="582"/>
  <unicode hex="0045"/>
  <outline>
    <contour>
      <point x="85" y="0" type="line"/>
      <point x="523" y="0" type="line"/>
      <point x="523" y="112" type="line"/>
      <point x="205" y="112" type="line"/>
      <point x="205" y="300" type="line"/>
      <point x="493" y="300" type="line"/>
      <point x="493" y="409" type="line"/>
      <point x="205" y="409" type="line"/>
      <point x="205" y="597" type="line"/>
      <point x="523" y="597" type="line"/>
      <point x="523" y="709" type="line"/>
      <point x="85" y="709" type="line"/>
    </contour>
  </outline>
</glyph>
<glyph name="F" format="2">
  <advance width="505"/>
  <unicode hex="0046"/>
  <outline>
    <contour>
      <point x="68" y="0" type="line"/>
      <point x="178" y="0" type="line"/>
      <point x="178" y="262" type="line"/>
      <point x="441" y="262" type="line"/>
      <point x="441" y="363" type="line"/>
      <point x="178" y="363" type="line"/>
      <point x="178" y="545" type="line"/>
      <point x="471" y="545" type="line"/>
      <point x="471" y="649" type="line"/>
      <point x="68" y="649" type="line"/>
    </contour>
  </outline>
</glyph>
<glyph name="G" format="2">
  <advance width="745"/>
  <unicode hex="0047"/>
  <outline>
    <contour>
      <point x="355" y="-15" type="curve" smooth="yes"/>
      <point x="439" y="-15"/>
      <point x="510" y="15"/>
      <point x="570" y="76" type="curve"/>
      <point x="570" y="75" type="line" smooth="yes"/>
      <point x="570" y="28"/>
      <point x="653" y="-1"/>
      <point x="697" y="-1" type="curve" smooth="yes"/>
      <point x="710" y="-1" type="line"/>
      <point x="710" y="94" type="line"/>
      <point x="706" y="94" type="line" smooth="yes"/>
      <point x="677" y="94"/>
      <point x="658" y="114"/>
      <point x="658" y="141" type="curve" smooth="yes"/>
      <point x="658" y="295" type="line"/>
      <point x="659" y="305"/>
      <point x="659" y="316"/>
      <point x="659" y="327" type="curve"/>
      <point x="333" y="327" type="line"/>
      <point x="333" y="231" type="line"/>
      <point x="547" y="231" type="line"/>
      <point x="543" y="195"/>
      <point x="526" y="163"/>
      <point x="496" y="132" type="curve" smooth="yes"/>
      <point x="464" y="101"/>
      <point x="420" y="86"/>
      <point x="361" y="86" type="curve" smooth="yes"/>
      <point x="302" y="86"/>
      <point x="250" y="107"/>
      <point x="209" y="149" type="curve" smooth="yes"/>
      <point x="168" y="190"/>
      <point x="147" y="249"/>
      <point x="147" y="324" type="curve" smooth="yes"/>
      <point x="147" y="399"/>
      <point x="168" y="457"/>
      <point x="211" y="498" type="curve" smooth="yes"/>
      <point x="254" y="539"/>
      <point x="304" y="560"/>
      <point x="362" y="560" type="curve" smooth="yes"/>
      <point x="460" y="560"/>
      <point x="528" y="503"/>
      <point x="551" y="424" type="curve"/>
      <point x="655" y="464" type="line"/>
      <point x="618" y="579"/>
      <point x="513" y="661"/>
      <point x="362" y="661" type="curve" smooth="yes"/>
      <point x="304" y="661"/>
      <point x="251" y="648"/>
      <point x="203" y="623" type="curve" smooth="yes"/>
      <point x="154" y="596"/>
      <point x="114" y="557"/>
      <point x="83" y="505" type="curve" smooth="yes"/>
      <point x="51" y="453"/>
      <point x="35" y="392"/>
      <point x="35" y="324" type="curve" smooth="yes"/>
      <point x="35" y="220"/>
      <point x="66" y="139"/>
      <point x="129" y="77" type="curve" smooth="yes"/>
      <point x="191" y="16"/>
      <point x="266" y="-15"/>
    </contour>
  </outline>
</glyph>
<glyph name="H" format="2">
  <advance width="744"/>
  <unicode hex="0048"/>
  <outline>
    <contour>
      <point x="85" y="0" type="line"/>
      <point x="205" y="0" type="line"/>
      <point x="205" y="303" type="line"/>
      <point x="538" y="303" type="line"/>
      <point x="538" y="0" type="line"/>
      <point x="659" y="0" type="line"/>
      <point x="659" y="709" type="line"/>
      <point x="538" y="709" type="line"/>
      <point x="538" y="416" type="line"/>
      <point x="205" y="416" type="line"/>
      <point x="205" y="709" type="line"/>
      <point x="85" y="709" type="line"/>
    </contour>
  </outline>
</glyph>
<glyph name="I" format="2">
  <advance width="248"/>
  <unicode hex="0049"/>
  <outline>
    <contour>
      <point x="68" y="0" type="line"/>
      <point x="180" y="0" type="line"/>
      <point x="180" y="649" type="line"/>
      <point x="68" y="649" type="line"/>
    </contour>
  </outline>
</glyph>
<glyph name="J" format="2">
  <advance width="341"/>
  <unicode hex="004A"/>
  <outline>
    <contour>
      <point x="85" y="-15" type="curve" smooth="yes"/>
      <point x="145" y="-15"/>
      <point x="195" y="5"/>
      <point x="232" y="46" type="curve" smooth="yes"/>
      <point x="270" y="87"/>
      <point x="289" y="137"/>
      <point x="289" y="196" type="curve" smooth="yes"/>
      <point x="289" y="647" type="line"/>
      <point x="179" y="647" type="line"/>
      <point x="179" y="194" type="line" smooth="yes"/>
      <point x="179" y="128"/>
      <point x="142" y="88"/>
      <point x="84" y="88" type="curve" smooth="yes"/>
      <point x="24" y="88"/>
      <point x="82" y="88"/>
      <point x="9" y="88" type="curve" smooth="yes"/>
      <point x="-30" y="88" type="line"/>
      <point x="-30" y="-15" type="line"/>
      <point x="12" y="-15" type="line" smooth="yes"/>
      <point x="140" y="-15"/>
      <point x="-42" y="-15"/>
    </contour>
  </outline>
</glyph>
<glyph name="K" format="2">
  <advance width="604"/>
  <unicode hex="004B"/>
  <outline>
    <contour>
      <point x="443" y="0" type="line"/>
      <point x="584" y="0" type="line"/>
      <point x="274" y="330" type="line"/>
      <point x="564" y="644" type="line"/>
      <point x="430" y="644" type="line"/>
      <point x="188" y="374" type="line"/>
      <point x="124" y="374" type="line"/>
      <point x="124" y="644" type="line"/>
      <point x="20" y="644" type="line"/>
      <point x="20" y="0" type="line"/>
      <point x="124" y="0" type="line"/>
      <point x="124" y="275" type="line"/>
      <point x="187" y="275" type="line"/>
    </contour>
  </outline>
</glyph>
<glyph name="L" format="2">
  <advance width="555"/>
  <unicode hex="004C"/>
  <outline>
    <contour>
      <point x="530" y="0" type="line"/>
      <point x="530" y="114" type="line"/>
      <point x="205" y="114" type="line"/>
      <point x="205" y="709" type="line"/>
      <point x="85" y="709" type="line"/>
      <point x="85" y="0" type="line"/>
    </contour>
  </outline>
</glyph>
<glyph name="M" format="2">
  <advance width="950"/>
  <unicode hex="004D"/>
  <outline>
    <contour>
      <point x="865" y="0" type="line"/>
      <point x="865" y="709" type="line"/>
      <point x="702" y="709" type="line"/>
      <point x="475" y="168" type="line"/>
      <point x="245" y="709" type="line"/>
      <point x="85" y="709" type="line"/>
      <point x="85" y="0" type="line"/>
      <point x="202" y="0" type="line"/>
      <point x="202" y="520" type="line"/>
      <point x="421" y="0" type="line"/>
      <point x="525" y="0" type="line"/>
      <point x="746" y="522" type="line"/>
      <point x="746" y="0" type="line"/>
    </contour>
  </outline>
</glyph>
<glyph name="N" format="2">
  <advance width="623"/>
  <unicode hex="004E"/>
  <outline>
    <contour>
      <point x="584" y="0" type="line"/>
      <point x="584" y="649" type="line"/>
      <point x="474" y="649" type="line"/>
      <point x="474" y="188" type="line"/>
      <point x="179" y="649" type="line"/>
      <point x="39" y="649" type="line"/>
      <point x="39" y="0" type="line"/>
      <point x="149" y="0" type="line"/>
      <point x="149" y="491" type="line"/>
      <point x="469" y="0" type="line"/>
    </contour>
  </outline>
</glyph>
<glyph name="O" format="2">
  <advance width="773"/>
  <unicode hex="004F"/>
  <outline>
    <contour>
      <point x="387" y="-16" type="curve" smooth="yes"/>
      <point x="594" y="-16"/>
      <point x="721" y="147"/>
      <point x="721" y="321" type="curve" smooth="yes"/>
      <point x="721" y="495"/>
      <point x="594" y="658"/>
      <point x="387" y="658" type="curve" smooth="yes"/>
      <point x="180" y="658"/>
      <point x="52" y="495"/>
      <point x="52" y="321" type="curve" smooth="yes"/>
      <point x="52" y="147"/>
      <point x="180" y="-16"/>
    </contour>
    <contour>
      <point x="387" y="89" type="curve" smooth="yes"/>
      <point x="265" y="89"/>
      <point x="164" y="181"/>
      <point x="164" y="321" type="curve" smooth="yes"/>
      <point x="164" y="446"/>
      <point x="252" y="552"/>
      <point x="387" y="552" type="curve" smooth="yes"/>
      <point x="509" y="552"/>
      <point x="611" y="461"/>
      <point x="611" y="321" type="curve" smooth="yes"/>
      <point x="611" y="196"/>
      <point x="521" y="89"/>
    </contour>
  </outline>
</glyph>
<glyph name="P" format="2">
  <advance width="602"/>
  <unicode hex="0050"/>
  <outline>
    <contour>
      <point x="348" y="277" type="line" smooth="yes"/>
      <point x="483" y="277"/>
      <point x="574" y="366"/>
      <point x="574" y="493" type="curve" smooth="yes"/>
      <point x="574" y="619"/>
      <point x="483" y="709"/>
      <point x="348" y="709" type="curve" smooth="yes"/>
      <point x="85" y="709" type="line"/>
      <point x="85" y="0" type="line"/>
      <point x="205" y="0" type="line"/>
      <point x="205" y="277" type="line"/>
    </contour>
    <contour>
      <point x="205" y="383" type="line"/>
      <point x="205" y="603" type="line"/>
      <point x="330" y="603" type="line" smooth="yes"/>
      <point x="406" y="603"/>
      <point x="452" y="560"/>
      <point x="452" y="492" type="curve" smooth="yes"/>
      <point x="452" y="425"/>
      <point x="406" y="383"/>
      <point x="330" y="383" type="curve" smooth="yes"/>
    </contour>
  </outline>
</glyph>
<glyph name="Q" format="2">
  <advance width="897"/>
  <unicode hex="0051"/>
  <anchor x="1270" y="0" name="Anchor-2"/>
  <outline>
    <contour>
      <point x="452" y="94" type="curve" smooth="yes"/>
      <point x="311" y="94"/>
      <point x="205" y="203"/>
      <point x="205" y="349" type="curve" smooth="yes"/>
      <point x="205" y="495"/>
      <point x="311" y="604"/>
      <point x="452" y="604" type="curve" smooth="yes"/>
      <point x="592" y="604"/>
      <point x="697" y="495"/>
      <point x="697" y="349" type="curve" smooth="yes"/>
      <point x="697" y="203"/>
      <point x="592" y="94"/>
    </contour>
    <contour>
      <point x="507" y="-15" type="line"/>
      <point x="507" y="-54"/>
      <point x="545" y="-86"/>
      <point x="585" y="-86" type="qcurve"/>
      <point x="673" y="-86" type="line"/>
      <point x="673" y="-174" type="line"/>
      <point x="579" y="-174" type="line"/>
      <point x="482" y="-174"/>
      <point x="396" y="-101"/>
      <point x="396" y="-15" type="qcurve"/>
    </contour>
    <contour>
      <point x="507" y="-15" type="line"/>
      <point x="691" y="19"/>
      <point x="820" y="178"/>
      <point x="820" y="349" type="curve" smooth="yes"/>
      <point x="820" y="541"/>
      <point x="679" y="720"/>
      <point x="452" y="720" type="curve" smooth="yes"/>
      <point x="223" y="720"/>
      <point x="82" y="541"/>
      <point x="82" y="349" type="curve" smooth="yes"/>
      <point x="82" y="178"/>
      <point x="213" y="19"/>
      <point x="396" y="-15" type="curve"/>
    </contour>
  </outline>
</glyph>
<glyph name="R" format="2">
  <advance width="523"/>
  <unicode hex="0052"/>
  <outline>
    <contour>
      <point x="50" y="0" type="line"/>
      <point x="155" y="0" type="line"/>
      <point x="155" y="278" type="line"/>
      <point x="237" y="278" type="line"/>
      <point x="411" y="0" type="line"/>
      <point x="520" y="0" type="line"/>
      <point x="343" y="283" type="line"/>
      <point x="451" y="288"/>
      <point x="520" y="387"/>
      <point x="520" y="463" type="curve" smooth="yes"/>
      <point x="520" y="565"/>
      <point x="445" y="649"/>
      <point x="333" y="649" type="curve" smooth="yes"/>
      <point x="50" y="649" type="line"/>
    </contour>
    <contour>
      <point x="155" y="371" type="line"/>
      <point x="155" y="556" type="line"/>
      <point x="323" y="556" type="line" smooth="yes"/>
      <point x="377" y="556"/>
      <point x="415" y="519"/>
      <point x="415" y="463" type="curve" smooth="yes"/>
      <point x="415" y="408"/>
      <point x="377" y="371"/>
      <point x="323" y="371" type="curve" smooth="yes"/>
    </contour>
  </outline>
</glyph>
<glyph name="S" format="2">
  <advance width="590"/>
  <unicode hex="0053"/>
  <outline>
    <contour>
      <point x="53" y="0" type="line"/>
      <point x="371" y="0" type="line" smooth="yes"/>
      <point x="481" y="0"/>
      <point x="556" y="90"/>
      <point x="556" y="186" type="curve" smooth="yes"/>
      <point x="556" y="293"/>
      <point x="481" y="371"/>
      <point x="371" y="371" type="curve" smooth="yes"/>
      <point x="249" y="371" type="line" smooth="yes"/>
      <point x="193" y="371"/>
      <point x="155" y="408"/>
      <point x="155" y="463" type="curve" smooth="yes"/>
      <point x="155" y="519"/>
      <point x="193" y="555"/>
      <point x="249" y="555" type="curve" smooth="yes"/>
      <point x="501" y="555" type="line"/>
      <point x="501" y="649" type="line"/>
      <point x="228" y="649" type="line" smooth="yes"/>
      <point x="117" y="649"/>
      <point x="42" y="561"/>
      <point x="42" y="463" type="curve" smooth="yes"/>
      <point x="42" y="356"/>
      <point x="117" y="278"/>
      <point x="228" y="278" type="curve" smooth="yes"/>
      <point x="350" y="278" type="line" smooth="yes"/>
      <point x="405" y="278"/>
      <point x="443" y="241"/>
      <point x="443" y="186" type="curve" smooth="yes"/>
      <point x="443" y="130"/>
      <point x="405" y="92"/>
      <point x="350" y="92" type="curve" smooth="yes"/>
      <point x="53" y="92" type="line"/>
    </contour>
  </outline>
</glyph>
<glyph name="T" format="2">
  <advance width="621"/>
  <unicode hex="0054"/>
  <outline>
    <contour>
      <point x="576" y="545" type="line"/>
      <point x="576" y="649" type="line"/>
      <point x="45" y="649" type="line"/>
      <point x="45" y="545" type="line"/>
      <point x="255" y="545" type="line"/>
      <point x="255" y="0" type="line"/>
      <point x="365" y="0" type="line"/>
      <point x="365" y="545" type="line"/>
    </contour>
  </outline>
</glyph>
<glyph name="U" format="2">
  <advance width="683"/>
  <unicode hex="0055"/>
  <outline>
    <contour>
      <point x="77" y="247" type="line" smooth="yes"/>
      <point x="77" y="164"/>
      <point x="102" y="100"/>
      <point x="151" y="54" type="curve" smooth="yes"/>
      <point x="200" y="8"/>
      <point x="264" y="-15"/>
      <point x="341" y="-15" type="curve" smooth="yes"/>
      <point x="418" y="-15"/>
      <point x="482" y="8"/>
      <point x="532" y="54" type="curve" smooth="yes"/>
      <point x="581" y="100"/>
      <point x="606" y="164"/>
      <point x="606" y="247" type="curve" smooth="yes"/>
      <point x="606" y="709" type="line"/>
      <point x="486" y="709" type="line"/>
      <point x="486" y="254" type="line" smooth="yes"/>
      <point x="486" y="154"/>
      <point x="433" y="99"/>
      <point x="341" y="99" type="curve" smooth="yes"/>
      <point x="250" y="99"/>
      <point x="196" y="155"/>
      <point x="196" y="254" type="curve" smooth="yes"/>
      <point x="196" y="709" type="line"/>
      <point x="77" y="709" type="line"/>
    </contour>
  </outline>
</glyph>
<glyph name="V" format="2">
  <advance width="608"/>
  <unicode hex="0056"/>
  <outline>
    <contour>
      <point x="305" y="144" type="line"/>
      <point x="124" y="649" type="line"/>
      <point x="5" y="649" type="line"/>
      <point x="246" y="0" type="line"/>
      <point x="358" y="0" type="line"/>
      <point x="603" y="649" type="line"/>
      <point x="487" y="649" type="line"/>
    </contour>
  </outline>
</glyph>
<glyph name="W" format="2">
  <advance width="931"/>
  <unicode hex="0057"/>
  <outline>
    <contour>
      <point x="678" y="171" type="line"/>
      <point x="524" y="649" type="line"/>
      <point x="409" y="649" type="line"/>
      <point x="257" y="175" type="line"/>
      <point x="127" y="649" type="line"/>
      <point x="12" y="649" type="line"/>
      <point x="196" y="0" type="line"/>
      <point x="309" y="0" type="line"/>
      <point x="466" y="490" type="line"/>
      <point x="623" y="0" type="line"/>
      <point x="737" y="0" type="line"/>
      <point x="919" y="649" type="line"/>
      <point x="805" y="649" type="line"/>
    </contour>
  </outline>
</glyph>
<glyph name="X" format="2">
  <advance width="646"/>
  <unicode hex="0058"/>
  <outline>
    <contour>
      <point x="632" y="709" type="line"/>
      <point x="491" y="709" type="line"/>
      <point x="325" y="449" type="line"/>
      <point x="160" y="709" type="line"/>
      <point x="16" y="709" type="line"/>
      <point x="251" y="355" type="line"/>
      <point x="14" y="0" type="line"/>
      <point x="155" y="0" type="line"/>
      <point x="322" y="259" type="line"/>
      <point x="487" y="0" type="line"/>
      <point x="631" y="0" type="line"/>
      <point x="396" y="354" type="line"/>
    </contour>
  </outline>
</glyph>
<glyph name="Y" format="2">
  <advance width="590"/>
  <unicode hex="0059"/>
  <outline>
    <contour>
      <point x="239" y="275" type="line"/>
      <point x="239" y="0" type="line"/>
      <point x="349" y="0" type="line"/>
      <point x="349" y="275" type="line"/>
      <point x="578" y="649" type="line"/>
      <point x="454" y="649" type="line"/>
      <point x="298" y="377" type="line"/>
      <point x="142" y="649" type="line"/>
      <point x="12" y="649" type="line"/>
    </contour>
  </outline>
</glyph>
<glyph name="Z" format="2">
  <advance width="546"/>
  <unicode hex="005A"/>
  <outline>
    <contour>
      <point x="526" y="0" type="line"/>
      <point x="526" y="104" type="line"/>
      <point x="158" y="104" type="line"/>
      <point x="522" y="544" type="line"/>
      <point x="522" y="649" type="line"/>
      <point x="31" y="649" type="line"/>
      <point x="31" y="545" type="line"/>
      <point x="380" y="545" type="line"/>
      <point x="20" y="108" type="line"/>
      <point x="20" y="0" type="line"/>
    </contour>
  </outline>
</glyph>
<glyph name="bracketleft" format="2">
  <advance width="600"/>
  <unicode hex="005B"/>
  <outline>
    <contour>
      <point x="80" y="-208" type="line"/>
      <point x="428" y="-208" type="line"/>
      <point x="428" y="-104" type="line"/>
      <point x="194" y="-104" type="line"/>
      <point x="194" y="832" type="line"/>
      <point x="428" y="832" type="line"/>
      <point x="428" y="936" type="line"/>
      <point x="80" y="936" type="line"/>
    </contour>
  </outline>
</glyph>
<glyph name="backslash" format="2">
  <advance width="426"/>
  <unicode hex="005C"/>
  <outline>
    <contour>
      <point x="272" y="-10" type="line"/>
      <point x="387" y="-10" type="line"/>
      <point x="155" y="738" type="line"/>
      <point x="40" y="738" type="line"/>
    </contour>
  </outline>
</glyph>
<glyph name="bracketright" format="2">
  <advance width="443"/>
  <unicode hex="005D"/>
  <outline>
    <contour>
      <point x="31" y="-159" type="line"/>
      <point x="349" y="-159" type="line"/>
      <point x="349" y="887" type="line"/>
      <point x="31" y="887" type="line"/>
      <point x="31" y="792" type="line"/>
      <point x="245" y="792" type="line"/>
      <point x="245" y="-64" type="line"/>
      <point x="31" y="-64" type="line"/>
    </contour>
  </outline>
</glyph>
<glyph name="underscore" format="2">
  <advance width="536"/>
  <unicode hex="005F"/>
  <outline>
    <contour>
      <point x="24" y="-114" type="line"/>
      <point x="512" y="-114" type="line"/>
      <point x="512" y="-10" type="line"/>
      <point x="24" y="-10" type="line"/>
    </contour>
  </outline>
</glyph>
<glyph name="grave" format="2">
  <advance width="258"/>
  <unicode hex="0060"/>
  <outline>
    <contour>
      <point x="121" y="780" type="line"/>
      <point x="219" y="819" type="line"/>
      <point x="139" y="1014" type="line"/>
      <point x="40" y="975" type="line"/>
    </contour>
  </outline>
</glyph>
<glyph name="a" format="2">
  <advance width="583"/>
  <unicode hex="0061"/>
  <outline>
    <contour>
      <point x="273" y="-10" type="curve" smooth="yes"/>
      <point x="331" y="-10"/>
      <point x="383" y="17"/>
      <point x="425" y="55" type="curve"/>
      <point x="451" y="23"/>
      <point x="491" y="0"/>
      <point x="539" y="0" type="curve" smooth="yes"/>
      <point x="553" y="0" type="line"/>
      <point x="553" y="104" type="line"/>
      <point x="549" y="104" type="line" smooth="yes"/>
      <point x="517" y="104"/>
      <point x="497" y="126"/>
      <point x="497" y="156" type="curve" smooth="yes"/>
      <point x="497" y="416" type="line"/>
      <point x="387" y="416" type="line"/>
      <point x="387" y="380" type="line"/>
      <point x="361" y="406"/>
      <point x="319" y="426"/>
      <point x="273" y="426" type="curve" smooth="yes"/>
      <point x="153" y="426"/>
      <point x="49" y="328"/>
      <point x="49" y="208" type="curve" smooth="yes"/>
      <point x="49" y="78"/>
      <point x="143" y="-10"/>
    </contour>
    <contour>
      <point x="273" y="94" type="curve" smooth="yes"/>
      <point x="211" y="94"/>
      <point x="163" y="146"/>
      <point x="163" y="208" type="curve" smooth="yes"/>
      <point x="163" y="276"/>
      <point x="211" y="322"/>
      <point x="273" y="322" type="curve" smooth="yes"/>
      <point x="345" y="322"/>
      <point x="387" y="270"/>
      <point x="387" y="208" type="curve" smooth="yes"/>
      <point x="387" y="146"/>
      <point x="341" y="94"/>
    </contour>
  </outline>
</glyph>
<glyph name="b" format="2">
  <advance width="582"/>
  <unicode hex="0062"/>
  <outline>
    <contour>
      <point x="328" y="-10" type="curve" smooth="yes"/>
      <point x="458" y="-10"/>
      <point x="552" y="78"/>
      <point x="552" y="208" type="curve" smooth="yes"/>
      <point x="552" y="328"/>
      <point x="452" y="426"/>
      <point x="334" y="426" type="curve" smooth="yes"/>
      <point x="292" y="426"/>
      <point x="252" y="416"/>
      <point x="216" y="390" type="curve"/>
      <point x="216" y="650" type="line"/>
      <point x="104" y="650" type="line"/>
      <point x="104" y="208" type="line" smooth="yes"/>
      <point x="104" y="88"/>
      <point x="208" y="-10"/>
    </contour>
    <contour>
      <point x="328" y="94" type="curve" smooth="yes"/>
      <point x="262" y="94"/>
      <point x="216" y="144"/>
      <point x="216" y="208" type="curve" smooth="yes"/>
      <point x="216" y="274"/>
      <point x="262" y="322"/>
      <point x="328" y="322" type="curve" smooth="yes"/>
      <point x="392" y="322"/>
      <point x="440" y="274"/>
      <point x="440" y="208" type="curve" smooth="yes"/>
      <point x="440" y="144"/>
      <point x="392" y="94"/>
    </contour>
    <contour>
      <point x="214" y="380" type="move"/>
      <point x="214" y="416" type="line"/>
      <point x="104" y="416" type="line"/>
      <point x="104" y="156" type="line" smooth="yes"/>
      <point x="104" y="132"/>
      <point x="91" y="113"/>
      <point x="70" y="107" type="curve" smooth="yes"/>
      <point x="67" y="106"/>
      <point x="63" y="105"/>
      <point x="60" y="105" type="curve"/>
      <point x="60" y="0" type="line"/>
      <point x="62" y="0" type="line" smooth="yes"/>
      <point x="65" y="0"/>
      <point x="67" y="0"/>
      <point x="70" y="0" type="curve" smooth="yes"/>
      <point x="114" y="2"/>
      <point x="151" y="25"/>
      <point x="176" y="55" type="curve"/>
    </contour>
    <contour>
      <point x="214" y="208" type="move"/>
    </contour>
  </outline>
</glyph>
<glyph name="c" format="2">
  <advance width="451"/>
  <unicode hex="0063"/>
  <outline>
    <contour>
      <point x="270" y="-10" type="curve"/>
      <point x="406" y="-10" type="line"/>
      <point x="406" y="94" type="line"/>
      <point x="270" y="94" type="line"/>
      <point x="206" y="94"/>
      <point x="158" y="144"/>
      <point x="158" y="208" type="curve" smooth="yes"/>
      <point x="158" y="274"/>
      <point x="206" y="322"/>
      <point x="270" y="322" type="curve"/>
      <point x="407" y="322" type="line"/>
      <point x="406" y="426" type="line"/>
      <point x="270" y="426" type="line"/>
      <point x="150" y="426"/>
      <point x="46" y="328"/>
      <point x="46" y="208" type="curve" smooth="yes"/>
      <point x="46" y="78"/>
      <point x="140" y="-10"/>
    </contour>
  </outline>
</glyph>
<glyph name="d" format="2">
  <advance width="612"/>
  <unicode hex="0064"/>
  <outline>
    <contour>
      <point x="288" y="-10" type="curve" smooth="yes"/>
      <point x="408" y="-10"/>
      <point x="512" y="88"/>
      <point x="512" y="208" type="curve" smooth="yes"/>
      <point x="512" y="728" type="line"/>
      <point x="400" y="728" type="line"/>
      <point x="400" y="390" type="line"/>
      <point x="364" y="416"/>
      <point x="324" y="426"/>
      <point x="282" y="426" type="curve" smooth="yes"/>
      <point x="164" y="426"/>
      <point x="64" y="328"/>
      <point x="64" y="208" type="curve" smooth="yes"/>
      <point x="64" y="78"/>
      <point x="158" y="-10"/>
    </contour>
    <contour>
      <point x="288" y="94" type="curve" smooth="yes"/>
      <point x="224" y="94"/>
      <point x="176" y="144"/>
      <point x="176" y="208" type="curve" smooth="yes"/>
      <point x="176" y="274"/>
      <point x="224" y="322"/>
      <point x="288" y="322" type="curve" smooth="yes"/>
      <point x="354" y="322"/>
      <point x="400" y="274"/>
      <point x="400" y="208" type="curve" smooth="yes"/>
      <point x="400" y="144"/>
      <point x="354" y="94"/>
    </contour>
    <contour>
      <point x="440" y="55" type="move"/>
      <point x="466" y="23"/>
      <point x="506" y="0"/>
      <point x="554" y="0" type="curve" smooth="yes"/>
      <point x="568" y="0" type="line"/>
      <point x="568" y="104" type="line"/>
      <point x="564" y="104" type="line" smooth="yes"/>
      <point x="532" y="104"/>
      <point x="512" y="126"/>
      <point x="512" y="156" type="curve" smooth="yes"/>
      <point x="512" y="416" type="line"/>
      <point x="402" y="416" type="line"/>
      <point x="402" y="380" type="line"/>
    </contour>
    <contour>
      <point x="402" y="208" type="move"/>
    </contour>
  </outline>
</glyph>
<glyph name="e" format="2">
  <advance width="480"/>
  <unicode hex="0065"/>
  <outline>
    <contour>
      <point x="249" y="-9" type="curve" smooth="yes"/>
      <point x="335" y="-9"/>
      <point x="394" y="27"/>
      <point x="437" y="73" type="curve"/>
      <point x="357" y="139" type="line"/>
      <point x="327" y="107"/>
      <point x="300" y="90"/>
      <point x="250" y="90" type="curve" smooth="yes"/>
      <point x="196" y="90"/>
      <point x="153" y="122"/>
      <point x="140" y="173" type="curve"/>
      <point x="449" y="173" type="line"/>
      <point x="450" y="188"/>
      <point x="450" y="189"/>
      <point x="450" y="216" type="curve" smooth="yes"/>
      <point x="450" y="330"/>
      <point x="367" y="425"/>
      <point x="242" y="425" type="curve" smooth="yes"/>
      <point x="116" y="425"/>
      <point x="30" y="332"/>
      <point x="30" y="209" type="curve" smooth="yes"/>
      <point x="30" y="73"/>
      <point x="123" y="-9"/>
    </contour>
    <contour>
      <point x="242" y="330" type="curve" smooth="yes"/>
      <point x="294" y="330"/>
      <point x="324" y="296"/>
      <point x="335" y="256" type="curve"/>
      <point x="143" y="256" type="line"/>
      <point x="157" y="299"/>
      <point x="192" y="330"/>
    </contour>
  </outline>
</glyph>
<glyph name="f" format="2">
  <advance width="341"/>
  <unicode hex="0066"/>
  <outline>
    <contour>
      <point x="116" y="0" type="line"/>
      <point x="228" y="0" type="line"/>
      <point x="228" y="312" type="line"/>
      <point x="294" y="312" type="line"/>
      <point x="294" y="416" type="line"/>
      <point x="228" y="416" type="line"/>
      <point x="228" y="572" type="line" smooth="yes"/>
      <point x="228" y="613"/>
      <point x="252" y="624"/>
      <point x="300" y="624" type="curve" smooth="yes"/>
      <point x="309" y="624" type="line"/>
      <point x="309" y="728" type="line"/>
      <point x="272" y="728" type="line" smooth="yes"/>
      <point x="181" y="728"/>
      <point x="116" y="663"/>
      <point x="116" y="572" type="curve" smooth="yes"/>
      <point x="116" y="416" type="line"/>
      <point x="40" y="416" type="line"/>
      <point x="40" y="312" type="line"/>
      <point x="116" y="312" type="line"/>
    </contour>
  </outline>
</glyph>
<glyph name="g" format="2">
  <advance width="585"/>
  <unicode hex="0067"/>
  <outline>
    <contour>
      <point x="496" y="-44" type="curve" smooth="yes"/>
      <point x="496" y="261" type="line" smooth="yes"/>
      <point x="496" y="291"/>
      <point x="516" y="313"/>
      <point x="548" y="313" type="curve" smooth="yes"/>
      <point x="552" y="313" type="line"/>
      <point x="552" y="417" type="line"/>
      <point x="538" y="417" type="line" smooth="yes"/>
      <point x="492" y="417"/>
      <point x="453" y="390"/>
      <point x="427" y="361" type="curve"/>
      <point x="388" y="396"/>
      <point x="334" y="426"/>
      <point x="272" y="426" type="curve" smooth="yes"/>
      <point x="152" y="426"/>
      <point x="48" y="328"/>
      <point x="48" y="208" type="curve" smooth="yes"/>
      <point x="48" y="78"/>
      <point x="136" y="-10"/>
      <point x="262" y="-10" type="curve" smooth="yes"/>
      <point x="314" y="-10"/>
      <point x="362" y="8"/>
      <point x="386" y="36" type="curve"/>
      <point x="386" y="-32" type="line" smooth="yes"/>
      <point x="386" y="-86"/>
      <point x="352" y="-122"/>
      <point x="302" y="-122" type="curve" smooth="yes"/>
      <point x="103" y="-122" type="line"/>
      <point x="103" y="-220" type="line"/>
      <point x="319" y="-220" type="line" smooth="yes"/>
      <point x="433" y="-220"/>
      <point x="496" y="-150"/>
    </contour>
    <contour>
      <point x="272" y="94" type="curve" smooth="yes"/>
      <point x="208" y="94"/>
      <point x="160" y="144"/>
      <point x="160" y="208" type="curve" smooth="yes"/>
      <point x="160" y="274"/>
      <point x="208" y="322"/>
      <point x="272" y="322" type="curve" smooth="yes"/>
      <point x="338" y="322"/>
      <point x="384" y="274"/>
      <point x="384" y="208" type="curve" smooth="yes"/>
      <point x="384" y="144"/>
      <point x="338" y="94"/>
    </contour>
  </outline>
</glyph>
<glyph name="h" format="2">
  <advance width="485"/>
  <unicode hex="0068"/>
  <outline>
    <contour>
      <point x="33" y="0" type="line"/>
      <point x="145" y="0" type="line"/>
      <point x="145" y="208" type="line" smooth="yes"/>
      <point x="145" y="274"/>
      <point x="180" y="322"/>
      <point x="244" y="322" type="curve" smooth="yes"/>
      <point x="307" y="322"/>
      <point x="343" y="274"/>
      <point x="343" y="208" type="curve" smooth="yes"/>
      <point x="343" y="0" type="line"/>
      <point x="455" y="0" type="line"/>
      <point x="455" y="208" type="line" smooth="yes"/>
      <point x="455" y="338"/>
      <point x="367" y="426"/>
      <point x="254" y="426" type="curve" smooth="yes"/>
      <point x="202" y="426"/>
      <point x="169" y="408"/>
      <point x="145" y="380" type="curve"/>
      <point x="145" y="650" type="line"/>
      <point x="33" y="650" type="line"/>
    </contour>
  </outline>
</glyph>
<glyph name="i" format="2">
  <advance width="254"/>
  <unicode hex="0069"/>
  <outline>
    <contour>
      <point x="128" y="500" type="curve" smooth="yes"/>
      <point x="166" y="500"/>
      <point x="196" y="532"/>
      <point x="196" y="570" type="curve" smooth="yes"/>
      <point x="196" y="608"/>
      <point x="166" y="638"/>
      <point x="128" y="638" type="curve" smooth="yes"/>
      <point x="90" y="638"/>
      <point x="58" y="608"/>
      <point x="58" y="570" type="curve" smooth="yes"/>
      <point x="58" y="532"/>
      <point x="90" y="500"/>
    </contour>
    <contour>
      <point x="70" y="0" type="line"/>
      <point x="182" y="0" type="line"/>
      <point x="182" y="416" type="line"/>
      <point x="70" y="416" type="line"/>
    </contour>
  </outline>
</glyph>
<glyph name="j" format="2">
  <advance width="258"/>
  <unicode hex="006A"/>
  <outline>
    <contour>
      <point x="130" y="500" type="curve" smooth="yes"/>
      <point x="168" y="500"/>
      <point x="198" y="532"/>
      <point x="198" y="570" type="curve" smooth="yes"/>
      <point x="198" y="608"/>
      <point x="168" y="638"/>
      <point x="130" y="638" type="curve" smooth="yes"/>
      <point x="92" y="638"/>
      <point x="60" y="608"/>
      <point x="60" y="570" type="curve" smooth="yes"/>
      <point x="60" y="532"/>
      <point x="92" y="500"/>
    </contour>
    <contour>
      <point x="-20" y="-208" type="line"/>
      <point x="28" y="-208" type="line" smooth="yes"/>
      <point x="118" y="-208"/>
      <point x="184" y="-144"/>
      <point x="184" y="-52" type="curve" smooth="yes"/>
      <point x="184" y="416" type="line"/>
      <point x="72" y="416" type="line"/>
      <point x="72" y="-52" type="line" smooth="yes"/>
      <point x="72" y="-84"/>
      <point x="50" y="-104"/>
      <point x="20" y="-104" type="curve" smooth="yes"/>
      <point x="-20" y="-104" type="line"/>
    </contour>
  </outline>
</glyph>
<glyph name="k" format="2">
  <advance width="538"/>
  <unicode hex="006B"/>
  <outline>
    <contour>
      <point x="72" y="0" type="line"/>
      <point x="184" y="0" type="line"/>
      <point x="184" y="146" type="line"/>
      <point x="496" y="416" type="line"/>
      <point x="368" y="416" type="line"/>
      <point x="184" y="260" type="line"/>
      <point x="184" y="728" type="line"/>
      <point x="72" y="728" type="line"/>
    </contour>
    <contour>
      <point x="182" y="193" type="move"/>
      <point x="193" y="204" type="line"/>
      <point x="372" y="0" type="line"/>
      <point x="498" y="0" type="line"/>
      <point x="259" y="270" type="line"/>
    </contour>
  </outline>
</glyph>
<glyph name="l" format="2">
  <advance width="294"/>
  <unicode hex="006C"/>
  <outline>
    <contour>
      <point x="216" y="0" type="curve" smooth="yes"/>
      <point x="254" y="0" type="line"/>
      <point x="254" y="104" type="line"/>
      <point x="224" y="104" type="line" smooth="yes"/>
      <point x="192" y="104"/>
      <point x="172" y="126"/>
      <point x="172" y="156" type="curve" smooth="yes"/>
      <point x="172" y="728" type="line"/>
      <point x="60" y="728" type="line"/>
      <point x="60" y="156" type="line" smooth="yes"/>
      <point x="60" y="66"/>
      <point x="124" y="0"/>
    </contour>
  </outline>
</glyph>
<glyph name="m" format="2">
  <advance width="815"/>
  <unicode hex="006D"/>
  <outline>
    <contour>
      <point x="101" y="0" type="line"/>
      <point x="213" y="0" type="line"/>
      <point x="213" y="208" type="line" smooth="yes"/>
      <point x="213" y="274"/>
      <point x="231" y="322"/>
      <point x="295" y="322" type="curve" smooth="yes"/>
      <point x="361" y="322"/>
      <point x="387" y="274"/>
      <point x="387" y="208" type="curve" smooth="yes"/>
      <point x="387" y="0" type="line"/>
      <point x="499" y="0" type="line"/>
      <point x="499" y="208" type="line" smooth="yes"/>
      <point x="499" y="274"/>
      <point x="525" y="322"/>
      <point x="591" y="322" type="curve" smooth="yes"/>
      <point x="655" y="322"/>
      <point x="673" y="274"/>
      <point x="673" y="208" type="curve" smooth="yes"/>
      <point x="673" y="0" type="line"/>
      <point x="785" y="0" type="line"/>
      <point x="785" y="208" type="line" smooth="yes"/>
      <point x="785" y="338"/>
      <point x="723" y="426"/>
      <point x="593" y="426" type="curve" smooth="yes"/>
      <point x="531" y="426"/>
      <point x="489" y="400"/>
      <point x="447" y="356" type="curve"/>
      <point x="407" y="400"/>
      <point x="369" y="426"/>
      <point x="297" y="426" type="curve" smooth="yes"/>
      <point x="245" y="426"/>
      <point x="200" y="403"/>
      <point x="166" y="370" type="curve"/>
      <point x="140" y="397"/>
      <point x="103" y="417"/>
      <point x="59" y="417" type="curve" smooth="yes"/>
      <point x="45" y="417" type="line"/>
      <point x="45" y="313" type="line"/>
      <point x="49" y="313" type="line" smooth="yes"/>
      <point x="81" y="313"/>
      <point x="101" y="291"/>
      <point x="101" y="261" type="curve" smooth="yes"/>
    </contour>
  </outline>
</glyph>
<glyph name="n" format="2">
  <advance width="610"/>
  <unicode hex="006E"/>
  <outline>
    <contour>
      <point x="116" y="0" type="line"/>
      <point x="228" y="0" type="line"/>
      <point x="228" y="208" type="line" smooth="yes"/>
      <point x="228" y="274"/>
      <point x="261" y="322"/>
      <point x="325" y="322" type="curve" smooth="yes"/>
      <point x="391" y="322"/>
      <point x="422" y="274"/>
      <point x="422" y="208" type="curve" smooth="yes"/>
      <point x="422" y="0" type="line"/>
      <point x="534" y="0" type="line"/>
      <point x="534" y="208" type="line" smooth="yes"/>
      <point x="534" y="338"/>
      <point x="457" y="426"/>
      <point x="327" y="426" type="curve" smooth="yes"/>
      <point x="213" y="426"/>
      <point x="116" y="338"/>
      <point x="116" y="208" type="curve" smooth="yes"/>
    </contour>
    <contour>
      <point x="183" y="346" type="line"/>
      <point x="157" y="378"/>
      <point x="122" y="416"/>
      <point x="74" y="416" type="curve" smooth="yes"/>
      <point x="60" y="416" type="line"/>
      <point x="60" y="312" type="line"/>
      <point x="64" y="312" type="line" smooth="yes"/>
      <point x="96" y="312"/>
      <point x="116" y="290"/>
      <point x="116" y="260" type="curve" smooth="yes"/>
      <point x="116" y="0" type="line"/>
      <point x="196" y="0" type="line"/>
      <point x="196" y="36" type="line"/>
    </contour>
  </outline>
</glyph>
<glyph name="o" format="2">
  <advance width="544"/>
  <unicode hex="006F"/>
  <outline>
    <contour>
      <point x="272" y="-10" type="curve" smooth="yes"/>
      <point x="392" y="-10"/>
      <point x="496" y="88"/>
      <point x="496" y="208" type="curve" smooth="yes"/>
      <point x="496" y="338"/>
      <point x="402" y="426"/>
      <point x="272" y="426" type="curve" smooth="yes"/>
      <point x="152" y="426"/>
      <point x="48" y="328"/>
      <point x="48" y="208" type="curve" smooth="yes"/>
      <point x="48" y="78"/>
      <point x="142" y="-10"/>
    </contour>
    <contour>
      <point x="272" y="91" type="curve" smooth="yes"/>
      <point x="206" y="91"/>
      <point x="157" y="142"/>
      <point x="157" y="208" type="curve" smooth="yes"/>
      <point x="157" y="276"/>
      <point x="206" y="325"/>
      <point x="272" y="325" type="curve" smooth="yes"/>
      <point x="340" y="325"/>
      <point x="387" y="276"/>
      <point x="387" y="208" type="curve" smooth="yes"/>
      <point x="387" y="142"/>
      <point x="340" y="91"/>
    </contour>
  </outline>
</glyph>
<glyph name="p" format="2">
  <advance width="575"/>
  <unicode hex="0070"/>
  <outline>
    <contour>
      <point x="301" y="427" type="curve" smooth="yes"/>
      <point x="181" y="427"/>
      <point x="77" y="329"/>
      <point x="77" y="209" type="curve" smooth="yes"/>
      <point x="77" y="-225" type="line"/>
      <point x="189" y="-225" type="line"/>
      <point x="189" y="27" type="line"/>
      <point x="225" y="1"/>
      <point x="265" y="-9"/>
      <point x="307" y="-9" type="curve" smooth="yes"/>
      <point x="425" y="-9"/>
      <point x="525" y="89"/>
      <point x="525" y="209" type="curve" smooth="yes"/>
      <point x="525" y="339"/>
      <point x="431" y="427"/>
    </contour>
    <contour>
      <point x="301" y="323" type="curve" smooth="yes"/>
      <point x="365" y="323"/>
      <point x="413" y="273"/>
      <point x="413" y="209" type="curve" smooth="yes"/>
      <point x="413" y="143"/>
      <point x="365" y="95"/>
      <point x="301" y="95" type="curve" smooth="yes"/>
      <point x="235" y="95"/>
      <point x="189" y="143"/>
      <point x="189" y="209" type="curve" smooth="yes"/>
      <point x="189" y="273"/>
      <point x="235" y="323"/>
    </contour>
    <contour>
      <point x="187" y="37" type="line"/>
      <point x="149" y="362" type="line"/>
      <point x="124" y="392"/>
      <point x="87" y="415"/>
      <point x="43" y="417" type="curve" smooth="yes"/>
      <point x="40" y="417"/>
      <point x="38" y="417"/>
      <point x="35" y="417" type="curve" smooth="yes"/>
      <point x="33" y="417" type="line"/>
      <point x="33" y="312" type="line"/>
      <point x="36" y="312"/>
      <point x="40" y="311"/>
      <point x="43" y="310" type="curve" smooth="yes"/>
      <point x="64" y="304"/>
      <point x="77" y="285"/>
      <point x="77" y="261" type="curve" smooth="yes"/>
      <point x="77" y="1" type="line"/>
      <point x="187" y="1" type="line"/>
    </contour>
    <contour>
      <point x="187" y="209" type="move"/>
    </contour>
  </outline>
</glyph>
<glyph name="q" format="2">
  <advance width="526"/>
  <unicode hex="0071"/>
  <outline>
    <contour>
      <point x="370" y="-208" type="line"/>
      <point x="482" y="-208" type="line"/>
      <point x="482" y="208" type="line" smooth="yes"/>
      <point x="482" y="338"/>
      <point x="388" y="426"/>
      <point x="258" y="426" type="curve" smooth="yes"/>
      <point x="138" y="426"/>
      <point x="34" y="328"/>
      <point x="34" y="208" type="curve" smooth="yes"/>
      <point x="34" y="78"/>
      <point x="122" y="-10"/>
      <point x="248" y="-10" type="curve" smooth="yes"/>
      <point x="300" y="-10"/>
      <point x="346" y="8"/>
      <point x="370" y="36" type="curve"/>
    </contour>
    <contour>
      <point x="258" y="94" type="curve" smooth="yes"/>
      <point x="194" y="94"/>
      <point x="146" y="144"/>
      <point x="146" y="208" type="curve" smooth="yes"/>
      <point x="146" y="274"/>
      <point x="194" y="322"/>
      <point x="258" y="322" type="curve" smooth="yes"/>
      <point x="324" y="322"/>
      <point x="370" y="274"/>
      <point x="370" y="208" type="curve" smooth="yes"/>
      <point x="370" y="144"/>
      <point x="324" y="94"/>
    </contour>
  </outline>
</glyph>
<glyph name="r" format="2">
  <advance width="246"/>
  <unicode hex="0072"/>
  <outline>
    <contour>
      <point x="30" y="0" type="line"/>
      <point x="142" y="0" type="line"/>
      <point x="142" y="260" type="line" smooth="yes"/>
      <point x="142" y="292"/>
      <point x="164" y="312"/>
      <point x="194" y="312" type="curve" smooth="yes"/>
      <point x="226" y="312" type="line"/>
      <point x="226" y="416" type="line"/>
      <point x="186" y="416" type="line" smooth="yes"/>
      <point x="96" y="416"/>
      <point x="30" y="352"/>
      <point x="30" y="260" type="curve" smooth="yes"/>
    </contour>
  </outline>
</glyph>
<glyph name="s" format="2">
  <advance width="439"/>
  <unicode hex="0073"/>
  <outline>
    <contour>
      <point x="59" y="0" type="line"/>
      <point x="267" y="0" type="line" smooth="yes"/>
      <point x="337" y="0"/>
      <point x="395" y="62"/>
      <point x="395" y="128" type="curve" smooth="yes"/>
      <point x="395" y="202"/>
      <point x="337" y="256"/>
      <point x="267" y="256" type="curve" smooth="yes"/>
      <point x="185" y="256" type="line" smooth="yes"/>
      <point x="165" y="256"/>
      <point x="151" y="270"/>
      <point x="151" y="290" type="curve" smooth="yes"/>
      <point x="151" y="308"/>
      <point x="167" y="322"/>
      <point x="185" y="322" type="curve" smooth="yes"/>
      <point x="343" y="322" type="line"/>
      <point x="343" y="416" type="line"/>
      <point x="175" y="416" type="line" smooth="yes"/>
      <point x="105" y="416"/>
      <point x="47" y="356"/>
      <point x="47" y="288" type="curve" smooth="yes"/>
      <point x="47" y="216"/>
      <point x="105" y="160"/>
      <point x="175" y="160" type="curve" smooth="yes"/>
      <point x="257" y="160" type="line" smooth="yes"/>
      <point x="277" y="160"/>
      <point x="291" y="146"/>
      <point x="291" y="128" type="curve" smooth="yes"/>
      <point x="291" y="108"/>
      <point x="277" y="94"/>
      <point x="257" y="94" type="curve" smooth="yes"/>
      <point x="59" y="94" type="line"/>
    </contour>
  </outline>
</glyph>
<glyph name="t" format="2">
  <advance width="362"/>
  <unicode hex="0074"/>
  <outline>
    <contour>
      <point x="265" y="0" type="curve" smooth="yes"/>
      <point x="303" y="0" type="line"/>
      <point x="303" y="94" type="line"/>
      <point x="273" y="94" type="line" smooth="yes"/>
      <point x="241" y="94"/>
      <point x="221" y="116"/>
      <point x="221" y="146" type="curve" smooth="yes"/>
      <point x="221" y="338" type="line"/>
      <point x="326" y="338" type="line"/>
      <point x="326" y="425" type="line"/>
      <point x="221" y="425" type="line"/>
      <point x="221" y="650" type="line"/>
      <point x="109" y="650" type="line"/>
      <point x="109" y="425" type="line"/>
      <point x="19" y="425" type="line"/>
      <point x="19" y="338" type="line"/>
      <point x="109" y="338" type="line"/>
      <point x="109" y="146" type="line" smooth="yes"/>
      <point x="109" y="56"/>
      <point x="173" y="0"/>
    </contour>
  </outline>
</glyph>
<glyph name="u" format="2">
  <advance width="517"/>
  <unicode hex="0075"/>
  <outline>
    <contour>
      <point x="316" y="416" type="line"/>
      <point x="316" y="218" type="line" smooth="yes"/>
      <point x="316" y="152"/>
      <point x="293" y="104"/>
      <point x="229" y="104" type="curve" smooth="yes"/>
      <point x="163" y="104"/>
      <point x="142" y="152"/>
      <point x="142" y="218" type="curve" smooth="yes"/>
      <point x="142" y="416" type="line"/>
      <point x="30" y="416" type="line"/>
      <point x="30" y="218" type="line" smooth="yes"/>
      <point x="30" y="88"/>
      <point x="97" y="0"/>
      <point x="227" y="0" type="curve" smooth="yes"/>
      <point x="282" y="0"/>
      <point x="331" y="21"/>
      <point x="367" y="57" type="curve"/>
      <point x="393" y="29"/>
      <point x="428" y="0"/>
      <point x="470" y="0" type="curve" smooth="yes"/>
      <point x="484" y="0" type="line"/>
      <point x="484" y="104" type="line"/>
      <point x="480" y="104" type="line" smooth="yes"/>
      <point x="448" y="104"/>
      <point x="428" y="136"/>
      <point x="428" y="166" type="curve" smooth="yes"/>
      <point x="428" y="416" type="line"/>
    </contour>
  </outline>
</glyph>
<glyph name="v" format="2">
  <advance width="468"/>
  <unicode hex="0076"/>
  <outline>
    <contour>
      <point x="178" y="0" type="line"/>
      <point x="290" y="0" type="line"/>
      <point x="458" y="416" type="line"/>
      <point x="346" y="416" type="line"/>
      <point x="234" y="114" type="line"/>
      <point x="122" y="416" type="line"/>
      <point x="10" y="416" type="line"/>
    </contour>
  </outline>
</glyph>
<glyph name="w" format="2">
  <advance width="740"/>
  <unicode hex="0077"/>
  <outline>
    <contour>
      <point x="428" y="420" type="line"/>
      <point x="312" y="420" type="line"/>
      <point x="219" y="127" type="line"/>
      <point x="127" y="420" type="line"/>
      <point x="8" y="420" type="line"/>
      <point x="148" y="0" type="line"/>
      <point x="277" y="0" type="line"/>
      <point x="369" y="283" type="line"/>
      <point x="462" y="0" type="line"/>
      <point x="592" y="0" type="line"/>
      <point x="732" y="420" type="line"/>
      <point x="615" y="420" type="line"/>
      <point x="523" y="126" type="line"/>
    </contour>
  </outline>
</glyph>
<glyph name="x" format="2">
  <advance width="502"/>
  <unicode hex="0078"/>
  <outline>
    <contour>
      <point x="475" y="420" type="line"/>
      <point x="343" y="420" type="line"/>
      <point x="254" y="289" type="line"/>
      <point x="164" y="420" type="line"/>
      <point x="28" y="420" type="line"/>
      <point x="180" y="213" type="line"/>
      <point x="24" y="0" type="line"/>
      <point x="156" y="0" type="line"/>
      <point x="248" y="135" type="line"/>
      <point x="342" y="0" type="line"/>
      <point x="478" y="0" type="line"/>
      <point x="323" y="214" type="line"/>
    </contour>
  </outline>
</glyph>
<glyph name="y" format="2">
  <advance width="429"/>
  <unicode hex="0079"/>
  <outline>
    <contour>
      <point x="313" y="416" type="line"/>
      <point x="313" y="181" type="line" smooth="yes"/>
      <point x="313" y="127"/>
      <point x="268" y="83"/>
      <point x="215" y="83" type="curve" smooth="yes"/>
      <point x="160" y="83"/>
      <point x="116" y="127"/>
      <point x="116" y="181" type="curve" smooth="yes"/>
      <point x="116" y="416" type="line"/>
      <point x="7" y="416" type="line"/>
      <point x="7" y="181" type="line" smooth="yes"/>
      <point x="7" y="66"/>
      <point x="109" y="-6"/>
      <point x="214" y="-6" type="curve" smooth="yes"/>
      <point x="253" y="-6"/>
      <point x="299" y="17"/>
      <point x="323" y="40" type="curve"/>
      <point x="323" y="-11" type="line" smooth="yes"/>
      <point x="323" y="-65"/>
      <point x="279" y="-122"/>
      <point x="229" y="-122" type="curve" smooth="yes"/>
      <point x="30" y="-122" type="line"/>
      <point x="30" y="-220" type="line"/>
      <point x="246" y="-220" type="line" smooth="yes"/>
      <point x="360" y="-220"/>
      <point x="422" y="-130"/>
      <point x="422" y="-24" type="curve" smooth="yes"/>
      <point x="422" y="416" type="line"/>
    </contour>
  </outline>
</glyph>
<glyph name="z" format="2">
  <advance width="505"/>
  <unicode hex="007A"/>
  <outline>
    <contour>
      <point x="40" y="0" type="line"/>
      <point x="466" y="0" type="line"/>
      <point x="466" y="94" type="line"/>
      <point x="184" y="94" type="line"/>
      <point x="456" y="326" type="line"/>
      <point x="456" y="416" type="line"/>
      <point x="46" y="416" type="line"/>
      <point x="46" y="322" type="line"/>
      <point x="312" y="322" type="line"/>
      <point x="40" y="92" type="line"/>
    </contour>
  </outline>
</glyph>
<glyph name="braceleft" format="2">
  <advance width="880"/>
  <unicode hex="007B"/>
  <outline>
    <contour>
      <point x="632" y="603" type="line"/>
      <point x="632" y="700" type="line"/>
      <point x="608" y="700" type="line" smooth="yes"/>
      <point x="463" y="700"/>
      <point x="387" y="618"/>
      <point x="393" y="489" type="curve" smooth="yes"/>
      <point x="396" y="435" type="line" smooth="yes"/>
      <point x="399" y="370"/>
      <point x="356" y="333"/>
      <point x="287" y="333" type="curve"/>
      <point x="287" y="236" type="line"/>
      <point x="356" y="236"/>
      <point x="399" y="199"/>
      <point x="396" y="134" type="curve" smooth="yes"/>
      <point x="393" y="80" type="line" smooth="yes"/>
      <point x="387" y="-49"/>
      <point x="463" y="-131"/>
      <point x="608" y="-131" type="curve" smooth="yes"/>
      <point x="632" y="-131" type="line"/>
      <point x="632" y="-34" type="line"/>
      <point x="608" y="-34" type="line" smooth="yes"/>
      <point x="542" y="-34"/>
      <point x="498" y="3"/>
      <point x="501" y="68" type="curve" smooth="yes"/>
      <point x="504" y="122" type="line" smooth="yes"/>
      <point x="507" y="200"/>
      <point x="472" y="257"/>
      <point x="401" y="285" type="curve"/>
      <point x="472" y="312"/>
      <point x="507" y="370"/>
      <point x="504" y="447" type="curve" smooth="yes"/>
      <point x="501" y="501" type="line" smooth="yes"/>
      <point x="498" y="566"/>
      <point x="542" y="603"/>
      <point x="608" y="603" type="curve" smooth="yes"/>
    </contour>
  </outline>
</glyph>
<glyph name="braceright" format="2">
  <advance width="397"/>
  <unicode hex="007D"/>
  <outline>
    <contour>
      <point x="17" y="-208" type="line"/>
      <point x="21" y="-208" type="line" smooth="yes"/>
      <point x="141" y="-208"/>
      <point x="245" y="-109"/>
      <point x="245" y="10" type="curve" smooth="yes"/>
      <point x="245" y="198" type="line" smooth="yes"/>
      <point x="245" y="263"/>
      <point x="292" y="312"/>
      <point x="357" y="312" type="curve"/>
      <point x="357" y="416" type="line"/>
      <point x="292" y="416"/>
      <point x="245" y="465"/>
      <point x="245" y="530" type="curve" smooth="yes"/>
      <point x="245" y="717" type="line" smooth="yes"/>
      <point x="245" y="843"/>
      <point x="151" y="936"/>
      <point x="21" y="936" type="curve" smooth="yes"/>
      <point x="16" y="936" type="line"/>
      <point x="16" y="832" type="line"/>
      <point x="81" y="832"/>
      <point x="128" y="782"/>
      <point x="128" y="713" type="curve" smooth="yes"/>
      <point x="128" y="530" type="line" smooth="yes"/>
      <point x="128" y="460"/>
      <point x="157" y="400"/>
      <point x="206" y="361" type="curve"/>
      <point x="159" y="321"/>
      <point x="128" y="262"/>
      <point x="128" y="198" type="curve" smooth="yes"/>
      <point x="128" y="13" type="line" smooth="yes"/>
      <point x="128" y="-56"/>
      <point x="82" y="-104"/>
      <point x="17" y="-104" type="curve"/>
    </contour>
  </outline>
</glyph>
<glyph name="exclamdown" format="2">
  <advance width="282"/>
  <unicode hex="00A1"/>
  <outline>
    <contour>
      <point x="141" y="538" type="curve" smooth="yes"/>
      <point x="103" y="538"/>
      <point x="72" y="507"/>
      <point x="72" y="469" type="curve" smooth="yes"/>
      <point x="72" y="431"/>
      <point x="103" y="400"/>
      <point x="141" y="400" type="curve" smooth="yes"/>
      <point x="179" y="400"/>
      <point x="210" y="431"/>
      <point x="210" y="469" type="curve" smooth="yes"/>
      <point x="210" y="507"/>
      <point x="179" y="538"/>
    </contour>
    <contour>
      <point x="83" y="320" type="line"/>
      <point x="83" y="-200" type="line"/>
      <point x="199" y="-200" type="line"/>
      <point x="199" y="320" type="line"/>
    </contour>
  </outline>
</glyph>
<glyph name="cent" format="2">
  <advance width="1400"/>
  <unicode hex="00A2"/>
  <outline>
    <contour>
      <point x="682" y="641" type="line"/>
      <point x="682" y="544" type="line"/>
      <point x="567" y="522"/>
      <point x="494" y="434"/>
      <point x="494" y="320" type="curve" smooth="yes"/>
      <point x="494" y="208"/>
      <point x="567" y="118"/>
      <point x="682" y="96" type="curve"/>
      <point x="682" y="0" type="line"/>
      <point x="771" y="0" type="line"/>
      <point x="771" y="92" type="line"/>
      <point x="825" y="99"/>
      <point x="874" y="122"/>
      <point x="910" y="160" type="curve"/>
      <point x="856" y="223" type="line"/>
      <point x="832" y="203"/>
      <point x="803" y="188"/>
      <point x="771" y="180" type="curve"/>
      <point x="771" y="460" type="line"/>
      <point x="801" y="454"/>
      <point x="827" y="439"/>
      <point x="853" y="418" type="curve"/>
      <point x="910" y="480" type="line"/>
      <point x="875" y="519"/>
      <point x="826" y="542"/>
      <point x="771" y="548" type="curve"/>
      <point x="771" y="641" type="line"/>
    </contour>
    <contour>
      <point x="589" y="320" type="curve" smooth="yes"/>
      <point x="589" y="385"/>
      <point x="626" y="435"/>
      <point x="682" y="455" type="curve"/>
      <point x="682" y="187" type="line"/>
      <point x="626" y="206"/>
      <point x="589" y="256"/>
    </contour>
  </outline>
</glyph>
<glyph name="sterling" format="2">
  <advance width="1400"/>
  <unicode hex="00A3"/>
  <outline>
    <contour>
      <point x="942" y="94" type="line"/>
      <point x="634" y="94" type="line"/>
      <point x="634" y="277" type="line"/>
      <point x="863" y="277" type="line"/>
      <point x="863" y="364" type="line"/>
      <point x="634" y="364" type="line"/>
      <point x="634" y="393" type="line" smooth="yes"/>
      <point x="634" y="509"/>
      <point x="690" y="557"/>
      <point x="765" y="557" type="curve" smooth="yes"/>
      <point x="807" y="557"/>
      <point x="844" y="544"/>
      <point x="870" y="515" type="curve"/>
      <point x="937" y="586" type="line"/>
      <point x="894" y="630"/>
      <point x="833" y="651"/>
      <point x="765" y="651" type="curve" smooth="yes"/>
      <point x="640" y="651"/>
      <point x="535" y="569"/>
      <point x="535" y="401" type="curve" smooth="yes"/>
      <point x="535" y="364" type="line"/>
      <point x="459" y="364" type="line"/>
      <point x="459" y="277" type="line"/>
      <point x="535" y="277" type="line"/>
      <point x="535" y="94" type="line"/>
      <point x="459" y="94" type="line"/>
      <point x="459" y="0" type="line"/>
      <point x="942" y="0" type="line"/>
    </contour>
  </outline>
</glyph>
<glyph name="yen" format="2">
  <advance width="1400"/>
  <unicode hex="00A5"/>
  <outline>
    <contour>
      <point x="945" y="227" type="line"/>
      <point x="758" y="227" type="line"/>
      <point x="758" y="305" type="line"/>
      <point x="945" y="305" type="line"/>
      <point x="945" y="391" type="line"/>
      <point x="799" y="391" type="line"/>
      <point x="1007" y="700" type="line"/>
      <point x="880" y="700" type="line"/>
      <point x="704" y="424" type="line"/>
      <point x="523" y="700" type="line"/>
      <point x="394" y="700" type="line"/>
      <point x="606" y="391" type="line"/>
      <point x="462" y="391" type="line"/>
      <point x="462" y="305" type="line"/>
      <point x="650" y="305" type="line"/>
      <point x="650" y="227" type="line"/>
      <point x="462" y="227" type="line"/>
      <point x="462" y="140" type="line"/>
      <point x="650" y="140" type="line"/>
      <point x="650" y="0" type="line"/>
      <point x="758" y="0" type="line"/>
      <point x="758" y="140" type="line"/>
      <point x="945" y="140" type="line"/>
    </contour>
  </outline>
</glyph>
<glyph name="dieresis" format="2">
  <advance width="460"/>
  <unicode hex="00A8"/>
  <outline>
    <contour>
      <point x="109" y="630" type="curve" smooth="yes"/>
      <point x="147" y="630"/>
      <point x="178" y="661"/>
      <point x="178" y="699" type="curve" smooth="yes"/>
      <point x="178" y="737"/>
      <point x="147" y="768"/>
      <point x="109" y="768" type="curve" smooth="yes"/>
      <point x="71" y="768"/>
      <point x="40" y="737"/>
      <point x="40" y="699" type="curve" smooth="yes"/>
      <point x="40" y="660"/>
      <point x="71" y="630"/>
    </contour>
    <contour>
      <point x="351" y="630" type="curve" smooth="yes"/>
      <point x="389" y="630"/>
      <point x="420" y="661"/>
      <point x="420" y="699" type="curve" smooth="yes"/>
      <point x="420" y="737"/>
      <point x="389" y="768"/>
      <point x="351" y="768" type="curve" smooth="yes"/>
      <point x="313" y="768"/>
      <point x="282" y="737"/>
      <point x="282" y="699" type="curve" smooth="yes"/>
      <point x="282" y="661"/>
      <point x="313" y="630"/>
    </contour>
  </outline>
</glyph>
<glyph name="macron" format="2">
  <advance width="548"/>
  <unicode hex="00AF"/>
  <outline>
    <contour>
      <point x="64" y="846" type="line"/>
      <point x="484" y="846" type="line"/>
      <point x="484" y="950" type="line"/>
      <point x="64" y="950" type="line"/>
    </contour>
  </outline>
</glyph>
<glyph name="plusminus" format="2">
  <advance width="490"/>
  <unicode hex="00B1"/>
  <outline>
    <contour>
      <point x="294" y="142" type="line"/>
      <point x="294" y="274" type="line"/>
      <point x="470" y="274" type="line"/>
      <point x="470" y="369" type="line"/>
      <point x="294" y="369" type="line"/>
      <point x="294" y="532" type="line"/>
      <point x="197" y="532" type="line"/>
      <point x="197" y="369" type="line"/>
      <point x="20" y="369" type="line"/>
      <point x="20" y="274" type="line"/>
      <point x="197" y="274" type="line"/>
      <point x="197" y="142" type="line"/>
    </contour>
    <contour>
      <point x="470" y="95" type="line"/>
      <point x="20" y="95" type="line"/>
      <point x="20" y="0" type="line"/>
      <point x="470" y="0" type="line"/>
    </contour>
  </outline>
</glyph>
<glyph name="acute" format="2">
  <advance width="258"/>
  <unicode hex="00B4"/>
  <outline>
    <contour>
      <point x="139" y="780" type="line"/>
      <point x="219" y="975" type="line"/>
      <point x="121" y="1014" type="line"/>
      <point x="40" y="819" type="line"/>
    </contour>
  </outline>
</glyph>
<glyph name="periodcentered" format="2">
  <advance width="284"/>
  <unicode hex="00B7"/>
  <outline>
    <contour>
      <point x="65" y="298" type="curve" smooth="yes"/>
      <point x="65" y="276"/>
      <point x="73" y="258"/>
      <point x="88" y="243" type="curve" smooth="yes"/>
      <point x="103" y="228"/>
      <point x="121" y="221"/>
      <point x="143" y="221" type="curve" smooth="yes"/>
      <point x="165" y="221"/>
      <point x="184" y="228"/>
      <point x="199" y="243" type="curve" smooth="yes"/>
      <point x="214" y="258"/>
      <point x="222" y="276"/>
      <point x="222" y="298" type="curve" smooth="yes"/>
      <point x="222" y="341"/>
      <point x="187" y="376"/>
      <point x="143" y="376" type="curve" smooth="yes"/>
      <point x="100" y="376"/>
      <point x="65" y="341"/>
    </contour>
  </outline>
</glyph>
<glyph name="cedilla" format="2">
  <advance width="240"/>
  <unicode hex="00B8"/>
  <outline>
    <contour>
      <point x="144" y="-286" type="line"/>
      <point x="201" y="-51" type="line"/>
      <point x="97" y="-26" type="line"/>
      <point x="40" y="-261" type="line"/>
    </contour>
  </outline>
</glyph>
<glyph name="questiondown" format="2">
  <advance width="570"/>
  <unicode hex="00BF"/>
  <outline>
    <contour>
      <point x="333" y="392" type="curve" smooth="yes"/>
      <point x="371" y="392"/>
      <point x="402" y="423"/>
      <point x="402" y="461" type="curve" smooth="yes"/>
      <point x="402" y="499"/>
      <point x="371" y="530"/>
      <point x="333" y="530" type="curve" smooth="yes"/>
      <point x="295" y="530"/>
      <point x="264" y="499"/>
      <point x="264" y="461" type="curve" smooth="yes"/>
      <point x="264" y="423"/>
      <point x="295" y="392"/>
    </contour>
    <contour>
      <point x="285" y="-218" type="curve" smooth="yes"/>
      <point x="418" y="-218"/>
      <point x="514" y="-125"/>
      <point x="514" y="0" type="curve"/>
      <point x="397" y="0" type="line"/>
      <point x="397" y="-66"/>
      <point x="350" y="-114"/>
      <point x="285" y="-114" type="curve" smooth="yes"/>
      <point x="220" y="-114"/>
      <point x="173" y="-66"/>
      <point x="173" y="0" type="curve" smooth="yes"/>
      <point x="173" y="65"/>
      <point x="215" y="114"/>
      <point x="285" y="114" type="curve" smooth="yes"/>
      <point x="393" y="114" type="line"/>
      <point x="393" y="312" type="line"/>
      <point x="277" y="312" type="line"/>
      <point x="277" y="218" type="line"/>
      <point x="146" y="214"/>
      <point x="56" y="121"/>
      <point x="56" y="0" type="curve" smooth="yes"/>
      <point x="56" y="-130"/>
      <point x="150" y="-218"/>
    </contour>
  </outline>
</glyph>
<glyph name="multiply" format="2">
  <advance width="1200"/>
  <unicode hex="00D7"/>
  <outline>
    <contour>
      <point x="457" y="111" type="line"/>
      <point x="599" y="253" type="line"/>
      <point x="742" y="110" type="line"/>
      <point x="812" y="180" type="line"/>
      <point x="669" y="323" type="line"/>
      <point x="811" y="465" type="line"/>
      <point x="743" y="532" type="line"/>
      <point x="601" y="390" type="line"/>
      <point x="458" y="533" type="line"/>
      <point x="389" y="464" type="line"/>
      <point x="532" y="321" type="line"/>
      <point x="390" y="179" type="line"/>
    </contour>
  </outline>
</glyph>
<glyph name="germandbls" format="2">
  <advance width="568"/>
  <unicode hex="00DF"/>
  <outline>
    <contour>
      <point x="70" y="0" type="line"/>
      <point x="182" y="0" type="line"/>
      <point x="182" y="522" type="line" smooth="yes"/>
      <point x="182" y="592"/>
      <point x="226" y="634"/>
      <point x="290" y="634" type="curve" smooth="yes"/>
      <point x="352" y="634"/>
      <point x="396" y="588"/>
      <point x="396" y="524" type="curve" smooth="yes"/>
      <point x="396" y="462"/>
      <point x="354" y="416"/>
      <point x="292" y="416" type="curve" smooth="yes"/>
      <point x="238" y="416" type="line"/>
      <point x="238" y="312" type="line"/>
      <point x="292" y="312" type="line" smooth="yes"/>
      <point x="358" y="312"/>
      <point x="408" y="276"/>
      <point x="408" y="212" type="curve" smooth="yes"/>
      <point x="408" y="144"/>
      <point x="358" y="104"/>
      <point x="292" y="104" type="curve" smooth="yes"/>
      <point x="238" y="104" type="line"/>
      <point x="238" y="0" type="line"/>
      <point x="292" y="0" type="line" smooth="yes"/>
      <point x="426" y="0"/>
      <point x="524" y="90"/>
      <point x="524" y="210" type="curve" smooth="yes"/>
      <point x="524" y="278"/>
      <point x="490" y="334"/>
      <point x="440" y="370" type="curve"/>
      <point x="484" y="408"/>
      <point x="510" y="462"/>
      <point x="510" y="522" type="curve" smooth="yes"/>
      <point x="510" y="650"/>
      <point x="418" y="738"/>
      <point x="290" y="738" type="curve" smooth="yes"/>
      <point x="160" y="738"/>
      <point x="70" y="648"/>
      <point x="70" y="522" type="curve" smooth="yes"/>
    </contour>
  </outline>
</glyph>
<glyph name="divide" format="2">
  <advance width="1200"/>
  <unicode hex="00F7"/>
  <outline>
    <contour>
      <point x="825" y="341" type="line"/>
      <point x="375" y="341" type="line"/>
      <point x="375" y="246" type="line"/>
      <point x="825" y="246" type="line"/>
    </contour>
    <contour>
      <point x="601" y="533" type="curve" smooth="yes"/>
      <point x="562" y="533"/>
      <point x="528" y="500"/>
      <point x="528" y="461" type="curve" smooth="yes"/>
      <point x="528" y="423"/>
      <point x="562" y="389"/>
      <point x="601" y="389" type="curve" smooth="yes"/>
      <point x="639" y="389"/>
      <point x="673" y="423"/>
      <point x="673" y="461" type="curve" smooth="yes"/>
      <point x="673" y="500"/>
      <point x="639" y="533"/>
    </contour>
    <contour>
      <point x="601" y="198" type="curve" smooth="yes"/>
      <point x="562" y="198"/>
      <point x="528" y="165"/>
      <point x="528" y="126" type="curve" smooth="yes"/>
      <point x="528" y="87"/>
      <point x="562" y="53"/>
      <point x="601" y="53" type="curve" smooth="yes"/>
      <point x="639" y="53"/>
      <point x="673" y="87"/>
      <point x="673" y="126" type="curve" smooth="yes"/>
      <point x="673" y="165"/>
      <point x="639" y="198"/>
    </contour>
  </outline>
</glyph>
<glyph name="dotlessj" format="2">
  <advance width="255"/>
  <unicode hex="0237"/>
  <outline>
    <contour>
      <point x="-7" y="-208" type="line"/>
      <point x="31" y="-208" type="line" smooth="yes"/>
      <point x="121" y="-208"/>
      <point x="187" y="-144"/>
      <point x="187" y="-52" type="curve" smooth="yes"/>
      <point x="187" y="425" type="line"/>
      <point x="75" y="425" type="line"/>
      <point x="75" y="-52" type="line" smooth="yes"/>
      <point x="75" y="-84"/>
      <point x="53" y="-104"/>
      <point x="23" y="-104" type="curve" smooth="yes"/>
      <point x="-7" y="-104" type="line"/>
    </contour>
  </outline>
</glyph>
<glyph name="tilde" format="2">
  <advance width="539"/>
  <unicode hex="02DC"/>
  <outline>
    <contour>
      <point x="357" y="772" type="curve" smooth="yes"/>
      <point x="421" y="772"/>
      <point x="472" y="806"/>
      <point x="499" y="861" type="curve" smooth="yes"/>
      <point x="500" y="863" type="line"/>
      <point x="416" y="913" type="line"/>
      <point x="412" y="907" type="line"/>
      <point x="396" y="887"/>
      <point x="379" y="876"/>
      <point x="360" y="876" type="curve" smooth="yes"/>
      <point x="336" y="876"/>
      <point x="310" y="892"/>
      <point x="290" y="902" type="curve" smooth="yes"/>
      <point x="284" y="905" type="line" smooth="yes"/>
      <point x="248" y="923"/>
      <point x="223" y="936"/>
      <point x="183" y="936" type="curve" smooth="yes"/>
      <point x="119" y="936"/>
      <point x="69" y="902"/>
      <point x="41" y="848" type="curve"/>
      <point x="40" y="845" type="line"/>
      <point x="125" y="796" type="line"/>
      <point x="128" y="801" type="line"/>
      <point x="144" y="822"/>
      <point x="161" y="832"/>
      <point x="180" y="832" type="curve" smooth="yes"/>
      <point x="204" y="832"/>
      <point x="230" y="816"/>
      <point x="251" y="806" type="curve"/>
      <point x="256" y="803" type="line"/>
      <point x="291" y="785"/>
      <point x="318" y="772"/>
    </contour>
  </outline>
</glyph>
<glyph name="endash" format="2">
  <advance width="616"/>
  <unicode hex="2013"/>
  <outline>
    <contour>
      <point x="64" y="208" type="line"/>
      <point x="552" y="208" type="line"/>
      <point x="552" y="312" type="line"/>
      <point x="64" y="312" type="line"/>
    </contour>
  </outline>
</glyph>
<glyph name="emdash" format="2">
  <advance width="1000"/>
  <unicode hex="2014"/>
  <outline>
    <contour>
      <point x="64" y="208" type="line"/>
      <point x="936" y="208" type="line"/>
      <point x="936" y="312" type="line"/>
      <point x="64" y="312" type="line"/>
    </contour>
  </outline>
</glyph>
<glyph name="quoteleft" format="2">
  <advance width="270"/>
  <unicode hex="2018"/>
  <outline>
    <contour>
      <point x="176" y="626"/>
      <point x="151" y="597"/>
      <point x="151" y="572" type="qcurve"/>
      <point x="151" y="455" type="line"/>
      <point x="35" y="455" type="line"/>
      <point x="35" y="582" type="line"/>
      <point x="35" y="644"/>
      <point x="109" y="721"/>
      <point x="168" y="721" type="qcurve"/>
      <point x="215" y="721" type="line"/>
      <point x="215" y="626" type="line"/>
      <point x="197" y="626" type="line"/>
    </contour>
  </outline>
</glyph>
<glyph name="quoteright" format="2">
  <advance width="270"/>
  <unicode hex="2019"/>
  <outline>
    <contour>
      <point x="99" y="603" type="line" smooth="yes"/>
      <point x="99" y="570"/>
      <point x="81" y="549"/>
      <point x="53" y="549" type="curve" smooth="yes"/>
      <point x="35" y="549" type="line"/>
      <point x="35" y="454" type="line"/>
      <point x="83" y="454" type="line" smooth="yes"/>
      <point x="162" y="454"/>
      <point x="215" y="510"/>
      <point x="215" y="593" type="curve" smooth="yes"/>
      <point x="215" y="720" type="line"/>
      <point x="99" y="720" type="line"/>
    </contour>
  </outline>
</glyph>
<glyph name="quotesinglbase" format="2">
  <advance width="270"/>
  <unicode hex="201A"/>
  <outline>
    <contour>
      <point x="99" y="-9" type="line" smooth="yes"/>
      <point x="99" y="-42"/>
      <point x="81" y="-63"/>
      <point x="53" y="-63" type="curve" smooth="yes"/>
      <point x="35" y="-63" type="line"/>
      <point x="35" y="-158" type="line"/>
      <point x="83" y="-158" type="line" smooth="yes"/>
      <point x="162" y="-158"/>
      <point x="215" y="-102"/>
      <point x="215" y="-19" type="curve" smooth="yes"/>
      <point x="215" y="108" type="line"/>
      <point x="99" y="108" type="line"/>
    </contour>
  </outline>
</glyph>
<glyph name="quotedblleft" format="2">
  <advance width="486"/>
  <unicode hex="201C"/>
  <outline>
    <contour>
      <point x="151" y="572" type="line" smooth="yes"/>
      <point x="151" y="606"/>
      <point x="169" y="626"/>
      <point x="197" y="626" type="curve" smooth="yes"/>
      <point x="215" y="626" type="line"/>
      <point x="215" y="721" type="line"/>
      <point x="168" y="721" type="line" smooth="yes"/>
      <point x="89" y="721"/>
      <point x="35" y="665"/>
      <point x="35" y="582" type="curve" smooth="yes"/>
      <point x="35" y="455" type="line"/>
      <point x="151" y="455" type="line"/>
    </contour>
    <contour>
      <point x="367" y="572" type="line" smooth="yes"/>
      <point x="367" y="606"/>
      <point x="385" y="626"/>
      <point x="412" y="626" type="curve" smooth="yes"/>
      <point x="430" y="626" type="line"/>
      <point x="430" y="721" type="line"/>
      <point x="383" y="721" type="line" smooth="yes"/>
      <point x="304" y="721"/>
      <point x="251" y="665"/>
      <point x="251" y="582" type="curve" smooth="yes"/>
      <point x="251" y="455" type="line"/>
      <point x="367" y="455" type="line"/>
    </contour>
  </outline>
</glyph>
<glyph name="quotedblright" format="2">
  <advance width="486"/>
  <unicode hex="201D"/>
  <outline>
    <contour>
      <point x="99" y="558" type="line" smooth="yes"/>
      <point x="99" y="525"/>
      <point x="81" y="504"/>
      <point x="53" y="504" type="curve" smooth="yes"/>
      <point x="35" y="504" type="line"/>
      <point x="35" y="409" type="line"/>
      <point x="83" y="409" type="line" smooth="yes"/>
      <point x="162" y="409"/>
      <point x="215" y="465"/>
      <point x="215" y="548" type="curve" smooth="yes"/>
      <point x="215" y="675" type="line"/>
      <point x="99" y="675" type="line"/>
    </contour>
    <contour>
      <point x="315" y="558" type="line" smooth="yes"/>
      <point x="315" y="525"/>
      <point x="297" y="504"/>
      <point x="269" y="504" type="curve" smooth="yes"/>
      <point x="251" y="504" type="line"/>
      <point x="251" y="409" type="line"/>
      <point x="299" y="409" type="line" smooth="yes"/>
      <point x="378" y="409"/>
      <point x="431" y="465"/>
      <point x="431" y="548" type="curve" smooth="yes"/>
      <point x="431" y="675" type="line"/>
      <point x="315" y="675" type="line"/>
    </contour>
  </outline>
</glyph>
<glyph name="quotedblbase" format="2">
  <advance width="486"/>
  <unicode hex="201E"/>
  <outline>
    <contour>
      <point x="99" y="-19" type="line" smooth="yes"/>
      <point x="99" y="-52"/>
      <point x="81" y="-73"/>
      <point x="53" y="-73" type="curve" smooth="yes"/>
      <point x="35" y="-73" type="line"/>
      <point x="35" y="-168" type="line"/>
      <point x="83" y="-168" type="line" smooth="yes"/>
      <point x="162" y="-168"/>
      <point x="215" y="-112"/>
      <point x="215" y="-29" type="curve" smooth="yes"/>
      <point x="215" y="98" type="line"/>
      <point x="99" y="98" type="line"/>
    </contour>
    <contour>
      <point x="315" y="-19" type="line" smooth="yes"/>
      <point x="315" y="-52"/>
      <point x="297" y="-73"/>
      <point x="269" y="-73" type="curve" smooth="yes"/>
      <point x="251" y="-73" type="line"/>
      <point x="251" y="-168" type="line"/>
      <point x="299" y="-168" type="line" smooth="yes"/>
      <point x="378" y="-168"/>
      <point x="431" y="-112"/>
      <point x="431" y="-29" type="curve" smooth="yes"/>
      <point x="431" y="98" type="line"/>
      <point x="315" y="98" type="line"/>
    </contour>
  </outline>
</glyph>
<glyph name="bullet" format="2">
  <advance width="304"/>
  <unicode hex="2022"/>
  <outline>
    <contour>
      <point x="40" y="266" type="curve" smooth="yes"/>
      <point x="40" y="200"/>
      <point x="86" y="153"/>
      <point x="152" y="153" type="curve" smooth="yes"/>
      <point x="184" y="153"/>
      <point x="211" y="164"/>
      <point x="232" y="185" type="curve" smooth="yes"/>
      <point x="253" y="206"/>
      <point x="264" y="233"/>
      <point x="264" y="266" type="curve" smooth="yes"/>
      <point x="264" y="299"/>
      <point x="253" y="326"/>
      <point x="232" y="347" type="curve" smooth="yes"/>
      <point x="211" y="368"/>
      <point x="184" y="378"/>
      <point x="152" y="378" type="curve" smooth="yes"/>
      <point x="86" y="378"/>
      <point x="40" y="332"/>
    </contour>
  </outline>
</glyph>
<glyph name="minus" format="2">
  <advance width="1200"/>
  <unicode hex="2212"/>
  <outline>
    <contour>
      <point x="825" y="261" type="line"/>
      <point x="825" y="356" type="line"/>
      <point x="375" y="356" type="line"/>
      <point x="375" y="261" type="line"/>
    </contour>
  </outline>
</glyph>
<glyph name="b-bopomofo" format="2">
  <advance width="1000"/>
  <unicode hex="3105"/>
  <outline>
    <contour>
      <point x="741" y="33" type="curve" smooth="yes"/>
      <point x="757" y="74"/>
      <point x="772" y="136"/>
      <point x="787" y="220" type="curve" smooth="yes"/>
      <point x="801" y="303"/>
      <point x="811" y="395"/>
      <point x="818" y="494" type="curve" smooth="yes"/>
      <point x="820" y="522"/>
      <point x="814" y="543"/>
      <point x="801" y="556" type="curve" smooth="yes"/>
      <point x="788" y="569"/>
      <point x="769" y="576"/>
      <point x="742" y="576" type="curve" smooth="yes"/>
      <point x="306" y="576" type="line" smooth="yes"/>
      <point x="285" y="576"/>
      <point x="274" y="590"/>
      <point x="283" y="610" type="curve"/>
      <point x="342" y="780" type="line"/>
      <point x="251" y="803" type="line"/>
      <point x="212" y="683"/>
      <point x="188" y="611"/>
      <point x="181" y="588" type="curve" smooth="yes"/>
      <point x="162" y="530"/>
      <point x="187" y="495"/>
      <point x="245" y="495" type="curve" smooth="yes"/>
      <point x="688" y="495" type="line" smooth="yes"/>
      <point x="699" y="495"/>
      <point x="707" y="492"/>
      <point x="712" y="487" type="curve"/>
      <point x="716" y="482"/>
      <point x="718" y="474"/>
      <point x="717" y="464" type="curve" smooth="yes"/>
      <point x="708" y="383"/>
      <point x="699" y="307"/>
      <point x="690" y="238" type="curve" smooth="yes"/>
      <point x="681" y="169"/>
      <point x="670" y="118"/>
      <point x="659" y="87" type="curve" smooth="yes"/>
      <point x="642" y="45"/>
      <point x="569" y="44"/>
      <point x="474" y="41" type="curve"/>
      <point x="468" y="-53" type="line"/>
      <point x="534" y="-53"/>
      <point x="593" y="-47"/>
      <point x="644" y="-35" type="curve" smooth="yes"/>
      <point x="695" y="-24"/>
      <point x="728" y="-1"/>
    </contour>
  </outline>
</glyph>
<glyph name="p-bopomofo" format="2">
  <advance width="1000"/>
  <unicode hex="3106"/>
  <outline>
    <contour>
      <point x="523" y="158" type="curve"/>
      <point x="650" y="42"/>
      <point x="724" y="-28"/>
      <point x="745" y="-51" type="curve"/>
      <point x="825" y="4" type="line"/>
      <point x="815" y="16"/>
      <point x="776" y="54"/>
      <point x="709" y="117" type="curve" smooth="yes"/>
      <point x="641" y="180"/>
      <point x="602" y="216"/>
      <point x="593" y="223" type="curve"/>
      <point x="671" y="305"/>
      <point x="729" y="398"/>
      <point x="771" y="500" type="curve" smooth="yes"/>
      <point x="792" y="554"/>
      <point x="766" y="590"/>
      <point x="707" y="590" type="curve" smooth="yes"/>
      <point x="339" y="590" type="line" smooth="yes"/>
      <point x="318" y="590"/>
      <point x="308" y="603"/>
      <point x="315" y="624" type="curve" smooth="yes"/>
      <point x="373" y="776" type="line"/>
      <point x="282" y="793" type="line"/>
      <point x="211" y="597" type="line" smooth="yes"/>
      <point x="192" y="545"/>
      <point x="220" y="508"/>
      <point x="276" y="508" type="curve" smooth="yes"/>
      <point x="635" y="508" type="line" smooth="yes"/>
      <point x="658" y="508"/>
      <point x="668" y="495"/>
      <point x="657" y="474" type="curve" smooth="yes"/>
      <point x="625" y="406"/>
      <point x="585" y="345"/>
      <point x="522" y="281" type="curve"/>
      <point x="501" y="299"/>
      <point x="425" y="362"/>
      <point x="294" y="469" type="curve"/>
      <point x="238" y="407" type="line"/>
      <point x="263" y="386"/>
      <point x="300" y="355"/>
      <point x="347" y="314" type="curve" smooth="yes"/>
      <point x="394" y="273"/>
      <point x="430" y="241"/>
      <point x="456" y="220" type="curve"/>
      <point x="369" y="144"/>
      <point x="253" y="65"/>
      <point x="123" y="21" type="curve"/>
      <point x="157" y="-60" type="line"/>
      <point x="224" y="-35"/>
      <point x="290" y="-2"/>
      <point x="356" y="38" type="curve" smooth="yes"/>
      <point x="421" y="78"/>
      <point x="477" y="118"/>
    </contour>
  </outline>
</glyph>
<glyph name="m-bopomofo" format="2">
  <advance width="1000"/>
  <unicode hex="3107"/>
  <outline>
    <contour>
      <point x="132" y="0" type="line"/>
      <point x="222" y="0" type="line"/>
      <point x="222" y="622" type="line" smooth="yes"/>
      <point x="222" y="641"/>
      <point x="232" y="651"/>
      <point x="251" y="651" type="curve" smooth="yes"/>
      <point x="728" y="651" type="line" smooth="yes"/>
      <point x="747" y="651"/>
      <point x="757" y="641"/>
      <point x="757" y="622" type="curve" smooth="yes"/>
      <point x="757" y="0" type="line"/>
      <point x="852" y="0" type="line"/>
      <point x="852" y="658" type="line" smooth="yes"/>
      <point x="852" y="710"/>
      <point x="826" y="736"/>
      <point x="773" y="736" type="curve" smooth="yes"/>
      <point x="210" y="736" type="line" smooth="yes"/>
      <point x="158" y="736"/>
      <point x="132" y="710"/>
      <point x="132" y="658" type="curve" smooth="yes"/>
    </contour>
  </outline>
</glyph>
<glyph name="f-bopomofo" format="2">
  <advance width="1000" height="1000"/>
  <unicode hex="3108"/>
  <note>
uni3108
</note>
  <outline>
    <contour>
      <point x="873" y="2" type="line"/>
      <point x="873" y="88" type="line"/>
      <point x="323" y="88" type="line"/>
      <point x="216" y="90"/>
      <point x="216" y="181" type="qcurve" smooth="yes"/>
      <point x="216" y="612" type="line" smooth="yes"/>
      <point x="216" y="641"/>
      <point x="245" y="641" type="qcurve" smooth="yes"/>
      <point x="858" y="641" type="line"/>
      <point x="858" y="725" type="line"/>
      <point x="201" y="725" type="line" smooth="yes"/>
      <point x="123" y="725"/>
      <point x="123" y="647" type="qcurve" smooth="yes"/>
      <point x="123" y="186" type="line"/>
      <point x="122" y="2"/>
      <point x="334" y="2" type="qcurve"/>
    </contour>
  </outline>
</glyph>
<glyph name="d-bopomofo" format="2">
  <advance width="1000"/>
  <unicode hex="3109"/>
  <outline>
    <contour>
      <point x="653" y="-24" type="curve"/>
      <point x="686" y="-21"/>
      <point x="712" y="-11"/>
      <point x="732" y="8" type="curve" smooth="yes"/>
      <point x="752" y="26"/>
      <point x="768" y="55"/>
      <point x="779" y="94" type="curve" smooth="yes"/>
      <point x="790" y="133"/>
      <point x="800" y="185"/>
      <point x="807" y="250" type="curve" smooth="yes"/>
      <point x="814" y="314"/>
      <point x="822" y="393"/>
      <point x="829" y="488" type="curve" smooth="yes"/>
      <point x="834" y="546"/>
      <point x="806" y="576"/>
      <point x="754" y="576" type="curve" smooth="yes"/>
      <point x="313" y="576" type="line" smooth="yes"/>
      <point x="292" y="576"/>
      <point x="281" y="590"/>
      <point x="290" y="610" type="curve"/>
      <point x="354" y="783" type="line"/>
      <point x="261" y="803" type="line"/>
      <point x="188" y="586" type="line" smooth="yes"/>
      <point x="169" y="532"/>
      <point x="193" y="497"/>
      <point x="251" y="497" type="curve" smooth="yes"/>
      <point x="438" y="497" type="line"/>
      <point x="398" y="272"/>
      <point x="289" y="119"/>
      <point x="119" y="37" type="curve"/>
      <point x="163" y="-38" type="line"/>
      <point x="228" y="-5"/>
      <point x="286" y="38"/>
      <point x="338" y="92" type="curve" smooth="yes"/>
      <point x="389" y="145"/>
      <point x="430" y="205"/>
      <point x="459" y="270" type="curve" smooth="yes"/>
      <point x="488" y="335"/>
      <point x="511" y="410"/>
      <point x="526" y="497" type="curve"/>
      <point x="712" y="497" type="line" smooth="yes"/>
      <point x="722" y="497"/>
      <point x="729" y="495"/>
      <point x="734" y="490" type="curve" smooth="yes"/>
      <point x="739" y="485"/>
      <point x="741" y="476"/>
      <point x="740" y="465" type="curve" smooth="yes"/>
      <point x="733" y="378"/>
      <point x="726" y="307"/>
      <point x="720" y="253" type="curve" smooth="yes"/>
      <point x="713" y="199"/>
      <point x="706" y="158"/>
      <point x="698" y="130" type="curve" smooth="yes"/>
      <point x="689" y="101"/>
      <point x="679" y="82"/>
      <point x="666" y="72" type="curve" smooth="yes"/>
      <point x="653" y="61"/>
      <point x="637" y="56"/>
      <point x="617" y="56" type="curve" smooth="yes"/>
      <point x="610" y="56"/>
      <point x="589" y="57"/>
      <point x="554" y="59" type="curve"/>
      <point x="530" y="-20" type="line"/>
      <point x="573" y="-24"/>
      <point x="614" y="-25"/>
    </contour>
  </outline>
</glyph>
<glyph name="t-bopomofo" format="2">
  <advance width="1000" height="1000"/>
  <unicode hex="310A"/>
  <note>
uni310A
</note>
  <outline>
    <contour>
      <point x="787" y="-22" type="qcurve"/>
      <point x="851" y="36" type="line"/>
      <point x="833" y="73"/>
      <point x="677" y="276"/>
      <point x="657" y="293" type="qcurve"/>
      <point x="601" y="236" type="line"/>
      <point x="618" y="214"/>
      <point x="675" y="155"/>
      <point x="685" y="139" type="qcurve"/>
      <point x="597" y="129"/>
      <point x="420" y="109"/>
      <point x="331" y="98" type="qcurve" smooth="yes"/>
      <point x="314" y="96"/>
      <point x="300" y="116"/>
      <point x="308" y="132" type="qcurve" smooth="yes"/>
      <point x="352" y="215"/>
      <point x="436" y="405"/>
      <point x="474" y="502" type="qcurve"/>
      <point x="896" y="502" type="line"/>
      <point x="896" y="586" type="line"/>
      <point x="505" y="586" type="line"/>
      <point x="518" y="621"/>
      <point x="577" y="771" type="qcurve"/>
      <point x="482" y="796" type="line"/>
      <point x="420" y="627"/>
      <point x="405" y="586" type="qcurve"/>
      <point x="90" y="586" type="line"/>
      <point x="90" y="502" type="line"/>
      <point x="375" y="502" type="line"/>
      <point x="330" y="387"/>
      <point x="240" y="192"/>
      <point x="188" y="103" type="qcurve" smooth="yes"/>
      <point x="161" y="57"/>
      <point x="176" y="27" type="qcurve" smooth="yes"/>
      <point x="184" y="10"/>
      <point x="218" y="-9"/>
      <point x="252" y="-2" type="qcurve" smooth="yes"/>
      <point x="278" y="3"/>
      <point x="386" y="19"/>
      <point x="580" y="45"/>
      <point x="733" y="65" type="qcurve"/>
      <point x="752" y="35" type="line" smooth="yes"/>
      <point x="766" y="10"/>
      <point x="783" y="-17"/>
    </contour>
  </outline>
</glyph>
<glyph name="n-bopomofo" format="2">
  <advance width="1000"/>
  <unicode hex="310B"/>
  <outline>
    <contour>
      <point x="720" y="11" type="curve" smooth="yes"/>
      <point x="772" y="61"/>
      <point x="813" y="172"/>
      <point x="852" y="388" type="curve" smooth="yes"/>
      <point x="861" y="444"/>
      <point x="835" y="476"/>
      <point x="780" y="476" type="curve" smooth="yes"/>
      <point x="531" y="476" type="line" smooth="yes"/>
      <point x="524" y="476"/>
      <point x="520" y="478"/>
      <point x="517" y="481" type="curve" smooth="yes"/>
      <point x="506" y="493"/>
      <point x="519" y="528"/>
      <point x="556" y="586" type="curve" smooth="yes"/>
      <point x="603" y="659"/>
      <point x="622" y="705"/>
      <point x="613" y="724" type="curve" smooth="yes"/>
      <point x="603" y="743"/>
      <point x="582" y="752"/>
      <point x="549" y="752" type="curve" smooth="yes"/>
      <point x="156" y="752" type="line"/>
      <point x="156" y="669" type="line"/>
      <point x="459" y="669" type="line" smooth="yes"/>
      <point x="483" y="669"/>
      <point x="486" y="653"/>
      <point x="475" y="633" type="curve" smooth="yes"/>
      <point x="398" y="491" type="line" smooth="yes"/>
      <point x="381" y="460"/>
      <point x="377" y="436"/>
      <point x="386" y="420" type="curve" smooth="yes"/>
      <point x="395" y="404"/>
      <point x="418" y="396"/>
      <point x="453" y="395" type="curve" smooth="yes"/>
      <point x="731" y="395" type="line" smooth="yes"/>
      <point x="751" y="395"/>
      <point x="762" y="383"/>
      <point x="758" y="362" type="curve" smooth="yes"/>
      <point x="727" y="198"/>
      <point x="691" y="100"/>
      <point x="648" y="67" type="curve" smooth="yes"/>
      <point x="633" y="55"/>
      <point x="615" y="54"/>
      <point x="592" y="54" type="curve" smooth="yes"/>
      <point x="572" y="54"/>
      <point x="537" y="56"/>
      <point x="498" y="57" type="curve"/>
      <point x="493" y="-25" type="line"/>
      <point x="548" y="-28"/>
      <point x="591" y="-27"/>
      <point x="616" y="-26" type="curve" smooth="yes"/>
      <point x="663" y="-23"/>
      <point x="691" y="-16"/>
    </contour>
  </outline>
</glyph>
<glyph name="l-bopomofo" format="2">
  <advance width="1000"/>
  <unicode hex="310C"/>
  <outline>
    <contour>
      <point x="659" y="-24" type="curve"/>
      <point x="701" y="-20"/>
      <point x="723" y="-7"/>
      <point x="746" y="18" type="curve" smooth="yes"/>
      <point x="760" y="34"/>
      <point x="773" y="60"/>
      <point x="784" y="96" type="curve" smooth="yes"/>
      <point x="795" y="131"/>
      <point x="805" y="181"/>
      <point x="814" y="245" type="curve" smooth="yes"/>
      <point x="823" y="309"/>
      <point x="830" y="391"/>
      <point x="836" y="491" type="curve" smooth="yes"/>
      <point x="840" y="546"/>
      <point x="813" y="576"/>
      <point x="761" y="576" type="curve" smooth="yes"/>
      <point x="548" y="576" type="line"/>
      <point x="553" y="603"/>
      <point x="560" y="638"/>
      <point x="568" y="680" type="curve" smooth="yes"/>
      <point x="575" y="721"/>
      <point x="581" y="757"/>
      <point x="584" y="788" type="curve"/>
      <point x="497" y="798" type="line"/>
      <point x="494" y="765"/>
      <point x="488" y="727"/>
      <point x="481" y="684" type="curve" smooth="yes"/>
      <point x="474" y="640"/>
      <point x="467" y="604"/>
      <point x="461" y="576" type="curve"/>
      <point x="289" y="576" type="line" smooth="yes"/>
      <point x="268" y="576"/>
      <point x="259" y="589"/>
      <point x="266" y="609" type="curve" smooth="yes"/>
      <point x="273" y="629"/>
      <point x="281" y="658"/>
      <point x="290" y="695" type="curve" smooth="yes"/>
      <point x="299" y="732"/>
      <point x="306" y="762"/>
      <point x="311" y="784" type="curve"/>
      <point x="227" y="797" type="line"/>
      <point x="222" y="775"/>
      <point x="215" y="743"/>
      <point x="204" y="700" type="curve" smooth="yes"/>
      <point x="193" y="657"/>
      <point x="183" y="619"/>
      <point x="172" y="587" type="curve" smooth="yes"/>
      <point x="153" y="531"/>
      <point x="178" y="496"/>
      <point x="234" y="496" type="curve" smooth="yes"/>
      <point x="443" y="496" type="line"/>
      <point x="389" y="287"/>
      <point x="267" y="133"/>
      <point x="114" y="46" type="curve"/>
      <point x="158" y="-34" type="line"/>
      <point x="334" y="73"/>
      <point x="473" y="251"/>
      <point x="532" y="496" type="curve"/>
      <point x="724" y="496" type="line" smooth="yes"/>
      <point x="733" y="496"/>
      <point x="740" y="494"/>
      <point x="745" y="489" type="curve" smooth="yes"/>
      <point x="750" y="484"/>
      <point x="752" y="475"/>
      <point x="751" y="464" type="curve" smooth="yes"/>
      <point x="732" y="227"/>
      <point x="707" y="105"/>
      <point x="672" y="73" type="curve" smooth="yes"/>
      <point x="659" y="62"/>
      <point x="642" y="56"/>
      <point x="623" y="56" type="curve" smooth="yes"/>
      <point x="609" y="56"/>
      <point x="587" y="57"/>
      <point x="558" y="59" type="curve"/>
      <point x="558" y="-25" type="line"/>
      <point x="602" y="-26"/>
      <point x="636" y="-25"/>
    </contour>
  </outline>
</glyph>
<glyph name="g-bopomofo" format="2">
  <advance width="1000" height="1000"/>
  <unicode hex="310D"/>
  <note>
uni310D
</note>
  <outline>
    <contour>
      <point x="478" y="-9"/>
      <point x="487" y="31"/>
      <point x="473" y="53" type="qcurve" smooth="yes"/>
      <point x="446" y="102"/>
      <point x="371" y="215"/>
      <point x="286" y="332"/>
      <point x="243" y="385" type="qcurve" smooth="yes"/>
      <point x="226" y="407"/>
      <point x="241" y="427" type="qcurve" smooth="yes"/>
      <point x="262" y="456" type="line" smooth="yes"/>
      <point x="306" y="520"/>
      <point x="398" y="655"/>
      <point x="437" y="722" type="qcurve"/>
      <point x="449" y="747"/>
      <point x="441" y="784"/>
      <point x="420" y="792" type="qcurve" smooth="yes"/>
      <point x="374" y="809"/>
      <point x="350" y="760" type="qcurve"/>
      <point x="313" y="695"/>
      <point x="213" y="535"/>
      <point x="163" y="461" type="qcurve" smooth="yes"/>
      <point x="126" y="405"/>
      <point x="166" y="351" type="qcurve" smooth="yes"/>
      <point x="231" y="263"/>
      <point x="346" y="81"/>
      <point x="385" y="7" type="qcurve" smooth="yes"/>
      <point x="411" y="-43"/>
      <point x="455" y="-22" type="qcurve" smooth="yes"/>
    </contour>
    <contour>
      <point x="814" y="7"/>
      <point x="821" y="46"/>
      <point x="807" y="69" type="qcurve" smooth="yes"/>
      <point x="761" y="141"/>
      <point x="637" y="309"/>
      <point x="575" y="383" type="qcurve" smooth="yes"/>
      <point x="559" y="402"/>
      <point x="574" y="424" type="qcurve" smooth="yes"/>
      <point x="604" y="466" type="line" smooth="yes"/>
      <point x="648" y="523"/>
      <point x="734" y="644"/>
      <point x="770" y="703" type="qcurve" smooth="yes"/>
      <point x="784" y="727"/>
      <point x="777" y="765"/>
      <point x="757" y="774" type="qcurve" smooth="yes"/>
      <point x="733" y="785"/>
      <point x="696" y="767"/>
      <point x="682" y="744" type="qcurve" smooth="yes"/>
      <point x="646" y="683"/>
      <point x="546" y="531"/>
      <point x="494" y="461" type="qcurve" smooth="yes"/>
      <point x="453" y="406"/>
      <point x="496" y="350" type="qcurve" smooth="yes"/>
      <point x="563" y="267"/>
      <point x="680" y="94"/>
      <point x="718" y="23" type="qcurve" smooth="yes"/>
      <point x="732" y="-1"/>
      <point x="769" y="-16"/>
      <point x="791" y="-4" type="qcurve" smooth="yes"/>
    </contour>
  </outline>
</glyph>
<glyph name="k-bopomofo" format="2">
  <advance width="1000"/>
  <unicode hex="310E"/>
  <outline>
    <contour>
      <point x="665" y="19" type="curve" smooth="yes"/>
      <point x="682" y="40"/>
      <point x="698" y="70"/>
      <point x="712" y="109" type="curve" smooth="yes"/>
      <point x="725" y="147"/>
      <point x="737" y="190"/>
      <point x="747" y="238" type="curve" smooth="yes"/>
      <point x="756" y="286"/>
      <point x="763" y="335"/>
      <point x="768" y="386" type="curve" smooth="yes"/>
      <point x="772" y="440"/>
      <point x="744" y="468"/>
      <point x="692" y="468" type="curve" smooth="yes"/>
      <point x="386" y="468" type="line" smooth="yes"/>
      <point x="361" y="468"/>
      <point x="355" y="484"/>
      <point x="367" y="504" type="curve" smooth="yes"/>
      <point x="398" y="554"/>
      <point x="430" y="609"/>
      <point x="459" y="663" type="curve"/>
      <point x="851" y="663" type="line"/>
      <point x="851" y="746" type="line"/>
      <point x="130" y="746" type="line"/>
      <point x="130" y="663" type="line"/>
      <point x="359" y="663" type="line"/>
      <point x="324" y="601"/>
      <point x="288" y="545"/>
      <point x="253" y="482" type="curve" smooth="yes"/>
      <point x="224" y="428"/>
      <point x="244" y="388"/>
      <point x="307" y="388" type="curve" smooth="yes"/>
      <point x="649" y="388" type="line" smooth="yes"/>
      <point x="660" y="388"/>
      <point x="667" y="385"/>
      <point x="672" y="380" type="curve" smooth="yes"/>
      <point x="677" y="375"/>
      <point x="678" y="367"/>
      <point x="676" y="356" type="curve" smooth="yes"/>
      <point x="651" y="189"/>
      <point x="620" y="98"/>
      <point x="591" y="70" type="curve" smooth="yes"/>
      <point x="574" y="53"/>
      <point x="553" y="51"/>
      <point x="526" y="51" type="curve" smooth="yes"/>
      <point x="505" y="51"/>
      <point x="455" y="52"/>
      <point x="405" y="55" type="curve"/>
      <point x="395" y="-25" type="line"/>
      <point x="450" y="-28"/>
      <point x="522" y="-27"/>
      <point x="553" y="-26" type="curve" smooth="yes"/>
      <point x="600" y="-23"/>
      <point x="636" y="-19"/>
    </contour>
  </outline>
</glyph>
<glyph name="h-bopomofo" format="2">
  <advance width="1000"/>
  <unicode hex="310F"/>
  <outline>
    <contour>
      <point x="150" y="-1" type="curve" smooth="yes"/>
      <point x="180" y="44"/>
      <point x="202" y="92"/>
      <point x="217" y="145" type="curve" smooth="yes"/>
      <point x="232" y="198"/>
      <point x="242" y="251"/>
      <point x="247" y="304" type="curve" smooth="yes"/>
      <point x="252" y="357"/>
      <point x="254" y="406"/>
      <point x="254" y="451" type="curve" smooth="yes"/>
      <point x="254" y="604" type="line" smooth="yes"/>
      <point x="254" y="623"/>
      <point x="264" y="633"/>
      <point x="283" y="633" type="curve" smooth="yes"/>
      <point x="820" y="633" type="line"/>
      <point x="820" y="716" type="line"/>
      <point x="248" y="716" type="line" smooth="yes"/>
      <point x="196" y="716"/>
      <point x="170" y="690"/>
      <point x="170" y="637" type="curve" smooth="yes"/>
      <point x="170" y="452" type="line" smooth="yes"/>
      <point x="170" y="412"/>
      <point x="168" y="369"/>
      <point x="164" y="323" type="curve" smooth="yes"/>
      <point x="160" y="276"/>
      <point x="152" y="230"/>
      <point x="139" y="183" type="curve" smooth="yes"/>
      <point x="126" y="136"/>
      <point x="106" y="92"/>
      <point x="79" y="50" type="curve"/>
      <point x="66" y="33"/>
      <point x="62" y="-5"/>
      <point x="81" y="-18" type="curve" smooth="yes"/>
      <point x="105" y="-33"/>
      <point x="131" y="-30"/>
    </contour>
  </outline>
</glyph>
<glyph name="j-bopomofo" format="2">
  <advance width="1000"/>
  <unicode hex="3110"/>
  <outline>
    <contour>
      <point x="648" y="-56" type="line"/>
      <point x="734" y="-56" type="line"/>
      <point x="734" y="749" type="line"/>
      <point x="648" y="749" type="line"/>
      <point x="648" y="334" type="line"/>
      <point x="503" y="304"/>
      <point x="407" y="283"/>
      <point x="358" y="272" type="curve" smooth="yes"/>
      <point x="339" y="268"/>
      <point x="326" y="277"/>
      <point x="326" y="298" type="curve" smooth="yes"/>
      <point x="326" y="701" type="line"/>
      <point x="243" y="701" type="line"/>
      <point x="243" y="241" type="line" smooth="yes"/>
      <point x="243" y="186"/>
      <point x="274" y="160"/>
      <point x="328" y="173" type="curve" smooth="yes"/>
      <point x="346" y="178"/>
      <point x="368" y="184"/>
      <point x="395" y="191" type="curve" smooth="yes"/>
      <point x="421" y="198"/>
      <point x="505" y="218"/>
      <point x="648" y="252" type="curve"/>
    </contour>
  </outline>
</glyph>
<glyph name="q-bopomofo" format="2">
  <advance width="1000"/>
  <unicode hex="3111"/>
  <outline>
    <contour>
      <point x="629" y="-12" type="line"/>
      <point x="698" y="43" type="line"/>
      <point x="368" y="384" type="line" smooth="yes"/>
      <point x="354" y="399"/>
      <point x="354" y="413"/>
      <point x="367" y="426" type="curve" smooth="yes"/>
      <point x="407" y="467" type="line" smooth="yes"/>
      <point x="447" y="508"/>
      <point x="529" y="593"/>
      <point x="653" y="720" type="curve"/>
      <point x="582" y="780" type="line"/>
      <point x="557" y="752"/>
      <point x="528" y="719"/>
      <point x="493" y="682" type="curve" smooth="yes"/>
      <point x="458" y="645"/>
      <point x="424" y="608"/>
      <point x="391" y="572" type="curve" smooth="yes"/>
      <point x="357" y="535"/>
      <point x="323" y="499"/>
      <point x="289" y="463" type="curve" smooth="yes"/>
      <point x="253" y="424"/>
      <point x="253" y="387"/>
      <point x="289" y="351" type="curve" smooth="yes"/>
    </contour>
  </outline>
</glyph>
<glyph name="x-bopomofo" format="2">
  <advance width="1000"/>
  <unicode hex="3112"/>
  <outline>
    <contour>
      <point x="441" y="22" type="line"/>
      <point x="536" y="22" type="line"/>
      <point x="536" y="646" type="line"/>
      <point x="844" y="646" type="line"/>
      <point x="844" y="730" type="line"/>
      <point x="136" y="730" type="line"/>
      <point x="136" y="646" type="line"/>
      <point x="441" y="646" type="line"/>
    </contour>
  </outline>
</glyph>
<glyph name="zh-bopomofo" format="2">
  <advance width="1000"/>
  <unicode hex="3113"/>
  <outline>
    <contour>
      <point x="864" y="0" type="line"/>
      <point x="864" y="83" type="line"/>
      <point x="529" y="83" type="line"/>
      <point x="529" y="249" type="line"/>
      <point x="752" y="249" type="line" smooth="yes"/>
      <point x="804" y="249"/>
      <point x="830" y="275"/>
      <point x="830" y="327" type="curve" smooth="yes"/>
      <point x="830" y="658" type="line"/>
      <point x="740" y="658" type="line"/>
      <point x="740" y="359" type="line" smooth="yes"/>
      <point x="740" y="340"/>
      <point x="730" y="330"/>
      <point x="711" y="330" type="curve" smooth="yes"/>
      <point x="529" y="330" type="line"/>
      <point x="529" y="762" type="line"/>
      <point x="444" y="762" type="line"/>
      <point x="444" y="330" type="line"/>
      <point x="274" y="330" type="line" smooth="yes"/>
      <point x="255" y="330"/>
      <point x="245" y="340"/>
      <point x="245" y="359" type="curve" smooth="yes"/>
      <point x="245" y="658" type="line"/>
      <point x="159" y="658" type="line"/>
      <point x="159" y="327" type="line" smooth="yes"/>
      <point x="159" y="275"/>
      <point x="185" y="249"/>
      <point x="237" y="249" type="curve" smooth="yes"/>
      <point x="444" y="249" type="line"/>
      <point x="444" y="83" type="line"/>
      <point x="113" y="83" type="line"/>
      <point x="113" y="0" type="line"/>
    </contour>
  </outline>
</glyph>
<glyph name="ch-bopomofo" format="2">
  <advance width="1000"/>
  <unicode hex="3114"/>
  <outline>
    <contour>
      <point x="490" y="-15" type="line"/>
      <point x="577" y="-15" type="line"/>
      <point x="577" y="413" type="line"/>
      <point x="660" y="475"/>
      <point x="749" y="559"/>
      <point x="808" y="625" type="curve"/>
      <point x="737" y="676" type="line"/>
      <point x="694" y="625"/>
      <point x="640" y="574"/>
      <point x="577" y="522" type="curve" smooth="yes"/>
      <point x="514" y="469"/>
      <point x="450" y="424"/>
      <point x="387" y="387" type="curve" smooth="yes"/>
      <point x="323" y="350"/>
      <point x="258" y="317"/>
      <point x="193" y="290" type="curve"/>
      <point x="228" y="207" type="line"/>
      <point x="320" y="249"/>
      <point x="408" y="296"/>
      <point x="490" y="350" type="curve"/>
    </contour>
    <contour>
      <point x="653" y="756" type="curve"/>
      <point x="583" y="806" type="line"/>
      <point x="542" y="765"/>
      <point x="485" y="719"/>
      <point x="412" y="669" type="curve" smooth="yes"/>
      <point x="338" y="618"/>
      <point x="267" y="578"/>
      <point x="200" y="547" type="curve"/>
      <point x="237" y="473" type="line"/>
      <point x="308" y="506"/>
      <point x="383" y="549"/>
      <point x="462" y="603" type="curve" smooth="yes"/>
      <point x="541" y="656"/>
      <point x="604" y="707"/>
    </contour>
  </outline>
</glyph>
<glyph name="sh-bopomofo" format="2">
  <advance width="1000"/>
  <unicode hex="3115"/>
  <outline>
    <contour>
      <point x="79" y="37" type="curve"/>
      <point x="145" y="-23" type="line"/>
      <point x="230" y="69"/>
      <point x="274" y="195"/>
      <point x="279" y="356" type="curve" smooth="yes"/>
      <point x="279" y="375"/>
      <point x="289" y="385"/>
      <point x="309" y="385" type="curve" smooth="yes"/>
      <point x="772" y="385" type="line" smooth="yes"/>
      <point x="825" y="385"/>
      <point x="851" y="411"/>
      <point x="851" y="464" type="curve" smooth="yes"/>
      <point x="851" y="675" type="line" smooth="yes"/>
      <point x="851" y="727"/>
      <point x="825" y="753"/>
      <point x="772" y="753" type="curve" smooth="yes"/>
      <point x="190" y="753" type="line"/>
      <point x="190" y="670" type="line"/>
      <point x="734" y="670" type="line" smooth="yes"/>
      <point x="754" y="670"/>
      <point x="764" y="660"/>
      <point x="764" y="640" type="curve" smooth="yes"/>
      <point x="764" y="498" type="line" smooth="yes"/>
      <point x="764" y="478"/>
      <point x="754" y="468"/>
      <point x="734" y="468" type="curve" smooth="yes"/>
      <point x="268" y="468" type="line" smooth="yes"/>
      <point x="215" y="468"/>
      <point x="189" y="442"/>
      <point x="189" y="390" type="curve" smooth="yes"/>
      <point x="189" y="375" type="line" smooth="yes"/>
      <point x="189" y="345"/>
      <point x="187" y="311"/>
      <point x="182" y="272" type="curve" smooth="yes"/>
      <point x="177" y="233"/>
      <point x="166" y="194"/>
      <point x="151" y="153" type="curve" smooth="yes"/>
      <point x="136" y="112"/>
      <point x="112" y="74"/>
    </contour>
  </outline>
</glyph>
<glyph name="r-bopomofo" format="2">
  <advance width="1000"/>
  <unicode hex="3116"/>
  <outline>
    <contour>
      <point x="746" y="6" type="line" smooth="yes"/>
      <point x="797" y="6"/>
      <point x="823" y="32"/>
      <point x="823" y="83" type="curve" smooth="yes"/>
      <point x="823" y="681" type="line" smooth="yes"/>
      <point x="823" y="733"/>
      <point x="797" y="759"/>
      <point x="745" y="759" type="curve" smooth="yes"/>
      <point x="234" y="759" type="line" smooth="yes"/>
      <point x="182" y="759"/>
      <point x="156" y="733"/>
      <point x="156" y="681" type="curve" smooth="yes"/>
      <point x="156" y="82" type="line" smooth="yes"/>
      <point x="156" y="31"/>
      <point x="185" y="5"/>
      <point x="235" y="6" type="curve" smooth="yes"/>
    </contour>
    <contour>
      <point x="245" y="122" type="curve" smooth="yes"/>
      <point x="245" y="643" type="line" smooth="yes"/>
      <point x="245" y="663"/>
      <point x="255" y="673"/>
      <point x="274" y="673" type="curve" smooth="yes"/>
      <point x="700" y="673" type="line" smooth="yes"/>
      <point x="719" y="673"/>
      <point x="729" y="663"/>
      <point x="729" y="643" type="curve" smooth="yes"/>
      <point x="729" y="120" type="line" smooth="yes"/>
      <point x="729" y="102"/>
      <point x="720" y="93"/>
      <point x="703" y="93" type="curve" smooth="yes"/>
      <point x="274" y="93" type="line" smooth="yes"/>
      <point x="255" y="93"/>
      <point x="245" y="103"/>
    </contour>
    <contour>
      <point x="503" y="269" type="curve"/>
      <point x="580" y="313" type="line"/>
      <point x="547" y="373"/>
      <point x="495" y="450"/>
      <point x="445" y="513" type="curve"/>
      <point x="377" y="468" type="line"/>
      <point x="421" y="405"/>
      <point x="470" y="327"/>
    </contour>
  </outline>
</glyph>
<glyph name="z-bopomofo" format="2">
  <advance width="1000"/>
  <unicode hex="3117"/>
  <outline>
    <contour>
      <point x="385" y="-15" type="line"/>
      <point x="475" y="-15" type="line"/>
      <point x="475" y="649" type="line"/>
      <point x="742" y="649" type="line" smooth="yes"/>
      <point x="761" y="649"/>
      <point x="771" y="638"/>
      <point x="771" y="617" type="curve"/>
      <point x="767" y="548"/>
      <point x="763" y="493"/>
      <point x="759" y="450" type="curve" smooth="yes"/>
      <point x="755" y="407"/>
      <point x="751" y="374"/>
      <point x="746" y="352" type="curve" smooth="yes"/>
      <point x="741" y="329"/>
      <point x="735" y="315"/>
      <point x="729" y="308" type="curve" smooth="yes"/>
      <point x="716" y="292"/>
      <point x="703" y="288"/>
      <point x="682" y="288" type="curve" smooth="yes"/>
      <point x="653" y="288" type="line" smooth="yes"/>
      <point x="644" y="288"/>
      <point x="635" y="288"/>
      <point x="624" y="289" type="curve"/>
      <point x="614" y="207" type="line"/>
      <point x="648" y="206"/>
      <point x="703" y="206"/>
      <point x="723" y="209" type="curve" smooth="yes"/>
      <point x="759" y="213"/>
      <point x="779" y="223"/>
      <point x="799" y="247" type="curve" smooth="yes"/>
      <point x="810" y="260"/>
      <point x="820" y="281"/>
      <point x="827" y="308" type="curve" smooth="yes"/>
      <point x="834" y="335"/>
      <point x="840" y="366"/>
      <point x="845" y="403" type="curve" smooth="yes"/>
      <point x="850" y="440"/>
      <point x="853" y="479"/>
      <point x="856" y="522" type="curve" smooth="yes"/>
      <point x="859" y="564"/>
      <point x="861" y="606"/>
      <point x="863" y="649" type="curve" smooth="yes"/>
      <point x="866" y="703"/>
      <point x="837" y="730"/>
      <point x="786" y="730" type="curve" smooth="yes"/>
      <point x="162" y="730" type="line"/>
      <point x="162" y="649" type="line"/>
      <point x="385" y="649" type="line"/>
    </contour>
  </outline>
</glyph>
<glyph name="c-bopomofo" format="2">
  <advance width="1000"/>
  <unicode hex="3118"/>
  <outline>
    <contour>
      <point x="521" y="17" type="curve"/>
      <point x="596" y="-30" type="line"/>
      <point x="623" y="11"/>
      <point x="654" y="61"/>
      <point x="687" y="120" type="curve" smooth="yes"/>
      <point x="720" y="179"/>
      <point x="745" y="237"/>
      <point x="764" y="292" type="curve" smooth="yes"/>
      <point x="783" y="346"/>
      <point x="756" y="380"/>
      <point x="698" y="380" type="curve" smooth="yes"/>
      <point x="392" y="380" type="line" smooth="yes"/>
      <point x="369" y="380"/>
      <point x="361" y="393"/>
      <point x="370" y="414" type="curve"/>
      <point x="393" y="461"/>
      <point x="414" y="508"/>
      <point x="435" y="559" type="curve"/>
      <point x="852" y="559" type="line"/>
      <point x="852" y="643" type="line"/>
      <point x="469" y="643" type="line"/>
      <point x="476" y="662"/>
      <point x="485" y="685"/>
      <point x="495" y="712" type="curve" smooth="yes"/>
      <point x="504" y="739"/>
      <point x="511" y="759"/>
      <point x="515" y="772" type="curve"/>
      <point x="430" y="800" type="line"/>
      <point x="417" y="754"/>
      <point x="390" y="686"/>
      <point x="374" y="643" type="curve"/>
      <point x="123" y="643" type="line"/>
      <point x="123" y="559" type="line"/>
      <point x="343" y="559" type="line"/>
      <point x="322" y="505"/>
      <point x="297" y="453"/>
      <point x="263" y="389" type="curve" smooth="yes"/>
      <point x="234" y="334"/>
      <point x="255" y="296"/>
      <point x="317" y="296" type="curve" smooth="yes"/>
      <point x="631" y="296" type="line" smooth="yes"/>
      <point x="652" y="296"/>
      <point x="662" y="283"/>
      <point x="654" y="262" type="curve" smooth="yes"/>
      <point x="640" y="223"/>
      <point x="619" y="181"/>
      <point x="592" y="135" type="curve" smooth="yes"/>
      <point x="564" y="89"/>
      <point x="540" y="50"/>
    </contour>
  </outline>
</glyph>
<glyph name="s-bopomofo" format="2">
  <advance width="1000"/>
  <unicode hex="3119"/>
  <outline>
    <contour>
      <point x="794" y="26" type="line"/>
      <point x="872" y="78" type="line"/>
      <point x="727" y="345" type="line"/>
      <point x="654" y="294" type="line"/>
      <point x="707" y="195" type="line"/>
      <point x="263" y="123" type="line" smooth="yes"/>
      <point x="243" y="120"/>
      <point x="236" y="132"/>
      <point x="247" y="147" type="curve"/>
      <point x="267" y="178"/>
      <point x="289" y="216"/>
      <point x="312" y="259" type="curve" smooth="yes"/>
      <point x="335" y="302"/>
      <point x="358" y="349"/>
      <point x="381" y="400" type="curve" smooth="yes"/>
      <point x="404" y="450"/>
      <point x="427" y="502"/>
      <point x="449" y="555" type="curve" smooth="yes"/>
      <point x="470" y="608"/>
      <point x="490" y="659"/>
      <point x="507" y="709" type="curve"/>
      <point x="412" y="737" type="line"/>
      <point x="400" y="700"/>
      <point x="386" y="661"/>
      <point x="370" y="620" type="curve" smooth="yes"/>
      <point x="354" y="579"/>
      <point x="338" y="537"/>
      <point x="321" y="496" type="curve" smooth="yes"/>
      <point x="304" y="455"/>
      <point x="287" y="416"/>
      <point x="271" y="379" type="curve" smooth="yes"/>
      <point x="254" y="342"/>
      <point x="239" y="311"/>
      <point x="226" y="284" type="curve" smooth="yes"/>
      <point x="213" y="257"/>
      <point x="202" y="237"/>
      <point x="195" y="224" type="curve" smooth="yes"/>
      <point x="135" y="124" type="line" smooth="yes"/>
      <point x="97" y="62"/>
      <point x="128" y="18"/>
      <point x="198" y="29" type="curve" smooth="yes"/>
      <point x="746" y="117" type="line"/>
      <point x="764" y="80" type="line"/>
    </contour>
  </outline>
</glyph>
<glyph name="a-bopomofo" format="2">
  <advance width="1000"/>
  <unicode hex="311A"/>
  <outline>
    <contour>
      <point x="445" y="21" type="line"/>
      <point x="536" y="21" type="line"/>
      <point x="536" y="421" type="line"/>
      <point x="624" y="495"/>
      <point x="730" y="592"/>
      <point x="820" y="686" type="curve"/>
      <point x="748" y="743" type="line"/>
      <point x="676" y="661"/>
      <point x="579" y="573"/>
      <point x="497" y="502" type="curve"/>
      <point x="480" y="519"/>
      <point x="456" y="541"/>
      <point x="427" y="568" type="curve" smooth="yes"/>
      <point x="397" y="595"/>
      <point x="364" y="624"/>
      <point x="329" y="656" type="curve" smooth="yes"/>
      <point x="294" y="687"/>
      <point x="259" y="718"/>
      <point x="224" y="748" type="curve"/>
      <point x="165" y="686" type="line"/>
      <point x="198" y="656"/>
      <point x="232" y="625"/>
      <point x="266" y="593" type="curve" smooth="yes"/>
      <point x="300" y="560"/>
      <point x="333" y="529"/>
      <point x="364" y="498" type="curve" smooth="yes"/>
      <point x="395" y="467"/>
      <point x="422" y="439"/>
      <point x="445" y="413" type="curve"/>
    </contour>
  </outline>
</glyph>
<glyph name="o-bopomofo" format="2">
  <advance width="1000"/>
  <unicode hex="311B"/>
  <outline>
    <contour>
      <point x="814" y="130" type="curve"/>
      <point x="750" y="188" type="line"/>
      <point x="676" y="126"/>
      <point x="576" y="93"/>
      <point x="449" y="93" type="curve" smooth="yes"/>
      <point x="303" y="93"/>
      <point x="220" y="144"/>
      <point x="220" y="234" type="curve" smooth="yes"/>
      <point x="220" y="328"/>
      <point x="325" y="384"/>
      <point x="495" y="377" type="curve" smooth="yes"/>
      <point x="516" y="376"/>
      <point x="532" y="380"/>
      <point x="542" y="391" type="curve" smooth="yes"/>
      <point x="550" y="399"/>
      <point x="554" y="411"/>
      <point x="554" y="428" type="curve" smooth="yes"/>
      <point x="554" y="617" type="line"/>
      <point x="836" y="617" type="line"/>
      <point x="836" y="699" type="line"/>
      <point x="137" y="699" type="line"/>
      <point x="137" y="617" type="line"/>
      <point x="464" y="617" type="line"/>
      <point x="464" y="448" type="line"/>
      <point x="397" y="449"/>
      <point x="339" y="440"/>
      <point x="290" y="423" type="curve" smooth="yes"/>
      <point x="241" y="405"/>
      <point x="203" y="379"/>
      <point x="176" y="346" type="curve" smooth="yes"/>
      <point x="149" y="313"/>
      <point x="135" y="273"/>
      <point x="135" y="227" type="curve" smooth="yes"/>
      <point x="135" y="182"/>
      <point x="148" y="144"/>
      <point x="175" y="111" type="curve" smooth="yes"/>
      <point x="201" y="78"/>
      <point x="238" y="53"/>
      <point x="287" y="35" type="curve" smooth="yes"/>
      <point x="336" y="17"/>
      <point x="393" y="8"/>
      <point x="460" y="7" type="curve" smooth="yes"/>
      <point x="610" y="7"/>
      <point x="728" y="48"/>
    </contour>
  </outline>
</glyph>
<glyph name="e-bopomofo" format="2">
  <advance width="1000" height="1000"/>
  <unicode hex="311C"/>
  <note>
uni311C
</note>
  <outline>
    <contour>
      <point x="686" y="7"/>
      <point x="814" y="126" type="qcurve"/>
      <point x="750" y="187" type="line"/>
      <point x="634" y="92"/>
      <point x="449" y="92" type="qcurve" smooth="yes"/>
      <point x="341" y="92"/>
      <point x="220" y="166"/>
      <point x="220" y="233" type="qcurve" smooth="yes"/>
      <point x="220" y="303"/>
      <point x="366" y="369"/>
      <point x="493" y="356" type="qcurve" smooth="yes"/>
      <point x="554" y="351"/>
      <point x="554" y="407" type="qcurve" smooth="yes"/>
      <point x="554" y="569" type="line"/>
      <point x="851" y="569" type="line"/>
      <point x="851" y="650" type="line"/>
      <point x="554" y="650" type="line"/>
      <point x="554" y="779" type="line"/>
      <point x="464" y="779" type="line"/>
      <point x="464" y="650" type="line"/>
      <point x="134" y="650" type="line"/>
      <point x="134" y="569" type="line"/>
      <point x="464" y="569" type="line"/>
      <point x="464" y="427" type="line"/>
      <point x="365" y="435"/>
      <point x="217" y="390"/>
      <point x="135" y="295"/>
      <point x="135" y="227" type="qcurve" smooth="yes"/>
      <point x="135" y="161"/>
      <point x="215" y="62"/>
      <point x="361" y="8"/>
      <point x="460" y="7" type="qcurve" smooth="yes"/>
    </contour>
  </outline>
</glyph>
<glyph name="eh-bopomofo" format="2">
  <advance width="1000"/>
  <unicode hex="311D"/>
  <outline>
    <contour>
      <point x="759" y="-4" type="line"/>
      <point x="759" y="77" type="line"/>
      <point x="426" y="77" type="line" smooth="yes"/>
      <point x="362" y="77"/>
      <point x="342" y="99"/>
      <point x="342" y="167" type="curve" smooth="yes"/>
      <point x="342" y="457" type="line"/>
      <point x="610" y="457" type="line"/>
      <point x="605" y="420"/>
      <point x="595" y="379"/>
      <point x="580" y="333" type="curve" smooth="yes"/>
      <point x="565" y="286"/>
      <point x="552" y="248"/>
      <point x="541" y="219" type="curve"/>
      <point x="623" y="181" type="line"/>
      <point x="636" y="217"/>
      <point x="650" y="262"/>
      <point x="666" y="315" type="curve" smooth="yes"/>
      <point x="681" y="368"/>
      <point x="691" y="415"/>
      <point x="694" y="457" type="curve"/>
      <point x="871" y="457" type="line"/>
      <point x="871" y="542" type="line"/>
      <point x="704" y="542" type="line"/>
      <point x="708" y="604"/>
      <point x="709" y="662"/>
      <point x="709" y="714" type="curve"/>
      <point x="625" y="715" type="line"/>
      <point x="625" y="663"/>
      <point x="624" y="604"/>
      <point x="619" y="542" type="curve"/>
      <point x="342" y="542" type="line"/>
      <point x="342" y="714" type="line"/>
      <point x="255" y="714" type="line"/>
      <point x="255" y="542" type="line"/>
      <point x="95" y="542" type="line"/>
      <point x="95" y="457" type="line"/>
      <point x="255" y="457" type="line"/>
      <point x="255" y="166" type="line" smooth="yes"/>
      <point x="255" y="123"/>
      <point x="261" y="89"/>
      <point x="272" y="64" type="curve" smooth="yes"/>
      <point x="283" y="39"/>
      <point x="302" y="21"/>
      <point x="328" y="11" type="curve" smooth="yes"/>
      <point x="353" y="1"/>
      <point x="388" y="-4"/>
      <point x="431" y="-4" type="curve" smooth="yes"/>
    </contour>
  </outline>
</glyph>
<glyph name="ai-bopomofo" format="2">
  <advance width="1000"/>
  <unicode hex="311E"/>
  <outline>
    <contour>
      <point x="650" y="-5" type="curve"/>
      <point x="731" y="-39" type="line"/>
      <point x="750" y="10"/>
      <point x="771" y="72"/>
      <point x="792" y="146" type="curve" smooth="yes"/>
      <point x="813" y="219"/>
      <point x="829" y="284"/>
      <point x="840" y="339" type="curve" smooth="yes"/>
      <point x="851" y="393"/>
      <point x="823" y="424"/>
      <point x="769" y="424" type="curve" smooth="yes"/>
      <point x="524" y="424" type="line"/>
      <point x="545" y="499"/>
      <point x="561" y="582"/>
      <point x="570" y="673" type="curve"/>
      <point x="844" y="673" type="line"/>
      <point x="844" y="757" type="line"/>
      <point x="105" y="757" type="line"/>
      <point x="105" y="673" type="line"/>
      <point x="485" y="673" type="line"/>
      <point x="476" y="579"/>
      <point x="461" y="498"/>
      <point x="438" y="424" type="curve"/>
      <point x="267" y="424" type="line" smooth="yes"/>
      <point x="246" y="424"/>
      <point x="225" y="437"/>
      <point x="234" y="458" type="curve"/>
      <point x="292" y="625" type="line"/>
      <point x="208" y="642" type="line"/>
      <point x="202" y="621"/>
      <point x="192" y="589"/>
      <point x="178" y="547" type="curve" smooth="yes"/>
      <point x="164" y="505"/>
      <point x="151" y="468"/>
      <point x="140" y="437" type="curve" smooth="yes"/>
      <point x="121" y="381"/>
      <point x="155" y="344"/>
      <point x="213" y="344" type="curve" smooth="yes"/>
      <point x="409" y="344" type="line"/>
      <point x="355" y="217"/>
      <point x="275" y="128"/>
      <point x="152" y="64" type="curve"/>
      <point x="196" y="-10" type="line"/>
      <point x="345" y="70"/>
      <point x="438" y="182"/>
      <point x="498" y="344" type="curve"/>
      <point x="711" y="344" type="line" smooth="yes"/>
      <point x="722" y="344"/>
      <point x="729" y="341"/>
      <point x="734" y="336" type="curve"/>
      <point x="738" y="331"/>
      <point x="739" y="323"/>
      <point x="738" y="313" type="curve"/>
      <point x="731" y="267"/>
      <point x="718" y="212"/>
      <point x="700" y="149" type="curve" smooth="yes"/>
      <point x="681" y="86"/>
      <point x="665" y="34"/>
    </contour>
  </outline>
</glyph>
<glyph name="ei-bopomofo" format="2">
  <advance width="1000"/>
  <unicode hex="311F"/>
  <outline>
    <contour>
      <point x="778" y="15" type="curve"/>
      <point x="838" y="98" type="line"/>
      <point x="780" y="141"/>
      <point x="724" y="192"/>
      <point x="671" y="251" type="curve" smooth="yes"/>
      <point x="618" y="310"/>
      <point x="573" y="374"/>
      <point x="537" y="442" type="curve" smooth="yes"/>
      <point x="500" y="509"/>
      <point x="468" y="586"/>
      <point x="441" y="672" type="curve" smooth="yes"/>
      <point x="422" y="731"/>
      <point x="374" y="743"/>
      <point x="324" y="711" type="curve" smooth="yes"/>
      <point x="299" y="694"/>
      <point x="264" y="674"/>
      <point x="221" y="650" type="curve" smooth="yes"/>
      <point x="177" y="625"/>
      <point x="139" y="606"/>
      <point x="108" y="593" type="curve"/>
      <point x="148" y="512" type="line"/>
      <point x="175" y="525"/>
      <point x="206" y="543"/>
      <point x="243" y="565" type="curve" smooth="yes"/>
      <point x="279" y="586"/>
      <point x="308" y="604"/>
      <point x="331" y="617" type="curve"/>
      <point x="340" y="623"/>
      <point x="347" y="625"/>
      <point x="354" y="623" type="curve" smooth="yes"/>
      <point x="361" y="621"/>
      <point x="366" y="614"/>
      <point x="370" y="602" type="curve" smooth="yes"/>
      <point x="401" y="511"/>
      <point x="437" y="431"/>
      <point x="476" y="361" type="curve" smooth="yes"/>
      <point x="515" y="291"/>
      <point x="561" y="226"/>
      <point x="615" y="167" type="curve" smooth="yes"/>
      <point x="669" y="107"/>
      <point x="723" y="56"/>
    </contour>
  </outline>
</glyph>
<glyph name="au-bopomofo" format="2">
  <advance width="1000" height="1000"/>
  <unicode hex="3120"/>
  <note>
uni3120
</note>
  <outline>
    <contour>
      <point x="816" y="-22" type="line"/>
      <point x="892" y="21" type="line"/>
      <point x="710" y="319" type="line"/>
      <point x="637" y="284" type="line"/>
      <point x="718" y="138"/>
      <point x="716" y="149" type="qcurve"/>
      <point x="619" y="136"/>
      <point x="409" y="108"/>
      <point x="315" y="96" type="qcurve"/>
      <point x="420" y="185"/>
      <point x="649" y="426"/>
      <point x="746" y="547" type="qcurve"/>
      <point x="674" y="601" type="line"/>
      <point x="649" y="567"/>
      <point x="577" y="481"/>
      <point x="550" y="449" type="qcurve"/>
      <point x="285" y="426" type="line"/>
      <point x="348" y="489"/>
      <point x="471" y="633"/>
      <point x="521" y="709" type="qcurve"/>
      <point x="446" y="755" type="line"/>
      <point x="405" y="693"/>
      <point x="318" y="577"/>
      <point x="247" y="492"/>
      <point x="229" y="476" type="qcurve" smooth="yes"/>
      <point x="185" y="433" type="line"/>
      <point x="168" y="419"/>
      <point x="153" y="381"/>
      <point x="157" y="367" type="qcurve" smooth="yes"/>
      <point x="169" y="330"/>
      <point x="221" y="337" type="qcurve" smooth="yes"/>
      <point x="252" y="341"/>
      <point x="380" y="356"/>
      <point x="485" y="367" type="qcurve"/>
      <point x="448" y="327"/>
      <point x="369" y="247"/>
      <point x="298" y="181"/>
      <point x="271" y="160" type="qcurve" smooth="yes"/>
      <point x="246" y="138"/>
      <point x="204" y="104"/>
      <point x="187" y="92" type="qcurve" smooth="yes"/>
      <point x="167" y="79"/>
      <point x="153" y="49"/>
      <point x="156" y="32" type="qcurve" smooth="yes"/>
      <point x="159" y="14"/>
      <point x="195" y="-2"/>
      <point x="223" y="2" type="qcurve" smooth="yes"/>
      <point x="253" y="7"/>
      <point x="379" y="25"/>
      <point x="594" y="56"/>
      <point x="757" y="78" type="qcurve"/>
    </contour>
  </outline>
</glyph>
<glyph name="ou-bopomofo" format="2">
  <advance width="1000"/>
  <unicode hex="3121"/>
  <outline>
    <contour>
      <point x="547" y="218" type="curve"/>
      <point x="588" y="179"/>
      <point x="631" y="135"/>
      <point x="678" y="87" type="curve" smooth="yes"/>
      <point x="724" y="38"/>
      <point x="760" y="-2"/>
      <point x="785" y="-33" type="curve"/>
      <point x="861" y="28" type="line"/>
      <point x="834" y="61"/>
      <point x="795" y="102"/>
      <point x="746" y="152" type="curve" smooth="yes"/>
      <point x="696" y="202"/>
      <point x="650" y="246"/>
      <point x="609" y="284" type="curve"/>
      <point x="700" y="386"/>
      <point x="770" y="501"/>
      <point x="819" y="628" type="curve" smooth="yes"/>
      <point x="842" y="683"/>
      <point x="814" y="717"/>
      <point x="756" y="717" type="curve" smooth="yes"/>
      <point x="191" y="717" type="line"/>
      <point x="191" y="633" type="line"/>
      <point x="688" y="633" type="line" smooth="yes"/>
      <point x="711" y="633"/>
      <point x="720" y="620"/>
      <point x="711" y="599" type="curve" smooth="yes"/>
      <point x="671" y="510"/>
      <point x="615" y="425"/>
      <point x="542" y="342" type="curve"/>
      <point x="443" y="433"/>
      <point x="362" y="503"/>
      <point x="299" y="552" type="curve"/>
      <point x="242" y="491" type="line"/>
      <point x="296" y="449"/>
      <point x="376" y="379"/>
      <point x="481" y="280" type="curve"/>
      <point x="379" y="184"/>
      <point x="250" y="89"/>
      <point x="129" y="38" type="curve"/>
      <point x="169" y="-45" type="line"/>
      <point x="304" y="15"/>
      <point x="430" y="103"/>
    </contour>
  </outline>
</glyph>
<glyph name="an-bopomofo" format="2">
  <advance width="1000"/>
  <unicode hex="3122"/>
  <outline>
    <contour>
      <point x="623" y="-10" type="curve"/>
      <point x="699" y="-46" type="line"/>
      <point x="722" y="-5"/>
      <point x="749" y="51"/>
      <point x="780" y="120" type="curve" smooth="yes"/>
      <point x="810" y="189"/>
      <point x="832" y="251"/>
      <point x="847" y="306" type="curve" smooth="yes"/>
      <point x="862" y="360"/>
      <point x="833" y="392"/>
      <point x="778" y="392" type="curve" smooth="yes"/>
      <point x="645" y="392" type="line"/>
      <point x="673" y="476"/>
      <point x="702" y="571"/>
      <point x="723" y="657" type="curve" smooth="yes"/>
      <point x="738" y="712"/>
      <point x="710" y="743"/>
      <point x="655" y="743" type="curve" smooth="yes"/>
      <point x="151" y="743" type="line"/>
      <point x="151" y="663" type="line"/>
      <point x="601" y="663" type="line" smooth="yes"/>
      <point x="622" y="663"/>
      <point x="632" y="650"/>
      <point x="627" y="631" type="curve" smooth="yes"/>
      <point x="606" y="555"/>
      <point x="580" y="467"/>
      <point x="555" y="392" type="curve"/>
      <point x="317" y="392" type="line" smooth="yes"/>
      <point x="296" y="392"/>
      <point x="286" y="406"/>
      <point x="295" y="426" type="curve" smooth="yes"/>
      <point x="304" y="447"/>
      <point x="317" y="478"/>
      <point x="333" y="517" type="curve" smooth="yes"/>
      <point x="348" y="556"/>
      <point x="360" y="587"/>
      <point x="368" y="610" type="curve"/>
      <point x="282" y="633" type="line"/>
      <point x="269" y="598"/>
      <point x="253" y="559"/>
      <point x="236" y="515" type="curve" smooth="yes"/>
      <point x="219" y="471"/>
      <point x="203" y="434"/>
      <point x="190" y="405" type="curve" smooth="yes"/>
      <point x="167" y="350"/>
      <point x="186" y="312"/>
      <point x="246" y="312" type="curve" smooth="yes"/>
      <point x="722" y="312" type="line" smooth="yes"/>
      <point x="742" y="312"/>
      <point x="753" y="300"/>
      <point x="746" y="279" type="curve" smooth="yes"/>
      <point x="734" y="239"/>
      <point x="715" y="190"/>
      <point x="689" y="132" type="curve" smooth="yes"/>
      <point x="662" y="73"/>
      <point x="640" y="26"/>
    </contour>
  </outline>
</glyph>
<glyph name="en-bopomofo" format="2">
  <advance width="1000"/>
  <unicode hex="3123"/>
  <outline>
    <contour>
      <point x="621" y="9" type="curve"/>
      <point x="697" y="-25" type="line"/>
      <point x="720" y="22"/>
      <point x="747" y="83"/>
      <point x="778" y="159" type="curve" smooth="yes"/>
      <point x="809" y="234"/>
      <point x="832" y="304"/>
      <point x="849" y="369" type="curve" smooth="yes"/>
      <point x="862" y="424"/>
      <point x="834" y="455"/>
      <point x="779" y="455" type="curve" smooth="yes"/>
      <point x="294" y="455" type="line" smooth="yes"/>
      <point x="271" y="455"/>
      <point x="264" y="468"/>
      <point x="273" y="489" type="curve"/>
      <point x="291" y="524"/>
      <point x="313" y="567"/>
      <point x="340" y="616" type="curve" smooth="yes"/>
      <point x="366" y="665"/>
      <point x="386" y="710"/>
      <point x="399" y="749" type="curve"/>
      <point x="309" y="770" type="line"/>
      <point x="288" y="688"/>
      <point x="227" y="581"/>
      <point x="168" y="470" type="curve" smooth="yes"/>
      <point x="139" y="415"/>
      <point x="159" y="376"/>
      <point x="221" y="376" type="curve" smooth="yes"/>
      <point x="729" y="376" type="line" smooth="yes"/>
      <point x="749" y="376"/>
      <point x="759" y="363"/>
      <point x="754" y="343" type="curve" smooth="yes"/>
      <point x="741" y="294"/>
      <point x="721" y="237"/>
      <point x="692" y="172" type="curve" smooth="yes"/>
      <point x="663" y="107"/>
      <point x="640" y="52"/>
    </contour>
  </outline>
</glyph>
<glyph name="ang-bopomofo" format="2">
  <advance width="1000"/>
  <unicode hex="3124"/>
  <outline>
    <contour>
      <point x="470" y="365" type="curve" smooth="yes"/>
      <point x="473" y="374"/>
      <point x="476" y="383"/>
      <point x="477" y="390" type="curve"/>
      <point x="477" y="127" type="line" smooth="yes"/>
      <point x="477" y="92"/>
      <point x="481" y="64"/>
      <point x="489" y="44" type="curve" smooth="yes"/>
      <point x="497" y="23"/>
      <point x="511" y="9"/>
      <point x="531" y="1" type="curve" smooth="yes"/>
      <point x="551" y="-8"/>
      <point x="579" y="-12"/>
      <point x="615" y="-12" type="curve" smooth="yes"/>
      <point x="717" y="-12"/>
      <point x="767" y="-11"/>
      <point x="811" y="-11" type="curve" smooth="yes"/>
      <point x="872" y="-11" type="line"/>
      <point x="872" y="70" type="line"/>
      <point x="847" y="70" type="line" smooth="yes"/>
      <point x="824" y="70"/>
      <point x="798" y="69"/>
      <point x="738" y="69" type="curve" smooth="yes"/>
      <point x="613" y="69" type="line" smooth="yes"/>
      <point x="577" y="69"/>
      <point x="565" y="82"/>
      <point x="565" y="124" type="curve" smooth="yes"/>
      <point x="565" y="387" type="line" smooth="yes"/>
      <point x="565" y="425"/>
      <point x="556" y="443"/>
      <point x="520" y="443" type="curve" smooth="yes"/>
      <point x="505" y="443"/>
      <point x="494" y="438"/>
      <point x="487" y="428" type="curve"/>
      <point x="494" y="460"/>
      <point x="497" y="485"/>
      <point x="501" y="528" type="curve"/>
      <point x="864" y="528" type="line"/>
      <point x="864" y="610" type="line"/>
      <point x="506" y="610" type="line"/>
      <point x="506" y="778" type="line"/>
      <point x="421" y="778" type="line"/>
      <point x="421" y="610" type="line"/>
      <point x="106" y="610" type="line"/>
      <point x="106" y="528" type="line"/>
      <point x="416" y="528" type="line"/>
      <point x="412" y="488"/>
      <point x="405" y="447"/>
      <point x="394" y="406" type="curve" smooth="yes"/>
      <point x="383" y="365"/>
      <point x="366" y="324"/>
      <point x="344" y="284" type="curve" smooth="yes"/>
      <point x="321" y="243"/>
      <point x="291" y="204"/>
      <point x="254" y="167" type="curve" smooth="yes"/>
      <point x="217" y="129"/>
      <point x="169" y="93"/>
      <point x="112" y="60" type="curve"/>
      <point x="157" y="-16" type="line"/>
      <point x="316" y="78"/>
      <point x="422" y="202"/>
    </contour>
  </outline>
</glyph>
<glyph name="eng-bopomofo" format="2">
  <advance width="1000"/>
  <unicode hex="3125"/>
  <outline>
    <contour>
      <point x="409" y="15" type="curve" smooth="yes"/>
      <point x="456" y="16"/>
      <point x="519" y="18"/>
      <point x="596" y="21" type="curve" smooth="yes"/>
      <point x="673" y="23"/>
      <point x="755" y="25"/>
      <point x="844" y="28" type="curve"/>
      <point x="843" y="111" type="line"/>
      <point x="662" y="107"/>
      <point x="462" y="102"/>
      <point x="280" y="98" type="curve" smooth="yes"/>
      <point x="256" y="97"/>
      <point x="248" y="113"/>
      <point x="261" y="133" type="curve" smooth="yes"/>
      <point x="364" y="288"/>
      <point x="468" y="485"/>
      <point x="552" y="690" type="curve"/>
      <point x="461" y="720" type="line"/>
      <point x="440" y="663"/>
      <point x="417" y="608"/>
      <point x="392" y="554" type="curve" smooth="yes"/>
      <point x="367" y="499"/>
      <point x="342" y="449"/>
      <point x="318" y="402" type="curve" smooth="yes"/>
      <point x="294" y="355"/>
      <point x="272" y="314"/>
      <point x="253" y="281" type="curve" smooth="yes"/>
      <point x="233" y="247"/>
      <point x="218" y="222"/>
      <point x="207" y="207" type="curve"/>
      <point x="182" y="169"/>
      <point x="159" y="139"/>
      <point x="143" y="116" type="curve" smooth="yes"/>
      <point x="130" y="99"/>
      <point x="124" y="82"/>
      <point x="123" y="65" type="curve" smooth="yes"/>
      <point x="122" y="48"/>
      <point x="128" y="35"/>
      <point x="140" y="24" type="curve" smooth="yes"/>
      <point x="151" y="13"/>
      <point x="169" y="7"/>
      <point x="193" y="8" type="curve" smooth="yes"/>
      <point x="231" y="8"/>
      <point x="291" y="12"/>
    </contour>
  </outline>
</glyph>
<glyph name="er-bopomofo" format="2">
  <advance width="1000"/>
  <unicode hex="3126"/>
  <outline>
    <contour>
      <point x="882" y="4" type="line"/>
      <point x="882" y="88" type="line"/>
      <point x="696" y="88" type="line" smooth="yes"/>
      <point x="658" y="88"/>
      <point x="646" y="104"/>
      <point x="646" y="162" type="curve" smooth="yes"/>
      <point x="646" y="758" type="line"/>
      <point x="556" y="758" type="line"/>
      <point x="556" y="167" type="line" smooth="yes"/>
      <point x="556" y="126"/>
      <point x="560" y="93"/>
      <point x="569" y="69" type="curve" smooth="yes"/>
      <point x="578" y="45"/>
      <point x="592" y="28"/>
      <point x="613" y="19" type="curve" smooth="yes"/>
      <point x="634" y="9"/>
      <point x="662" y="4"/>
      <point x="698" y="4" type="curve" smooth="yes"/>
    </contour>
    <contour>
      <point x="390" y="490" type="curve" smooth="yes"/>
      <point x="390" y="757" type="line"/>
      <point x="302" y="757" type="line"/>
      <point x="302" y="490" type="line" smooth="yes"/>
      <point x="302" y="453"/>
      <point x="300" y="416"/>
      <point x="296" y="378" type="curve" smooth="yes"/>
      <point x="291" y="340"/>
      <point x="283" y="303"/>
      <point x="270" y="266" type="curve" smooth="yes"/>
      <point x="257" y="229"/>
      <point x="236" y="193"/>
      <point x="207" y="160" type="curve" smooth="yes"/>
      <point x="178" y="126"/>
      <point x="142" y="95"/>
      <point x="99" y="66" type="curve"/>
      <point x="150" y="-11" type="line"/>
      <point x="201" y="22"/>
      <point x="243" y="59"/>
      <point x="277" y="98" type="curve" smooth="yes"/>
      <point x="311" y="137"/>
      <point x="336" y="178"/>
      <point x="351" y="221" type="curve" smooth="yes"/>
      <point x="366" y="264"/>
      <point x="377" y="309"/>
      <point x="382" y="354" type="curve" smooth="yes"/>
      <point x="387" y="399"/>
      <point x="390" y="445"/>
    </contour>
  </outline>
</glyph>
<glyph name="i-bopomofo" format="2">
  <advance width="1000"/>
  <unicode hex="3127"/>
  <outline>
    <contour>
      <point x="866" y="333" type="line"/>
      <point x="866" y="420" type="line"/>
      <point x="134" y="420" type="line"/>
      <point x="134" y="333" type="line"/>
    </contour>
  </outline>
</glyph>
<glyph name="u-bopomofo" format="2">
  <advance width="1000"/>
  <unicode hex="3128"/>
  <outline>
    <contour>
      <point x="533" y="300" type="curve"/>
      <point x="628" y="198"/>
      <point x="696" y="117"/>
      <point x="752" y="41" type="curve"/>
      <point x="838" y="103" type="line"/>
      <point x="780" y="178"/>
      <point x="697" y="271"/>
      <point x="594" y="377" type="curve"/>
      <point x="665" y="476"/>
      <point x="729" y="583"/>
      <point x="785" y="698" type="curve"/>
      <point x="700" y="730" type="line"/>
      <point x="655" y="634"/>
      <point x="598" y="537"/>
      <point x="529" y="440" type="curve"/>
      <point x="447" y="519"/>
      <point x="361" y="599"/>
      <point x="282" y="669" type="curve"/>
      <point x="223" y="606" type="line"/>
      <point x="310" y="528"/>
      <point x="393" y="447"/>
      <point x="472" y="365" type="curve"/>
      <point x="380" y="256"/>
      <point x="275" y="162"/>
      <point x="162" y="91" type="curve"/>
      <point x="220" y="11" type="line"/>
      <point x="335" y="93"/>
      <point x="441" y="190"/>
    </contour>
  </outline>
</glyph>
<glyph name="iu-bopomofo" format="2">
  <advance width="1000" height="1000"/>
  <unicode hex="3129"/>
  <note>
uni3129
</note>
  <outline>
    <contour>
      <point x="765" y="13" type="line" smooth="yes"/>
      <point x="843" y="13"/>
      <point x="843" y="92" type="qcurve" smooth="yes"/>
      <point x="843" y="707" type="line"/>
      <point x="755" y="707" type="line"/>
      <point x="755" y="124" type="line" smooth="yes"/>
      <point x="755" y="97"/>
      <point x="729" y="97" type="qcurve" smooth="yes"/>
      <point x="270" y="97" type="line" smooth="yes"/>
      <point x="240" y="97"/>
      <point x="240" y="126" type="qcurve" smooth="yes"/>
      <point x="240" y="703" type="line"/>
      <point x="152" y="703" type="line"/>
      <point x="152" y="92" type="line" smooth="yes"/>
      <point x="152" y="54"/>
      <point x="196" y="12"/>
      <point x="236" y="13" type="qcurve" smooth="yes"/>
    </contour>
  </outline>
</glyph>
<glyph name="J.ss01" format="2">
  <advance width="495"/>
  <outline>
    <contour>
      <point x="239" y="-15" type="curve" smooth="yes"/>
      <point x="299" y="-15"/>
      <point x="349" y="5"/>
      <point x="386" y="46" type="curve" smooth="yes"/>
      <point x="424" y="87"/>
      <point x="443" y="137"/>
      <point x="443" y="196" type="curve" smooth="yes"/>
      <point x="443" y="647" type="line"/>
      <point x="333" y="647" type="line"/>
      <point x="333" y="194" type="line" smooth="yes"/>
      <point x="333" y="128"/>
      <point x="296" y="88"/>
      <point x="238" y="88" type="curve" smooth="yes"/>
      <point x="178" y="88"/>
      <point x="138" y="125"/>
      <point x="138" y="198" type="curve" smooth="yes"/>
      <point x="138" y="237" type="line"/>
      <point x="31" y="237" type="line"/>
      <point x="31" y="195" type="line" smooth="yes"/>
      <point x="31" y="67"/>
      <point x="112" y="-15"/>
    </contour>
  </outline>
</glyph>
<glyph name="M.alt" format="2">
  <advance width="950"/>
  <outline>
    <contour>
      <point x="832" y="0" type="line"/>
      <point x="832" y="649" type="line"/>
      <point x="683" y="649" type="line"/>
      <point x="475" y="154" type="line"/>
      <point x="265" y="649" type="line"/>
      <point x="118" y="649" type="line"/>
      <point x="118" y="0" type="line"/>
      <point x="225" y="0" type="line"/>
      <point x="225" y="476" type="line"/>
      <point x="426" y="0" type="line"/>
      <point x="521" y="0" type="line"/>
      <point x="723" y="478" type="line"/>
      <point x="723" y="0" type="line"/>
    </contour>
  </outline>
</glyph>
<glyph name="Q.alt" format="2">
  <advance width="897"/>
  <outline>
    <contour>
      <point x="401" y="-170" type="line"/>
      <point x="502" y="-170" type="line"/>
      <point x="502" y="-28" type="line"/>
      <point x="671" y="3"/>
      <point x="789" y="148"/>
      <point x="789" y="305" type="curve" smooth="yes"/>
      <point x="789" y="481"/>
      <point x="660" y="644"/>
      <point x="452" y="644" type="curve" smooth="yes"/>
      <point x="242" y="644"/>
      <point x="113" y="481"/>
      <point x="113" y="305" type="curve" smooth="yes"/>
      <point x="113" y="148"/>
      <point x="233" y="3"/>
      <point x="401" y="-28" type="curve"/>
    </contour>
    <contour>
      <point x="452" y="72" type="curve" smooth="yes"/>
      <point x="323" y="72"/>
      <point x="226" y="171"/>
      <point x="226" y="305" type="curve" smooth="yes"/>
      <point x="226" y="438"/>
      <point x="323" y="538"/>
      <point x="452" y="538" type="curve" smooth="yes"/>
      <point x="580" y="538"/>
      <point x="676" y="438"/>
      <point x="676" y="305" type="curve" smooth="yes"/>
      <point x="676" y="171"/>
      <point x="580" y="72"/>
    </contour>
  </outline>
</glyph>
<glyph name="S.alt" format="2">
  <advance width="662"/>
  <outline>
    <contour>
      <point x="69" y="0" type="line"/>
      <point x="397" y="0" type="line" smooth="yes"/>
      <point x="507" y="0"/>
      <point x="582" y="90"/>
      <point x="582" y="186" type="curve" smooth="yes"/>
      <point x="582" y="293"/>
      <point x="507" y="371"/>
      <point x="397" y="371" type="curve" smooth="yes"/>
      <point x="255" y="371" type="line" smooth="yes"/>
      <point x="199" y="371"/>
      <point x="162" y="408"/>
      <point x="162" y="463" type="curve" smooth="yes"/>
      <point x="162" y="519"/>
      <point x="199" y="555"/>
      <point x="255" y="555" type="curve" smooth="yes"/>
      <point x="527" y="555" type="line"/>
      <point x="527" y="649" type="line"/>
      <point x="244" y="649" type="line" smooth="yes"/>
      <point x="133" y="649"/>
      <point x="58" y="561"/>
      <point x="58" y="463" type="curve" smooth="yes"/>
      <point x="58" y="356"/>
      <point x="133" y="278"/>
      <point x="244" y="278" type="curve" smooth="yes"/>
      <point x="386" y="278" type="line" smooth="yes"/>
      <point x="441" y="278"/>
      <point x="478" y="241"/>
      <point x="478" y="186" type="curve" smooth="yes"/>
      <point x="478" y="130"/>
      <point x="441" y="92"/>
      <point x="386" y="92" type="curve" smooth="yes"/>
      <point x="69" y="92" type="line"/>
    </contour>
  </outline>
</glyph>
<glyph name="V.alt" format="2">
  <advance width="622"/>
  <outline>
    <contour>
      <point x="311" y="-7" type="curve" smooth="yes"/>
      <point x="355" y="-7"/>
      <point x="378" y="27"/>
      <point x="391" y="68" type="curve" smooth="yes"/>
      <point x="579" y="646" type="line"/>
      <point x="478" y="646" type="line"/>
      <point x="311" y="110" type="line"/>
      <point x="144" y="646" type="line"/>
      <point x="43" y="646" type="line"/>
      <point x="231" y="68" type="line" smooth="yes"/>
      <point x="244" y="27"/>
      <point x="267" y="-7"/>
    </contour>
  </outline>
</glyph>
<glyph name="W.alt" format="2">
  <advance width="1081"/>
  <outline>
    <contour>
      <point x="314" y="-7" type="curve" smooth="yes"/>
      <point x="359" y="-7"/>
      <point x="380" y="20"/>
      <point x="395" y="67" type="curve" smooth="yes"/>
      <point x="540" y="530" type="line"/>
      <point x="686" y="67" type="line" smooth="yes"/>
      <point x="701" y="20"/>
      <point x="722" y="-7"/>
      <point x="767" y="-7" type="curve" smooth="yes"/>
      <point x="811" y="-7"/>
      <point x="834" y="22"/>
      <point x="847" y="67" type="curve" smooth="yes"/>
      <point x="1023" y="646" type="line"/>
      <point x="917" y="646" type="line"/>
      <point x="766" y="115" type="line"/>
      <point x="620" y="581" type="line" smooth="yes"/>
      <point x="606" y="625"/>
      <point x="578" y="649"/>
      <point x="541" y="649" type="curve" smooth="yes"/>
      <point x="503" y="649"/>
      <point x="476" y="625"/>
      <point x="462" y="581" type="curve" smooth="yes"/>
      <point x="315" y="115" type="line"/>
      <point x="164" y="646" type="line"/>
      <point x="58" y="646" type="line"/>
      <point x="233" y="67" type="line" smooth="yes"/>
      <point x="247" y="22"/>
      <point x="270" y="-7"/>
    </contour>
  </outline>
</glyph>
<glyph name=".notdef" format="2">
  <advance width="1209"/>
  <outline>
    <contour>
      <point x="384" y="0" type="line"/>
      <point x="825" y="0" type="line"/>
      <point x="825" y="700" type="line"/>
      <point x="384" y="700" type="line"/>
    </contour>
    <contour>
      <point x="479" y="95" type="line"/>
      <point x="479" y="605" type="line"/>
      <point x="730" y="605" type="line"/>
      <point x="730" y="95" type="line"/>
    </contour>
  </outline>
</glyph>
<glyph name="ampersand.ss01" format="2">
  <advance width="1454"/>
  <outline>
    <contour>
      <point x="1094" y="-12" type="line"/>
      <point x="921" y="155" type="line"/>
      <point x="927" y="165"/>
      <point x="934" y="174"/>
      <point x="940" y="184" type="curve" smooth="yes"/>
      <point x="1028" y="323" type="line"/>
      <point x="943" y="376" type="line"/>
      <point x="847" y="226" type="line"/>
      <point x="717" y="351" type="line"/>
      <point x="786" y="402"/>
      <point x="850" y="458"/>
      <point x="850" y="536" type="curve" smooth="yes"/>
      <point x="850" y="634"/>
      <point x="772" y="700"/>
      <point x="657" y="700" type="curve" smooth="yes"/>
      <point x="541" y="700"/>
      <point x="464" y="628"/>
      <point x="464" y="533" type="curve" smooth="yes"/>
      <point x="464" y="463"/>
      <point x="494" y="418"/>
      <point x="558" y="355" type="curve"/>
      <point x="492" y="304"/>
      <point x="434" y="244"/>
      <point x="434" y="160" type="curve" smooth="yes"/>
      <point x="434" y="43"/>
      <point x="514" y="-25"/>
      <point x="645" y="-25" type="curve" smooth="yes"/>
      <point x="740" y="-25"/>
      <point x="806" y="16"/>
      <point x="856" y="71" type="curve"/>
      <point x="943" y="-12" type="line"/>
    </contour>
    <contour>
      <point x="577" y="526" type="curve" smooth="yes"/>
      <point x="577" y="573"/>
      <point x="606" y="601"/>
      <point x="657" y="601" type="curve" smooth="yes"/>
      <point x="708" y="601"/>
      <point x="738" y="576"/>
      <point x="738" y="531" type="curve" smooth="yes"/>
      <point x="738" y="491"/>
      <point x="698" y="456"/>
      <point x="646" y="419" type="curve"/>
      <point x="591" y="472"/>
      <point x="577" y="492"/>
    </contour>
    <contour>
      <point x="651" y="74" type="curve" smooth="yes"/>
      <point x="589" y="74"/>
      <point x="547" y="110"/>
      <point x="547" y="163" type="curve" smooth="yes"/>
      <point x="547" y="211"/>
      <point x="583" y="249"/>
      <point x="630" y="287" type="curve"/>
      <point x="784" y="140" type="line"/>
      <point x="745" y="96"/>
      <point x="707" y="74"/>
    </contour>
  </outline>
</glyph>
<glyph name="barlessf" format="2">
  <advance width="299"/>
  <outline>
    <contour>
      <point x="96" y="0" type="line"/>
      <point x="208" y="0" type="line"/>
      <point x="208" y="494" type="line" smooth="yes"/>
      <point x="208" y="535"/>
      <point x="232" y="546"/>
      <point x="280" y="546" type="curve" smooth="yes"/>
      <point x="289" y="546" type="line"/>
      <point x="289" y="650" type="line"/>
      <point x="252" y="650" type="line" smooth="yes"/>
      <point x="161" y="650"/>
      <point x="96" y="585"/>
      <point x="96" y="494" type="curve"/>
    </contour>
  </outline>
</glyph>
<glyph name="barlesst" format="2">
  <advance width="342"/>
  <outline>
    <contour>
      <point x="261" y="0" type="curve" smooth="yes"/>
      <point x="299" y="0" type="line"/>
      <point x="299" y="94" type="line"/>
      <point x="269" y="94" type="line" smooth="yes"/>
      <point x="237" y="94"/>
      <point x="217" y="116"/>
      <point x="217" y="146" type="curve"/>
      <point x="217" y="650" type="line"/>
      <point x="105" y="650" type="line"/>
      <point x="105" y="146" type="line" smooth="yes"/>
      <point x="105" y="56"/>
      <point x="169" y="0"/>
    </contour>
  </outline>
</glyph>
<glyph name="c.ss01" format="2">
  <advance width="464"/>
  <outline>
    <contour>
      <point x="268" y="-10" type="curve" smooth="yes"/>
      <point x="326" y="-10"/>
      <point x="382" y="14"/>
      <point x="422" y="56" type="curve"/>
      <point x="348" y="128" type="line"/>
      <point x="328" y="108"/>
      <point x="298" y="94"/>
      <point x="268" y="94" type="curve" smooth="yes"/>
      <point x="204" y="94"/>
      <point x="156" y="144"/>
      <point x="156" y="208" type="curve" smooth="yes"/>
      <point x="156" y="274"/>
      <point x="204" y="322"/>
      <point x="268" y="322" type="curve" smooth="yes"/>
      <point x="300" y="322"/>
      <point x="328" y="310"/>
      <point x="350" y="290" type="curve"/>
      <point x="424" y="364" type="line"/>
      <point x="380" y="408"/>
      <point x="330" y="426"/>
      <point x="268" y="426" type="curve" smooth="yes"/>
      <point x="148" y="426"/>
      <point x="44" y="328"/>
      <point x="44" y="208" type="curve" smooth="yes"/>
      <point x="44" y="78"/>
      <point x="138" y="-10"/>
    </contour>
  </outline>
</glyph>
<glyph name="comma.alt" format="2">
  <advance width="186"/>
  <outline>
    <contour>
      <point x="19" y="-116" type="line"/>
      <point x="82" y="-116" type="line"/>
      <point x="176" y="96" type="line"/>
      <point x="53" y="96" type="line"/>
    </contour>
  </outline>
</glyph>
<glyph name="e.alt" format="2">
  <advance width="494"/>
  <outline>
    <contour>
      <point x="262" y="-10" type="curve" smooth="yes"/>
      <point x="322" y="-10"/>
      <point x="380" y="16"/>
      <point x="422" y="56" type="curve"/>
      <point x="354" y="126" type="line"/>
      <point x="334" y="104"/>
      <point x="302" y="88"/>
      <point x="268" y="88" type="curve" smooth="yes"/>
      <point x="254" y="88"/>
      <point x="238" y="92"/>
      <point x="222" y="102" type="curve"/>
      <point x="450" y="334" type="line"/>
      <point x="438" y="356"/>
      <point x="378" y="426"/>
      <point x="262" y="426" type="curve" smooth="yes"/>
      <point x="138" y="426"/>
      <point x="44" y="334"/>
      <point x="44" y="208" type="curve" smooth="yes"/>
      <point x="44" y="78"/>
      <point x="152" y="-10"/>
    </contour>
    <contour>
      <point x="158" y="166" type="line"/>
      <point x="150" y="180"/>
      <point x="146" y="196"/>
      <point x="146" y="212" type="curve"/>
      <point x="140" y="278"/>
      <point x="196" y="330"/>
      <point x="260" y="330" type="curve" smooth="yes"/>
      <point x="274" y="330"/>
      <point x="296" y="326"/>
      <point x="308" y="318" type="curve"/>
    </contour>
  </outline>
</glyph>
<glyph name="f.ss01" format="2">
  <advance width="336"/>
  <outline>
    <contour>
      <point x="64" y="0" type="line"/>
      <point x="82" y="0" type="line" smooth="yes"/>
      <point x="174" y="0"/>
      <point x="238" y="66"/>
      <point x="238" y="156" type="curve" smooth="yes"/>
      <point x="238" y="312" type="line"/>
      <point x="296" y="312" type="line"/>
      <point x="296" y="416" type="line"/>
      <point x="238" y="416" type="line"/>
      <point x="238" y="572" type="line" smooth="yes"/>
      <point x="238" y="604"/>
      <point x="260" y="624"/>
      <point x="290" y="624" type="curve" smooth="yes"/>
      <point x="302" y="624" type="line"/>
      <point x="302" y="728" type="line"/>
      <point x="282" y="728" type="line" smooth="yes"/>
      <point x="192" y="728"/>
      <point x="126" y="664"/>
      <point x="126" y="572" type="curve" smooth="yes"/>
      <point x="126" y="416" type="line"/>
      <point x="72" y="416" type="line"/>
      <point x="72" y="312" type="line"/>
      <point x="126" y="312" type="line"/>
      <point x="126" y="156" type="line" smooth="yes"/>
      <point x="126" y="126"/>
      <point x="106" y="104"/>
      <point x="74" y="104" type="curve" smooth="yes"/>
      <point x="64" y="104" type="line"/>
    </contour>
  </outline>
</glyph>
<glyph name="g.alt" format="2">
  <advance width="556"/>
  <outline>
    <contour>
      <point x="264" y="-218" type="curve" smooth="yes"/>
      <point x="384" y="-218"/>
      <point x="488" y="-130"/>
      <point x="488" y="0" type="curve" smooth="yes"/>
      <point x="488" y="261" type="line" smooth="yes"/>
      <point x="488" y="291"/>
      <point x="508" y="313"/>
      <point x="540" y="313" type="curve" smooth="yes"/>
      <point x="544" y="313" type="line"/>
      <point x="544" y="417" type="line"/>
      <point x="530" y="417" type="line" smooth="yes"/>
      <point x="484" y="417"/>
      <point x="445" y="390"/>
      <point x="419" y="361" type="curve"/>
      <point x="380" y="396"/>
      <point x="326" y="426"/>
      <point x="264" y="426" type="curve" smooth="yes"/>
      <point x="144" y="426"/>
      <point x="40" y="328"/>
      <point x="40" y="208" type="curve" smooth="yes"/>
      <point x="40" y="78"/>
      <point x="128" y="-10"/>
      <point x="254" y="-10" type="curve" smooth="yes"/>
      <point x="306" y="-10"/>
      <point x="354" y="8"/>
      <point x="378" y="36" type="curve"/>
      <point x="378" y="0" type="line" smooth="yes"/>
      <point x="378" y="-68"/>
      <point x="332" y="-120"/>
      <point x="264" y="-120" type="curve" smooth="yes"/>
      <point x="196" y="-120"/>
      <point x="150" y="-72"/>
      <point x="150" y="-4" type="curve"/>
      <point x="44" y="-4" type="line"/>
      <point x="44" y="-136"/>
      <point x="132" y="-218"/>
    </contour>
    <contour>
      <point x="264" y="94" type="curve" smooth="yes"/>
      <point x="200" y="94"/>
      <point x="152" y="144"/>
      <point x="152" y="208" type="curve" smooth="yes"/>
      <point x="152" y="274"/>
      <point x="200" y="322"/>
      <point x="264" y="322" type="curve" smooth="yes"/>
      <point x="330" y="322"/>
      <point x="376" y="274"/>
      <point x="376" y="208" type="curve" smooth="yes"/>
      <point x="376" y="144"/>
      <point x="330" y="94"/>
    </contour>
  </outline>
</glyph>
